{"glyphs":{"0":{"ha":696,"x_min":0,"x_max":0,"o":"m 649 676 b 349 978 649 842 528 978 b 47 676 169 978 47 843 l 47 286 b 349 -14 47 122 169 -14 b 649 286 528 -14 649 125 z m 408 286 b 349 226 408 254 383 226 b 288 286 315 226 288 254 l 288 676 b 349 738 288 710 315 738 b 408 676 383 738 408 710 z "},"1":{"ha":436,"x_min":0,"x_max":0,"o":"m 390 0 l 390 722 b 149 964 390 876 301 964 l 28 964 l 28 722 l 89 722 b 149 663 132 722 149 706 l 149 0 z "},"2":{"ha":817,"x_min":0,"x_max":0,"o":"m 529 361 b 769 603 681 361 769 449 l 769 722 b 529 964 769 878 683 964 l 47 964 l 47 722 l 468 722 b 526 667 506 722 526 704 b 468 603 526 632 501 603 l 47 603 l 47 361 z m 769 0 l 769 240 l 47 240 l 47 0 z "},"3":{"ha":817,"x_min":0,"x_max":0,"o":"m 529 0 b 769 240 683 0 769 86 l 769 361 b 699 481 769 411 743 460 b 764 603 736 503 764 547 l 764 722 b 529 964 764 876 682 964 l 47 964 l 47 722 l 469 722 b 528 653 503 722 528 697 b 469 592 528 615 507 592 l 50 592 l 50 372 l 469 372 b 528 303 503 372 528 353 b 469 240 528 265 507 240 l 47 240 l 47 0 z "},"4":{"ha":767,"x_min":0,"x_max":0,"o":"m 719 0 l 719 964 l 479 964 l 479 0 z m 407 240 l 407 482 l 286 482 l 286 964 l 46 964 l 46 240 z "},"5":{"ha":817,"x_min":0,"x_max":0,"o":"m 757 722 l 757 964 l 47 964 l 47 722 z m 529 0 b 769 240 683 0 769 86 l 769 361 b 529 603 769 514 681 603 l 47 603 l 47 361 l 468 361 b 526 297 501 361 526 332 b 468 240 526 260 506 240 l 47 240 l 47 0 z "},"6":{"ha":801,"x_min":0,"x_max":0,"o":"m 529 0 b 769 240 683 0 769 86 l 769 397 b 529 638 769 550 682 638 l 367 638 b 288 614 321 638 303 629 l 288 964 l 47 964 l 47 240 b 288 0 47 86 133 0 z m 526 297 b 472 240 526 260 507 240 l 343 240 b 289 297 307 240 289 260 l 289 347 b 343 404 289 386 307 404 l 472 404 b 526 347 507 404 526 386 z "},"7":{"ha":657,"x_min":0,"x_max":0,"o":"m 389 0 l 629 819 l 629 964 l 26 964 l 26 722 l 357 722 l 147 0 z "},"8":{"ha":817,"x_min":0,"x_max":0,"o":"m 529 0 b 769 240 683 0 769 86 l 769 361 b 699 481 769 411 743 460 b 764 603 736 503 764 547 l 764 722 b 529 964 764 876 682 964 l 288 964 b 53 722 135 964 53 876 l 53 603 b 118 481 53 547 81 503 b 47 361 74 460 47 411 l 47 240 b 288 0 47 86 133 0 z m 347 240 b 289 303 308 240 289 265 b 347 372 289 353 314 372 l 469 372 b 528 303 503 372 528 353 b 469 240 528 265 507 240 z m 347 592 b 289 653 308 592 289 615 b 347 722 289 697 314 722 l 469 722 b 528 653 503 722 528 697 b 469 592 528 615 507 592 z "},"9":{"ha":801,"x_min":0,"x_max":0,"o":"m 757 0 l 757 722 b 515 964 757 878 671 964 l 275 964 b 33 722 121 964 33 878 l 33 567 b 275 326 33 414 122 326 l 436 326 b 515 350 483 326 500 335 l 515 0 z m 514 617 b 461 560 514 578 496 560 l 332 560 b 278 617 296 560 278 578 l 278 667 b 332 722 278 704 296 722 l 461 722 b 514 667 496 722 514 704 z "},"\u0017":{"ha":347,"x_min":0,"x_max":0,"o":""}," ":{"ha":347,"x_min":0,"x_max":0,"o":""},"!":{"ha":368,"x_min":0,"x_max":0,"o":"m 301 361 l 301 964 l 61 964 l 61 361 z m 364 60 b 183 240 364 157 281 240 b 3 60 83 240 3 157 b 183 -121 3 -39 85 -121 b 364 60 279 -121 364 -39 z m 244 60 b 183 0 244 26 217 0 b 124 60 150 0 124 26 b 183 121 124 93 150 121 b 244 60 217 121 244 93 z "},"\"":{"ha":651,"x_min":0,"x_max":0,"o":"m 283 482 l 283 843 b 163 964 283 910 229 964 b 43 843 96 964 43 910 l 43 482 z m 610 482 l 610 843 b 489 964 610 910 556 964 b 369 843 422 964 369 910 l 369 482 z "},"#":{"ha":960,"x_min":0,"x_max":0,"o":"m 694 0 l 721 196 l 847 196 l 875 396 l 750 396 l 771 561 l 899 561 l 925 760 l 800 760 l 828 964 l 629 964 l 601 760 l 433 760 l 464 964 l 264 964 l 235 760 l 108 760 l 79 561 l 208 561 l 185 396 l 57 396 l 29 196 l 157 196 l 129 0 l 329 0 l 356 196 l 522 196 l 494 0 z m 550 396 l 383 396 l 407 561 l 572 561 z "},"$":{"ha":631,"x_min":0,"x_max":0,"o":"m 315 0 l 315 96 l 411 96 b 604 289 539 96 604 160 l 604 386 b 411 576 604 513 539 576 l 267 576 b 221 622 235 576 221 588 b 315 675 221 669 232 675 l 507 675 l 507 964 l 315 964 l 315 867 l 218 867 b 25 675 89 867 25 803 l 25 576 b 218 386 25 450 89 386 l 342 386 b 408 342 397 386 408 374 b 346 289 408 294 396 289 l 122 289 l 122 0 z "},"%":{"ha":1000,"x_min":0,"x_max":0,"o":"m 388 793 b 217 964 388 886 310 964 b 47 793 126 964 47 888 l 47 599 b 217 429 47 507 125 429 b 388 599 311 429 388 508 z m 240 599 b 217 576 240 585 231 576 b 194 599 204 576 194 585 l 194 793 b 217 817 194 807 204 817 b 240 793 231 817 240 807 z m 246 0 l 936 964 l 754 964 l 63 0 z m 953 364 b 782 535 953 457 875 535 b 613 364 692 535 613 458 l 613 169 b 782 0 613 78 690 0 b 953 169 876 0 953 79 z m 806 169 b 782 147 806 156 796 147 b 760 169 769 147 760 156 l 760 364 b 782 388 760 378 769 388 b 806 364 796 388 806 378 z "},"&":{"ha":878,"x_min":0,"x_max":0,"o":"m 831 0 l 831 240 l 757 240 b 710 288 717 240 710 249 l 710 364 l 831 364 l 831 600 l 710 600 l 710 722 l 469 722 l 469 600 l 349 600 b 290 658 310 600 290 621 b 349 722 290 703 315 722 l 408 722 l 408 964 l 288 964 b 51 722 136 964 51 876 l 51 603 b 124 481 51 551 82 494 b 47 361 75 450 47 411 l 47 240 b 288 0 47 81 128 0 l 432 0 b 529 49 472 0 504 15 b 625 0 554 15 586 0 z m 469 240 l 349 240 b 290 297 310 240 290 260 b 349 364 290 343 315 364 l 469 364 z "},"'":{"ha":326,"x_min":0,"x_max":0,"o":"m 283 482 l 283 843 b 163 964 283 910 229 964 b 43 843 96 964 43 910 l 43 482 z "},"(":{"ha":510,"x_min":0,"x_max":0,"o":"m 497 -311 l 497 -150 l 450 -150 b 349 -39 383 -150 349 -126 l 349 939 b 450 1050 349 1026 383 1050 l 497 1050 l 497 1211 l 453 1211 b 144 935 249 1211 144 1099 l 144 -36 b 453 -311 144 -199 249 -311 z "},")":{"ha":510,"x_min":0,"x_max":0,"o":"m 58 -311 b 365 -36 263 -311 365 -199 l 365 935 b 58 1211 365 1099 263 1211 l 13 1211 l 13 1050 l 60 1050 b 161 939 128 1050 161 1026 l 161 -39 b 60 -150 161 -126 128 -150 l 13 -150 l 13 -311 z "},"*":{"ha":658,"x_min":0,"x_max":0,"o":"m 619 482 b 331 771 619 639 488 771 b 42 482 171 771 42 640 b 331 193 42 324 171 193 b 619 482 488 193 619 325 z m 536 415 l 376 415 l 331 265 l 282 417 l 124 417 l 254 506 l 203 657 l 331 563 l 457 657 l 406 506 z "},"+":{"ha":847,"x_min":0,"x_max":0,"o":"m 525 140 l 525 386 l 769 386 l 769 586 l 525 586 l 525 831 l 325 831 l 325 586 l 78 586 l 78 386 l 325 386 l 325 140 z "},",":{"ha":411,"x_min":0,"x_max":0,"o":"m 363 -240 l 363 0 l 326 0 b 290 83 297 0 290 3 l 290 121 b 169 240 290 188 236 240 b 50 121 103 240 50 188 l 50 0 b 290 -240 50 -154 136 -240 z "},"-":{"ha":571,"x_min":0,"x_max":0,"o":"m 526 346 l 526 586 l 44 586 l 44 346 z "},".":{"ha":443,"x_min":0,"x_max":0,"o":"m 403 60 b 221 240 403 157 319 240 b 42 60 122 240 42 157 b 221 -121 42 -39 124 -121 b 403 60 318 -121 403 -39 z m 282 60 b 221 0 282 26 256 0 b 161 60 189 0 161 26 b 221 121 161 93 189 121 b 282 60 256 121 282 93 z "},"/":{"ha":785,"x_min":0,"x_max":0,"o":"m 204 -143 l 785 1017 l 582 1017 l 0 -143 z "},":":{"ha":603,"x_min":0,"x_max":0,"o":"m 482 215 b 300 397 482 314 399 397 b 121 215 201 397 121 314 b 300 36 121 118 203 36 b 482 215 397 36 482 118 z m 361 215 b 300 156 361 183 335 156 b 240 215 268 156 240 183 b 300 276 240 250 268 276 b 361 215 335 276 361 250 z m 482 654 b 300 836 482 753 399 836 b 121 654 201 836 121 753 b 300 475 121 557 203 475 b 482 654 397 475 482 557 z m 361 654 b 300 596 361 622 335 596 b 240 654 268 596 240 622 b 300 715 240 689 268 715 b 361 654 335 715 361 689 z "},";":{"ha":603,"x_min":0,"x_max":0,"o":"m 482 654 b 300 836 482 753 399 836 b 121 654 201 836 121 753 b 300 475 121 557 203 475 b 482 654 397 475 482 557 z m 361 654 b 300 596 361 622 335 596 b 240 654 268 596 240 622 b 300 715 240 689 268 715 b 361 654 335 715 361 689 z m 493 -240 l 493 0 l 457 0 b 421 83 428 0 421 3 l 421 121 b 300 240 421 188 367 240 b 181 121 233 240 181 188 l 181 0 b 421 -240 181 -154 267 -240 z "},"<":{"ha":847,"x_min":0,"x_max":0,"o":"m 769 26 l 769 251 l 344 450 l 769 649 l 769 874 l 171 582 b 78 450 117 554 78 518 b 171 318 78 379 117 344 z "},"=":{"ha":847,"x_min":0,"x_max":0,"o":"m 769 203 l 769 403 l 78 403 l 78 203 z m 769 569 l 769 769 l 78 769 l 78 569 z "},">":{"ha":847,"x_min":0,"x_max":0,"o":"m 676 318 b 769 450 732 344 769 379 b 676 582 769 518 732 554 l 78 874 l 78 649 l 503 450 l 78 251 l 78 26 z "},"?":{"ha":776,"x_min":0,"x_max":0,"o":"m 508 361 b 750 603 663 361 750 449 l 750 722 b 508 964 750 878 664 964 l 26 964 l 26 722 l 449 722 b 507 667 488 722 507 704 b 449 603 507 632 483 603 l 147 603 l 147 361 z m 428 60 b 247 240 428 157 344 240 b 67 60 147 240 67 157 b 247 -121 67 -39 149 -121 b 428 60 343 -121 428 -39 z m 307 60 b 247 0 307 26 281 0 b 188 60 214 0 188 26 b 247 121 188 93 214 121 b 307 60 281 121 307 93 z "},"@":{"ha":885,"x_min":0,"x_max":0,"o":"m 463 -228 l 463 -57 l 279 -57 b 225 -1 239 -57 225 -43 l 225 626 b 279 681 225 667 239 681 l 610 681 b 664 626 647 681 664 667 l 664 564 l 549 564 b 333 354 379 564 333 508 l 333 288 b 549 78 333 132 379 78 l 619 78 b 838 288 788 78 838 132 l 838 642 b 624 853 838 796 792 853 l 264 853 b 47 642 96 853 47 796 l 47 -17 b 264 -228 47 -171 96 -228 z m 664 297 b 610 240 664 258 647 240 l 560 240 b 508 297 522 240 508 258 l 508 342 b 560 399 508 383 522 399 l 664 399 z "},"A":{"ha":1028,"x_min":0,"x_max":0,"o":"m 1008 0 l 644 965 l 379 965 l 19 0 l 271 0 l 510 643 l 753 0 z m 629 0 l 511 325 l 393 0 z "},"B":{"ha":817,"x_min":0,"x_max":0,"o":"m 529 0 b 769 240 683 0 769 86 l 769 361 b 699 481 769 411 743 460 b 764 603 736 503 764 547 l 764 722 b 529 964 764 876 682 964 l 47 964 l 47 722 l 469 722 b 528 653 503 722 528 697 b 469 592 528 615 507 592 l 50 592 l 50 372 l 469 372 b 528 303 503 372 528 353 b 469 240 528 265 507 240 l 47 240 l 47 0 z "},"C":{"ha":790,"x_min":0,"x_max":0,"o":"m 769 0 l 769 240 l 371 240 b 288 288 294 240 288 247 l 288 638 b 371 722 288 707 303 722 l 769 722 l 769 964 l 288 964 b 47 722 135 964 47 876 l 47 240 b 288 0 47 86 133 0 z "},"D":{"ha":813,"x_min":0,"x_max":0,"o":"m 526 0 b 767 240 681 0 767 86 l 767 722 b 526 964 767 876 679 964 l 44 964 l 44 361 l 285 361 l 285 722 l 442 722 b 526 638 510 722 526 707 l 526 288 b 460 240 526 251 519 240 l 44 240 l 44 0 z "},"E":{"ha":817,"x_min":0,"x_max":0,"o":"m 769 0 l 769 240 l 347 240 b 289 303 308 240 289 265 b 347 372 289 353 314 372 l 767 372 l 767 592 l 347 592 b 289 653 308 592 289 615 b 347 722 289 697 314 722 l 769 722 l 769 964 l 288 964 b 53 722 135 964 53 876 l 53 603 b 118 481 53 547 81 503 b 47 361 74 460 47 411 l 47 240 b 288 0 47 86 133 0 z "},"F":{"ha":790,"x_min":0,"x_max":0,"o":"m 515 0 l 515 361 l 757 361 l 757 603 l 335 603 b 276 667 300 603 276 632 b 335 722 276 704 296 722 l 757 722 l 757 964 l 275 964 b 33 722 121 964 33 878 l 33 603 b 275 361 33 450 122 361 l 275 0 z "},"G":{"ha":817,"x_min":0,"x_max":0,"o":"m 769 0 l 769 603 l 529 603 l 529 240 l 371 240 b 286 288 293 240 286 249 l 286 638 b 371 722 288 707 303 722 l 765 722 l 765 964 l 288 964 b 47 722 135 964 47 876 l 47 240 b 288 0 47 86 131 0 z "},"H":{"ha":817,"x_min":0,"x_max":0,"o":"m 769 361 l 769 964 l 529 964 l 529 603 l 288 603 l 288 964 l 47 964 l 47 0 l 288 0 l 288 361 z m 769 0 l 769 240 l 529 240 l 529 0 z "},"I":{"ha":544,"x_min":0,"x_max":0,"o":"m 513 0 l 513 240 l 393 240 l 393 722 l 513 722 l 513 964 l 31 964 l 31 722 l 151 722 l 151 240 l 31 240 l 31 0 z "},"J":{"ha":696,"x_min":0,"x_max":0,"o":"m 408 0 b 649 240 563 0 649 86 l 649 964 l 167 964 l 167 722 l 408 722 l 408 288 b 325 240 408 247 400 240 l 47 240 l 47 0 z "},"K":{"ha":817,"x_min":0,"x_max":0,"o":"m 529 542 b 769 782 681 542 769 631 l 769 964 l 529 964 l 529 858 b 443 774 529 790 513 774 l 288 774 l 288 964 l 47 964 l 47 542 z m 769 0 l 769 181 b 529 421 769 333 681 421 l 47 421 l 47 0 l 288 0 l 288 189 l 443 189 b 529 106 513 189 529 172 l 529 0 z "},"L":{"ha":710,"x_min":0,"x_max":0,"o":"m 664 0 l 664 240 l 288 240 l 288 964 l 47 964 l 47 0 z "},"M":{"ha":1057,"x_min":0,"x_max":0,"o":"m 1011 0 l 1011 722 b 769 964 1011 876 922 964 l 288 964 b 47 722 136 964 47 876 l 47 0 l 288 0 l 288 644 b 361 722 288 707 304 722 l 408 722 l 408 0 l 649 0 l 649 722 l 700 722 b 769 644 757 722 769 704 l 769 0 z "},"N":{"ha":824,"x_min":0,"x_max":0,"o":"m 776 0 l 776 722 b 536 964 776 876 689 964 l 47 964 l 47 0 l 288 0 l 288 722 l 474 722 b 536 650 522 722 536 706 l 536 0 z "},"O":{"ha":1006,"x_min":0,"x_max":0,"o":"m 503 -14 b 985 482 772 -14 985 194 b 503 978 985 769 772 978 b 21 482 233 978 21 769 b 503 -14 21 194 233 -14 z m 503 226 b 260 482 371 226 260 318 b 503 738 260 646 371 738 b 747 482 635 738 747 646 b 503 226 747 318 635 226 z m 503 361 b 621 482 571 361 621 415 b 503 603 621 549 571 603 b 386 482 435 603 386 549 b 503 361 386 415 435 361 z "},"P":{"ha":796,"x_min":0,"x_max":0,"o":"m 288 0 l 288 276 b 408 256 326 263 367 256 b 769 617 607 256 769 406 b 408 978 769 828 603 978 b 47 617 211 978 47 828 l 47 0 z m 529 617 b 408 496 529 542 475 496 b 288 617 340 496 288 542 b 408 738 288 692 340 738 b 529 617 475 738 529 692 z "},"Q":{"ha":1006,"x_min":0,"x_max":0,"o":"m 624 -240 l 624 8 b 985 482 833 58 985 238 b 503 978 985 769 772 978 b 21 482 233 978 21 769 b 383 8 21 238 172 58 l 383 -240 z m 503 226 b 260 482 371 226 260 318 b 503 738 260 646 371 738 b 747 482 635 738 747 646 b 503 226 747 318 635 226 z m 503 361 b 621 482 571 361 621 415 b 503 603 621 549 571 603 b 386 482 435 603 386 549 b 503 361 386 415 435 361 z "},"R":{"ha":797,"x_min":0,"x_max":0,"o":"m 769 0 l 568 292 b 769 617 692 353 769 464 b 408 978 769 826 607 978 b 47 617 211 978 47 832 l 47 0 l 288 0 l 288 276 l 481 0 z m 529 617 b 408 496 529 542 475 496 b 288 617 340 496 288 542 b 408 738 288 692 340 738 b 529 617 475 738 529 692 z "},"S":{"ha":788,"x_min":0,"x_max":0,"o":"m 756 722 l 756 964 l 274 964 b 32 722 119 964 32 878 l 32 603 b 274 361 32 449 122 361 l 358 361 l 358 603 l 335 603 b 276 667 300 603 276 632 b 335 722 276 704 296 722 z m 514 0 b 756 240 669 0 756 86 l 756 361 b 514 603 756 514 668 603 l 431 603 l 431 361 l 456 361 b 513 297 489 361 513 332 b 456 240 513 260 493 240 l 32 240 l 32 0 z "},"T":{"ha":858,"x_min":0,"x_max":0,"o":"m 550 0 l 550 722 l 813 722 l 813 964 l 47 964 l 47 722 l 308 722 l 308 0 z "},"U":{"ha":817,"x_min":0,"x_max":0,"o":"m 529 0 b 769 240 682 0 769 88 l 769 964 l 529 964 l 529 325 b 444 240 529 257 513 240 l 372 240 b 288 325 303 240 288 257 l 288 964 l 47 964 l 47 240 b 288 0 47 88 136 0 z "},"V":{"ha":1028,"x_min":0,"x_max":0,"o":"m 522 639 l 639 964 l 403 964 z m 644 0 l 1008 964 l 763 964 l 519 322 l 281 964 l 19 964 l 379 0 z "},"W":{"ha":1057,"x_min":0,"x_max":0,"o":"m 769 0 b 1011 240 922 0 1011 88 l 1011 964 l 769 964 l 769 319 b 700 240 769 260 757 240 l 649 240 l 649 964 l 408 964 l 408 240 l 361 240 b 288 319 304 240 288 257 l 288 964 l 47 964 l 47 240 b 288 0 47 88 136 0 z "},"X":{"ha":817,"x_min":0,"x_max":0,"o":"m 529 542 b 769 782 681 542 769 631 l 769 964 l 529 964 b 476 783 529 786 525 790 b 333 782 469 782 422 782 b 288 867 296 782 288 789 l 288 964 l 47 964 l 47 782 b 288 542 47 628 133 542 z m 769 0 l 769 181 b 529 421 769 333 681 421 l 288 421 b 47 181 133 421 47 338 l 47 0 l 288 0 l 288 96 b 333 182 288 175 296 182 b 476 181 422 182 469 182 b 529 0 525 171 529 178 z "},"Y":{"ha":781,"x_min":0,"x_max":0,"o":"m 510 361 b 751 603 664 361 751 450 l 751 964 l 510 964 l 510 686 b 426 603 510 618 494 603 l 317 603 b 269 686 275 603 269 610 l 269 964 l 28 964 l 28 603 b 269 361 28 447 115 361 z m 510 0 l 510 240 l 269 240 l 269 0 z "},"Z":{"ha":792,"x_min":0,"x_max":0,"o":"m 757 0 l 757 240 l 347 240 l 757 722 l 757 964 l 33 964 l 33 722 l 443 722 l 33 240 l 33 0 z "},"[":{"ha":536,"x_min":0,"x_max":0,"o":"m 522 -311 l 522 -150 l 349 -150 l 349 1051 l 522 1051 l 522 1211 l 144 1211 l 144 -311 z "},"\\":{"ha":785,"x_min":0,"x_max":0,"o":"m 785 -143 l 203 1017 l 0 1017 l 581 -143 z "},"]":{"ha":536,"x_min":0,"x_max":0,"o":"m 522 -311 l 522 1211 l 144 1211 l 144 1051 l 318 1051 l 318 -150 l 144 -150 l 144 -311 z "},"^":{"ha":925,"x_min":0,"x_max":0,"o":"m 886 274 l 596 872 b 464 964 568 926 532 964 b 332 872 393 964 358 926 l 42 274 l 264 274 l 464 699 l 663 274 z "},"_":{"ha":844,"x_min":0,"x_max":0,"o":"m 846 -228 l 846 -25 l -3 -25 l -3 -228 z "},"`":{"ha":589,"x_min":0,"x_max":0,"o":"m 518 1065 l 363 1343 l 69 1343 l 289 1065 z "},"a":{"ha":1028,"x_min":0,"x_max":0,"o":"m 1008 0 l 644 965 l 379 965 l 19 0 l 271 0 l 510 643 l 753 0 z m 629 0 l 511 325 l 393 0 z "},"b":{"ha":817,"x_min":0,"x_max":0,"o":"m 529 0 b 769 240 683 0 769 86 l 769 361 b 699 481 769 411 743 460 b 764 603 736 503 764 547 l 764 722 b 529 964 764 876 682 964 l 47 964 l 47 722 l 469 722 b 528 653 503 722 528 697 b 469 592 528 615 507 592 l 50 592 l 50 372 l 469 372 b 528 303 503 372 528 353 b 469 240 528 265 507 240 l 47 240 l 47 0 z "},"c":{"ha":790,"x_min":0,"x_max":0,"o":"m 769 0 l 769 240 l 371 240 b 288 288 294 240 288 247 l 288 638 b 371 722 288 707 303 722 l 769 722 l 769 964 l 288 964 b 47 722 135 964 47 876 l 47 240 b 288 0 47 86 133 0 z "},"d":{"ha":813,"x_min":0,"x_max":0,"o":"m 526 0 b 767 240 681 0 767 86 l 767 722 b 526 964 767 876 679 964 l 44 964 l 44 361 l 285 361 l 285 722 l 442 722 b 526 638 510 722 526 707 l 526 288 b 460 240 526 251 519 240 l 44 240 l 44 0 z "},"e":{"ha":817,"x_min":0,"x_max":0,"o":"m 769 0 l 769 240 l 347 240 b 289 303 308 240 289 265 b 347 372 289 353 314 372 l 767 372 l 767 592 l 347 592 b 289 653 308 592 289 615 b 347 722 289 697 314 722 l 769 722 l 769 964 l 288 964 b 53 722 135 964 53 876 l 53 603 b 118 481 53 547 81 503 b 47 361 74 460 47 411 l 47 240 b 288 0 47 86 133 0 z "},"f":{"ha":790,"x_min":0,"x_max":0,"o":"m 515 0 l 515 361 l 757 361 l 757 603 l 335 603 b 276 667 300 603 276 632 b 335 722 276 704 296 722 l 757 722 l 757 964 l 275 964 b 33 722 121 964 33 878 l 33 603 b 275 361 33 450 122 361 l 275 0 z "},"g":{"ha":817,"x_min":0,"x_max":0,"o":"m 769 0 l 769 603 l 529 603 l 529 240 l 371 240 b 286 288 293 240 286 249 l 286 638 b 371 722 288 707 303 722 l 765 722 l 765 964 l 288 964 b 47 722 135 964 47 876 l 47 240 b 288 0 47 86 131 0 z "},"h":{"ha":817,"x_min":0,"x_max":0,"o":"m 769 361 l 769 964 l 529 964 l 529 603 l 288 603 l 288 964 l 47 964 l 47 0 l 288 0 l 288 361 z m 769 0 l 769 240 l 529 240 l 529 0 z "},"i":{"ha":544,"x_min":0,"x_max":0,"o":"m 513 0 l 513 240 l 393 240 l 393 722 l 513 722 l 513 964 l 31 964 l 31 722 l 151 722 l 151 240 l 31 240 l 31 0 z "},"j":{"ha":696,"x_min":0,"x_max":0,"o":"m 408 0 b 649 240 563 0 649 86 l 649 964 l 167 964 l 167 722 l 408 722 l 408 288 b 325 240 408 247 400 240 l 47 240 l 47 0 z "},"k":{"ha":817,"x_min":0,"x_max":0,"o":"m 529 542 b 769 782 681 542 769 631 l 769 964 l 529 964 l 529 858 b 443 774 529 790 513 774 l 288 774 l 288 964 l 47 964 l 47 542 z m 769 0 l 769 181 b 529 421 769 333 681 421 l 47 421 l 47 0 l 288 0 l 288 189 l 443 189 b 529 106 513 189 529 172 l 529 0 z "},"l":{"ha":710,"x_min":0,"x_max":0,"o":"m 664 0 l 664 240 l 288 240 l 288 964 l 47 964 l 47 0 z "},"m":{"ha":1057,"x_min":0,"x_max":0,"o":"m 1011 0 l 1011 722 b 769 964 1011 876 922 964 l 288 964 b 47 722 136 964 47 876 l 47 0 l 288 0 l 288 644 b 361 722 288 707 304 722 l 408 722 l 408 0 l 649 0 l 649 722 l 700 722 b 769 644 757 722 769 704 l 769 0 z "},"n":{"ha":824,"x_min":0,"x_max":0,"o":"m 776 0 l 776 722 b 536 964 776 876 689 964 l 47 964 l 47 0 l 288 0 l 288 722 l 474 722 b 536 650 522 722 536 706 l 536 0 z "},"o":{"ha":1006,"x_min":0,"x_max":0,"o":"m 503 -14 b 985 482 772 -14 985 194 b 503 978 985 769 772 978 b 21 482 233 978 21 769 b 503 -14 21 194 233 -14 z m 503 226 b 260 482 371 226 260 318 b 503 738 260 646 371 738 b 747 482 635 738 747 646 b 503 226 747 318 635 226 z m 503 361 b 621 482 571 361 621 415 b 503 603 621 549 571 603 b 386 482 435 603 386 549 b 503 361 386 415 435 361 z "},"p":{"ha":796,"x_min":0,"x_max":0,"o":"m 288 0 l 288 276 b 408 256 326 263 367 256 b 769 617 607 256 769 406 b 408 978 769 828 603 978 b 47 617 211 978 47 828 l 47 0 z m 529 617 b 408 496 529 542 475 496 b 288 617 340 496 288 542 b 408 738 288 692 340 738 b 529 617 475 738 529 692 z "},"q":{"ha":1006,"x_min":0,"x_max":0,"o":"m 624 -240 l 624 8 b 985 482 833 58 985 238 b 503 978 985 769 772 978 b 21 482 233 978 21 769 b 383 8 21 238 172 58 l 383 -240 z m 503 226 b 260 482 371 226 260 318 b 503 738 260 646 371 738 b 747 482 635 738 747 646 b 503 226 747 318 635 226 z m 503 361 b 621 482 571 361 621 415 b 503 603 621 549 571 603 b 386 482 435 603 386 549 b 503 361 386 415 435 361 z "},"r":{"ha":797,"x_min":0,"x_max":0,"o":"m 769 0 l 568 292 b 769 617 692 353 769 464 b 408 978 769 826 607 978 b 47 617 211 978 47 832 l 47 0 l 288 0 l 288 276 l 481 0 z m 529 617 b 408 496 529 542 475 496 b 288 617 340 496 288 542 b 408 738 288 692 340 738 b 529 617 475 738 529 692 z "},"s":{"ha":788,"x_min":0,"x_max":0,"o":"m 756 722 l 756 964 l 274 964 b 32 722 119 964 32 878 l 32 603 b 274 361 32 449 122 361 l 358 361 l 358 603 l 335 603 b 276 667 300 603 276 632 b 335 722 276 704 296 722 z m 514 0 b 756 240 669 0 756 86 l 756 361 b 514 603 756 514 668 603 l 431 603 l 431 361 l 456 361 b 513 297 489 361 513 332 b 456 240 513 260 493 240 l 32 240 l 32 0 z "},"t":{"ha":858,"x_min":0,"x_max":0,"o":"m 550 0 l 550 722 l 813 722 l 813 964 l 47 964 l 47 722 l 308 722 l 308 0 z "},"u":{"ha":817,"x_min":0,"x_max":0,"o":"m 529 0 b 769 240 682 0 769 88 l 769 964 l 529 964 l 529 325 b 444 240 529 257 513 240 l 372 240 b 288 325 303 240 288 257 l 288 964 l 47 964 l 47 240 b 288 0 47 88 136 0 z "},"v":{"ha":1028,"x_min":0,"x_max":0,"o":"m 522 639 l 639 964 l 403 964 z m 644 0 l 1008 964 l 763 964 l 519 322 l 281 964 l 19 964 l 379 0 z "},"w":{"ha":1057,"x_min":0,"x_max":0,"o":"m 769 0 b 1011 240 922 0 1011 88 l 1011 964 l 769 964 l 769 319 b 700 240 769 260 757 240 l 649 240 l 649 964 l 408 964 l 408 240 l 361 240 b 288 319 304 240 288 257 l 288 964 l 47 964 l 47 240 b 288 0 47 88 136 0 z "},"x":{"ha":817,"x_min":0,"x_max":0,"o":"m 529 542 b 769 782 681 542 769 631 l 769 964 l 529 964 b 476 783 529 786 525 790 b 333 782 469 782 422 782 b 288 867 296 782 288 789 l 288 964 l 47 964 l 47 782 b 288 542 47 628 133 542 z m 769 0 l 769 181 b 529 421 769 333 681 421 l 288 421 b 47 181 133 421 47 338 l 47 0 l 288 0 l 288 96 b 333 182 288 175 296 182 b 476 181 422 182 469 182 b 529 0 525 171 529 178 z "},"y":{"ha":781,"x_min":0,"x_max":0,"o":"m 510 361 b 751 603 664 361 751 450 l 751 964 l 510 964 l 510 686 b 426 603 510 618 494 603 l 317 603 b 269 686 275 603 269 610 l 269 964 l 28 964 l 28 603 b 269 361 28 447 115 361 z m 510 0 l 510 240 l 269 240 l 269 0 z "},"z":{"ha":792,"x_min":0,"x_max":0,"o":"m 757 0 l 757 240 l 347 240 l 757 722 l 757 964 l 33 964 l 33 722 l 443 722 l 33 240 l 33 0 z "},"{":{"ha":497,"x_min":0,"x_max":0,"o":"m 485 -311 l 485 -150 l 408 -150 b 372 -101 383 -150 372 -136 l 372 319 b 290 450 372 407 335 446 b 372 581 335 454 372 493 l 372 1001 b 408 1050 372 1036 383 1050 l 485 1050 l 485 1211 l 328 1211 b 167 1032 204 1211 167 1167 l 167 624 b 100 547 167 565 146 547 l 90 547 b 13 450 33 547 13 514 b 90 353 13 386 33 353 l 100 353 b 167 276 146 353 167 335 l 167 -132 b 328 -311 167 -267 204 -311 z "},"|":{"ha":428,"x_min":0,"x_max":0,"o":"m 317 -311 l 317 1211 l 111 1211 l 111 -311 z "},"}":{"ha":497,"x_min":0,"x_max":0,"o":"m 169 -311 b 331 -132 293 -311 331 -267 l 331 276 b 397 353 331 335 351 353 l 407 353 b 485 450 464 353 485 386 b 407 547 485 514 464 547 l 397 547 b 331 624 351 547 331 565 l 331 1032 b 169 1211 331 1167 293 1211 l 13 1211 l 13 1050 l 89 1050 b 125 1001 115 1050 125 1036 l 125 581 b 207 450 125 493 163 454 b 125 319 163 446 125 407 l 125 -101 b 89 -150 125 -136 115 -150 l 13 -150 l 13 -311 z "},"~":{"ha":847,"x_min":0,"x_max":0,"o":"m 769 415 l 769 629 l 581 568 b 565 564 574 565 569 564 b 549 567 560 564 554 565 l 294 640 b 268 647 283 644 275 647 b 232 639 258 647 247 644 l 78 588 l 78 372 l 268 436 b 285 440 275 439 281 440 b 300 438 289 440 294 439 l 554 361 b 581 357 565 358 574 357 b 615 365 592 357 603 360 z "}," ":{"ha":347,"x_min":0,"x_max":0,"o":""},"¡":{"ha":368,"x_min":0,"x_max":0,"o":"m 306 -142 l 306 461 l 65 461 l 65 -142 z m 185 581 b 364 763 283 581 364 665 b 185 943 364 860 282 943 b 3 763 88 943 3 860 b 185 581 3 665 86 581 z m 185 701 b 124 763 150 701 124 728 b 185 822 124 794 150 822 b 244 763 217 822 244 794 b 185 701 244 728 217 701 z "},"¢":{"ha":578,"x_min":0,"x_max":0,"o":"m 536 0 l 536 383 l 372 383 b 288 429 294 383 288 389 l 288 496 b 372 581 288 565 303 581 l 536 581 l 536 964 l 343 964 l 343 822 l 288 822 b 47 581 136 822 47 735 l 47 383 b 288 142 47 228 133 142 l 343 142 l 343 0 z "},"£":{"ha":814,"x_min":0,"x_max":0,"o":"m 611 372 l 611 592 l 288 592 l 288 667 b 346 722 288 704 307 722 l 767 722 l 767 964 l 285 964 b 44 722 131 964 44 878 l 44 372 z m 767 0 l 767 240 l 44 240 l 44 0 z "},"¤":{"ha":1040,"x_min":0,"x_max":0,"o":"m 1000 107 l 793 308 l 793 661 l 1000 861 l 893 967 l 693 764 l 343 764 l 142 967 l 39 861 l 242 661 l 242 308 l 39 107 l 142 0 l 343 208 l 693 208 l 893 0 z m 640 360 l 396 360 l 396 608 l 640 608 z "},"¥":{"ha":860,"x_min":0,"x_max":0,"o":"m 744 88 l 744 288 l 542 288 l 542 349 l 744 349 l 744 550 l 571 550 l 846 964 l 593 964 l 433 710 l 279 964 l 13 964 l 289 550 l 117 550 l 117 349 l 315 349 l 315 288 l 117 288 l 117 88 l 315 88 l 315 0 l 542 0 l 542 88 z "},"¦":{"ha":428,"x_min":0,"x_max":0,"o":"m 317 596 l 317 1211 l 111 1211 l 111 596 z m 317 -311 l 317 304 l 111 304 l 111 -311 z "},"§":{"ha":826,"x_min":0,"x_max":0,"o":"m 450 -311 b 778 -28 703 -311 778 -236 l 778 340 b 450 622 778 549 703 622 l 315 622 l 315 658 b 396 735 315 714 336 735 l 503 735 l 503 964 l 372 964 b 47 682 121 964 47 889 l 47 315 b 372 32 47 108 121 32 l 508 32 l 508 -7 b 429 -81 508 -61 488 -81 l 47 -81 l 47 -311 z m 508 264 l 396 264 b 315 338 336 264 315 282 l 315 393 l 429 393 b 508 318 488 393 508 372 z "},"¨":{"ha":881,"x_min":0,"x_max":0,"o":"m 826 1174 b 644 1356 826 1271 743 1356 b 465 1174 546 1356 465 1271 b 644 993 465 1075 547 993 b 826 1174 742 993 826 1075 z m 706 1174 b 644 1114 706 1140 679 1114 b 585 1174 613 1114 585 1140 b 644 1235 585 1207 613 1235 b 706 1174 679 1235 706 1207 z m 415 1174 b 233 1356 415 1271 332 1356 b 54 1174 135 1356 54 1271 b 233 993 54 1075 136 993 b 415 1174 331 993 415 1075 z m 294 1174 b 233 1114 294 1140 268 1114 b 175 1174 201 1114 175 1140 b 233 1235 175 1207 201 1235 b 294 1174 268 1235 294 1207 z "},"©":{"ha":925,"x_min":0,"x_max":0,"o":"m 496 0 b 879 332 792 0 879 88 l 879 632 b 496 964 879 876 792 964 l 429 964 b 47 632 133 964 47 876 l 47 332 b 429 0 47 88 133 0 z m 736 332 b 496 144 736 185 692 144 l 429 144 b 190 332 233 144 190 185 l 190 632 b 429 821 190 779 233 821 l 496 821 b 736 632 692 821 736 779 z m 619 269 l 619 381 l 433 381 b 394 404 399 381 394 385 l 394 567 b 433 607 394 600 403 607 l 619 607 l 619 719 l 394 719 b 282 607 324 719 282 679 l 282 381 b 394 269 282 308 322 269 z "},"ª":{"ha":608,"x_min":0,"x_max":0,"o":"m 578 426 l 375 963 l 221 963 l 22 426 l 178 426 l 299 756 l 422 426 z m 374 426 l 300 635 l 222 426 z "},"«":{"ha":819,"x_min":0,"x_max":0,"o":"m 368 96 l 368 369 l 239 461 l 368 551 l 368 829 l 97 629 b 22 467 53 597 22 553 b 97 299 22 376 53 333 z m 778 96 l 778 369 l 649 461 l 778 551 l 778 829 l 507 629 b 432 467 463 597 432 553 b 507 299 432 376 463 333 z "},"¬":{"ha":831,"x_min":0,"x_max":0,"o":"m 753 0 l 753 589 l 50 589 l 50 385 l 543 385 l 543 0 z "},"®":{"ha":925,"x_min":0,"x_max":0,"o":"m 496 0 b 879 332 792 0 879 88 l 879 632 b 496 964 879 876 792 964 l 429 964 b 47 632 133 964 47 876 l 47 332 b 429 0 47 88 133 0 z m 736 332 b 496 144 736 185 692 144 l 429 144 b 190 332 233 144 190 185 l 190 632 b 429 821 190 779 233 821 l 496 821 b 736 632 692 821 736 779 z m 631 269 l 538 406 b 631 557 596 433 631 486 b 463 725 631 654 556 725 b 293 557 371 725 293 657 l 293 269 l 407 269 l 407 399 l 496 269 z m 463 500 b 407 557 431 500 407 522 b 463 614 407 593 431 614 b 518 557 493 614 518 593 b 463 500 518 522 493 500 z "},"¯":{"ha":836,"x_min":0,"x_max":0,"o":"m 767 1093 l 767 1289 l 69 1289 l 69 1093 z "},"°":{"ha":671,"x_min":0,"x_max":0,"o":"m 392 443 b 631 650 576 443 631 497 l 631 757 b 392 964 631 908 576 964 l 281 964 b 42 757 93 964 42 908 l 42 650 b 281 443 42 497 93 443 z m 433 667 b 375 613 433 626 418 613 l 296 613 b 236 667 253 613 236 626 l 236 740 b 296 794 236 781 253 794 l 375 794 b 433 740 418 794 433 781 z "},"±":{"ha":847,"x_min":0,"x_max":0,"o":"m 525 156 l 525 401 l 769 401 l 769 603 l 525 603 l 525 846 l 325 846 l 325 603 l 78 603 l 78 401 l 325 401 l 325 156 z m 769 -93 l 769 108 l 78 108 l 78 -93 z "},"²":{"ha":492,"x_min":0,"x_max":0,"o":"m 307 624 b 446 761 396 624 446 674 l 446 825 b 307 964 446 914 397 964 l 42 964 l 42 817 l 276 817 b 297 794 289 817 297 810 b 276 769 297 781 288 769 l 42 769 l 42 624 z m 446 429 l 446 576 l 42 576 l 42 429 z "},"³":{"ha":492,"x_min":0,"x_max":0,"o":"m 307 429 b 446 568 397 429 446 479 l 446 632 b 414 696 446 656 435 683 b 442 761 429 711 442 736 l 442 825 b 307 964 442 914 397 964 l 42 964 l 42 817 l 276 817 b 299 789 289 817 299 807 b 276 763 299 774 290 763 l 43 763 l 43 631 l 276 631 b 299 600 289 631 299 622 b 276 576 299 585 290 576 l 42 576 l 42 429 z "},"´":{"ha":589,"x_min":0,"x_max":0,"o":"m 299 1065 l 518 1343 l 226 1343 l 69 1065 z "},"¶":{"ha":1176,"x_min":0,"x_max":0,"o":"m 1124 -240 l 1124 964 l 368 964 b 39 679 114 964 39 889 l 39 589 b 368 304 39 379 114 304 l 440 304 l 440 -240 l 707 -240 l 707 739 l 858 739 l 858 -240 z m 440 531 l 386 531 b 303 606 325 531 303 551 l 303 665 b 386 739 303 719 325 739 l 440 739 z "},"·":{"ha":443,"x_min":0,"x_max":0,"o":"m 403 486 b 221 667 403 583 319 667 b 42 486 122 667 42 583 b 221 306 42 388 124 306 b 403 486 318 306 403 388 z m 282 486 b 221 426 282 453 256 426 b 161 486 189 426 161 453 b 221 547 161 519 189 547 b 282 486 256 547 282 519 z "},"¸":{"ha":426,"x_min":0,"x_max":0,"o":"m 300 -311 l 300 -157 l 275 -157 b 249 -101 253 -157 249 -154 l 249 -96 b 158 -19 249 -56 208 -19 b 71 -96 110 -19 71 -56 l 71 -157 b 249 -311 71 -257 135 -311 z "},"¹":{"ha":282,"x_min":0,"x_max":0,"o":"m 239 429 l 239 825 b 103 964 239 914 190 964 l 29 964 l 29 817 l 71 817 b 94 793 88 817 94 813 l 94 429 z "},"º":{"ha":597,"x_min":0,"x_max":0,"o":"m 294 425 b 561 700 443 425 561 542 b 294 976 561 860 443 976 b 26 700 146 976 26 860 b 294 425 26 542 146 425 z m 294 572 b 172 700 228 572 172 618 b 294 829 172 783 228 829 b 418 700 361 829 418 783 b 294 572 418 618 361 572 z m 294 628 b 365 700 338 628 365 661 b 294 774 365 742 338 774 b 224 700 254 774 224 742 b 294 628 224 661 254 628 z "},"»":{"ha":819,"x_min":0,"x_max":0,"o":"m 293 299 b 368 467 339 333 368 376 b 293 629 368 553 339 597 l 22 829 l 22 551 l 151 461 l 22 369 l 22 96 z m 703 299 b 778 467 749 333 778 376 b 703 629 778 553 749 597 l 432 829 l 432 551 l 561 461 l 432 369 l 432 96 z "},"¼":{"ha":1101,"x_min":0,"x_max":0,"o":"m 282 429 l 282 825 b 146 964 282 914 233 964 l 72 964 l 72 817 l 114 817 b 138 793 131 817 138 813 l 138 429 z m 231 0 l 921 964 l 739 964 l 47 0 z m 1054 0 l 1054 535 l 910 535 l 910 0 z m 888 131 l 888 275 l 822 275 l 822 535 l 676 535 l 676 131 z "},"½":{"ha":1126,"x_min":0,"x_max":0,"o":"m 290 429 l 290 825 b 154 964 290 914 242 964 l 81 964 l 81 817 l 122 817 b 146 793 139 817 146 813 l 146 429 z m 231 0 l 921 964 l 739 964 l 47 0 z m 940 194 b 1079 332 1029 194 1079 244 l 1079 396 b 940 535 1079 485 1031 535 l 675 535 l 675 388 l 910 388 b 931 365 922 388 931 381 b 910 340 931 351 921 340 l 675 340 l 675 194 z m 1079 0 l 1079 147 l 675 147 l 675 0 z "},"¾":{"ha":1221,"x_min":0,"x_max":0,"o":"m 313 429 b 451 568 403 429 451 479 l 451 632 b 419 696 451 656 440 683 b 447 761 435 711 447 736 l 447 825 b 313 964 447 914 403 964 l 47 964 l 47 817 l 282 817 b 304 789 294 817 304 807 b 282 763 304 774 296 763 l 49 763 l 49 631 l 282 631 b 304 600 294 631 304 622 b 282 576 304 585 296 576 l 47 576 l 47 429 z m 349 0 l 1039 964 l 857 964 l 165 0 z m 1174 0 l 1174 535 l 1029 535 l 1029 0 z m 1007 131 l 1007 275 l 942 275 l 942 535 l 796 535 l 796 131 z "},"¿":{"ha":776,"x_min":0,"x_max":0,"o":"m 746 -142 l 746 99 l 324 99 b 265 156 285 99 265 118 b 324 219 265 190 289 219 l 625 219 l 625 461 l 264 461 b 22 219 111 461 22 372 l 22 99 b 264 -142 22 -56 110 -142 z m 526 581 b 706 763 625 581 706 665 b 526 943 706 860 624 943 b 344 763 429 943 344 860 b 526 581 344 665 428 581 z m 526 701 b 465 763 492 701 465 728 b 526 822 465 794 492 822 b 585 763 558 822 585 794 b 526 701 585 728 558 701 z "},"À":{"ha":1028,"x_min":0,"x_max":0,"o":"m 1008 0 l 644 965 l 379 965 l 19 0 l 271 0 l 510 643 l 753 0 z m 629 0 l 511 325 l 393 0 z m 667 1065 l 511 1343 l 218 1343 l 438 1065 z "},"Á":{"ha":1028,"x_min":0,"x_max":0,"o":"m 1008 0 l 644 965 l 379 965 l 19 0 l 271 0 l 510 643 l 753 0 z m 629 0 l 511 325 l 393 0 z m 589 1065 l 808 1343 l 517 1343 l 360 1065 z "},"Â":{"ha":1028,"x_min":0,"x_max":0,"o":"m 1008 0 l 644 965 l 379 965 l 19 0 l 271 0 l 510 643 l 753 0 z m 629 0 l 511 325 l 393 0 z m 871 1017 l 676 1281 b 515 1356 643 1324 600 1356 b 353 1281 429 1356 385 1325 l 154 1017 l 422 1017 l 511 1143 l 599 1017 z "},"Ã":{"ha":1028,"x_min":0,"x_max":0,"o":"m 1008 0 l 644 965 l 379 965 l 19 0 l 271 0 l 510 643 l 753 0 z m 629 0 l 511 325 l 393 0 z m 861 1093 l 861 1289 l 164 1289 l 164 1093 z "},"Ä":{"ha":1028,"x_min":0,"x_max":0,"o":"m 1008 0 l 644 965 l 379 965 l 19 0 l 271 0 l 510 643 l 753 0 z m 629 0 l 511 325 l 393 0 z m 900 1174 b 718 1356 900 1271 817 1356 b 539 1174 619 1356 539 1271 b 718 993 539 1075 621 993 b 900 1174 815 993 900 1075 z m 779 1174 b 718 1114 779 1140 753 1114 b 658 1174 686 1114 658 1140 b 718 1235 658 1207 686 1235 b 779 1174 753 1235 779 1207 z m 489 1174 b 307 1356 489 1271 406 1356 b 128 1174 208 1356 128 1271 b 307 993 128 1075 210 993 b 489 1174 404 993 489 1075 z m 368 1174 b 307 1114 368 1140 342 1114 b 249 1174 275 1114 249 1140 b 307 1235 249 1207 275 1235 b 368 1174 342 1235 368 1207 z "},"Å":{"ha":1028,"x_min":0,"x_max":0,"o":"m 1008 0 l 644 965 l 379 965 l 19 0 l 271 0 l 510 643 l 753 0 z m 629 0 l 511 325 l 393 0 z m 579 1008 b 740 1144 704 1008 740 1043 l 740 1218 b 579 1356 740 1318 704 1356 l 447 1356 b 286 1218 324 1356 286 1318 l 286 1144 b 447 1008 286 1043 324 1008 z m 607 1157 b 569 1119 607 1131 597 1119 l 456 1119 b 418 1157 428 1119 418 1131 l 418 1206 b 456 1242 418 1233 428 1242 l 569 1242 b 607 1206 597 1242 607 1233 z "},"Æ":{"ha":1061,"x_min":0,"x_max":0,"o":"m 1015 0 l 1015 240 l 649 240 l 649 372 l 1013 372 l 1013 592 l 649 592 l 649 722 l 1015 722 l 1015 964 l 288 964 b 47 722 135 964 47 876 l 47 0 l 288 0 l 288 240 l 408 240 l 408 0 z m 408 482 l 288 482 l 288 663 b 347 732 288 708 307 732 b 408 663 386 732 408 701 z "},"Ç":{"ha":790,"x_min":0,"x_max":0,"o":"m 769 0 l 769 240 l 371 240 b 288 288 294 240 288 247 l 288 638 b 371 722 288 707 303 722 l 769 722 l 769 964 l 288 964 b 47 722 135 964 47 876 l 47 240 b 288 0 47 86 133 0 z m 588 -311 l 588 -157 l 563 -157 b 536 -101 540 -157 536 -154 l 536 -96 b 446 -19 536 -56 496 -19 b 358 -96 397 -19 358 -56 l 358 -157 b 536 -311 358 -257 422 -311 z "},"È":{"ha":817,"x_min":0,"x_max":0,"o":"m 769 0 l 769 240 l 347 240 b 289 303 308 240 289 265 b 347 372 289 353 314 372 l 767 372 l 767 592 l 347 592 b 289 653 308 592 289 615 b 347 722 289 697 314 722 l 769 722 l 769 964 l 288 964 b 53 722 135 964 53 876 l 53 603 b 118 481 53 547 81 503 b 47 361 74 460 47 411 l 47 240 b 288 0 47 86 133 0 z m 603 1065 l 447 1343 l 154 1343 l 374 1065 z "},"É":{"ha":817,"x_min":0,"x_max":0,"o":"m 769 0 l 769 240 l 347 240 b 289 303 308 240 289 265 b 347 372 289 353 314 372 l 767 372 l 767 592 l 347 592 b 289 653 308 592 289 615 b 347 722 289 697 314 722 l 769 722 l 769 964 l 288 964 b 53 722 135 964 53 876 l 53 603 b 118 481 53 547 81 503 b 47 361 74 460 47 411 l 47 240 b 288 0 47 86 133 0 z m 539 1065 l 758 1343 l 467 1343 l 310 1065 z "},"Ê":{"ha":817,"x_min":0,"x_max":0,"o":"m 769 0 l 769 240 l 347 240 b 289 303 308 240 289 265 b 347 372 289 353 314 372 l 767 372 l 767 592 l 347 592 b 289 653 308 592 289 615 b 347 722 289 697 314 722 l 769 722 l 769 964 l 288 964 b 53 722 135 964 53 876 l 53 603 b 118 481 53 547 81 503 b 47 361 74 460 47 411 l 47 240 b 288 0 47 86 133 0 z m 808 1017 l 614 1281 b 453 1356 581 1324 538 1356 b 290 1281 367 1356 322 1325 l 92 1017 l 360 1017 l 449 1143 l 536 1017 z "},"Ë":{"ha":817,"x_min":0,"x_max":0,"o":"m 769 0 l 769 240 l 347 240 b 289 303 308 240 289 265 b 347 372 289 353 314 372 l 767 372 l 767 592 l 347 592 b 289 653 308 592 289 615 b 347 722 289 697 314 722 l 769 722 l 769 964 l 288 964 b 53 722 135 964 53 876 l 53 603 b 118 481 53 547 81 503 b 47 361 74 460 47 411 l 47 240 b 288 0 47 86 133 0 z m 838 1174 b 656 1356 838 1271 754 1356 b 476 1174 557 1356 476 1271 b 656 993 476 1075 558 993 b 838 1174 753 993 838 1075 z m 717 1174 b 656 1114 717 1140 690 1114 b 596 1174 624 1114 596 1140 b 656 1235 596 1207 624 1235 b 717 1174 690 1235 717 1207 z m 426 1174 b 244 1356 426 1271 343 1356 b 65 1174 146 1356 65 1271 b 244 993 65 1075 147 993 b 426 1174 342 993 426 1075 z m 306 1174 b 244 1114 306 1140 279 1114 b 186 1174 213 1114 186 1140 b 244 1235 186 1207 213 1235 b 306 1174 279 1235 306 1207 z "},"Ì":{"ha":544,"x_min":0,"x_max":0,"o":"m 513 0 l 513 240 l 393 240 l 393 722 l 513 722 l 513 964 l 31 964 l 31 722 l 151 722 l 151 240 l 31 240 l 31 0 z m 426 1065 l 271 1343 l -22 1343 l 197 1065 z "},"Í":{"ha":544,"x_min":0,"x_max":0,"o":"m 513 0 l 513 240 l 393 240 l 393 722 l 513 722 l 513 964 l 31 964 l 31 722 l 151 722 l 151 240 l 31 240 l 31 0 z m 347 1065 l 567 1343 l 275 1343 l 118 1065 z "},"Î":{"ha":607,"x_min":0,"x_max":0,"o":"m 543 0 l 543 240 l 424 240 l 424 722 l 543 722 l 543 964 l 61 964 l 61 722 l 182 722 l 182 240 l 61 240 l 61 0 z m 661 1017 l 467 1281 b 306 1356 433 1324 390 1356 b 143 1281 219 1356 175 1325 l -56 1017 l 213 1017 l 301 1143 l 389 1017 z "},"Ï":{"ha":665,"x_min":0,"x_max":0,"o":"m 572 0 l 572 240 l 453 240 l 453 722 l 572 722 l 572 964 l 90 964 l 90 722 l 211 722 l 211 240 l 90 240 l 90 0 z m 718 1174 b 536 1356 718 1271 635 1356 b 357 1174 438 1356 357 1271 b 536 993 357 1075 439 993 b 718 1174 633 993 718 1075 z m 597 1174 b 536 1114 597 1140 571 1114 b 476 1174 504 1114 476 1140 b 536 1235 476 1207 504 1235 b 597 1174 571 1235 597 1207 z m 307 1174 b 125 1356 307 1271 224 1356 b -54 1174 26 1356 -54 1271 b 125 993 -54 1075 28 993 b 307 1174 222 993 307 1075 z m 186 1174 b 125 1114 186 1140 160 1114 b 67 1174 93 1114 67 1140 b 125 1235 67 1207 93 1235 b 186 1174 160 1235 186 1207 z "},"Ð":{"ha":875,"x_min":0,"x_max":0,"o":"m 575 0 b 817 240 731 0 817 86 l 817 722 b 575 964 817 876 726 964 l 93 964 l 93 596 l 42 596 l 42 356 l 385 356 l 385 596 l 335 596 l 335 722 l 490 722 b 575 638 560 722 575 707 l 575 288 b 490 240 575 247 567 240 l 93 240 l 93 0 z "},"Ñ":{"ha":824,"x_min":0,"x_max":0,"o":"m 776 0 l 776 722 b 536 964 776 876 689 964 l 47 964 l 47 0 l 288 0 l 288 722 l 474 722 b 536 650 522 722 536 706 l 536 0 z m 747 1093 l 747 1289 l 50 1289 l 50 1093 z "},"Ò":{"ha":1006,"x_min":0,"x_max":0,"o":"m 503 -14 b 985 482 772 -14 985 194 b 503 978 985 769 772 978 b 21 482 233 978 21 769 b 503 -14 21 194 233 -14 z m 503 226 b 260 482 371 226 260 318 b 503 738 260 646 371 738 b 747 482 635 738 747 646 b 503 226 747 318 635 226 z m 503 361 b 621 482 571 361 621 415 b 503 603 621 549 571 603 b 386 482 435 603 386 549 b 503 361 386 415 435 361 z m 656 1065 l 500 1343 l 207 1343 l 426 1065 z "},"Ó":{"ha":1006,"x_min":0,"x_max":0,"o":"m 503 -14 b 985 482 772 -14 985 194 b 503 978 985 769 772 978 b 21 482 233 978 21 769 b 503 -14 21 194 233 -14 z m 503 226 b 260 482 371 226 260 318 b 503 738 260 646 371 738 b 747 482 635 738 747 646 b 503 226 747 318 635 226 z m 503 361 b 621 482 571 361 621 415 b 503 603 621 549 571 603 b 386 482 435 603 386 549 b 503 361 386 415 435 361 z m 578 1065 l 797 1343 l 506 1343 l 349 1065 z "},"Ô":{"ha":1006,"x_min":0,"x_max":0,"o":"m 503 -14 b 985 482 772 -14 985 194 b 503 978 985 769 772 978 b 21 482 233 978 21 769 b 503 -14 21 194 233 -14 z m 503 226 b 260 482 371 226 260 318 b 503 738 260 646 371 738 b 747 482 635 738 747 646 b 503 226 747 318 635 226 z m 503 361 b 621 482 571 361 621 415 b 503 603 621 549 571 603 b 386 482 435 603 386 549 b 503 361 386 415 435 361 z m 861 1017 l 667 1281 b 506 1356 633 1324 590 1356 b 343 1281 419 1356 375 1325 l 144 1017 l 413 1017 l 501 1143 l 589 1017 z "},"Õ":{"ha":1006,"x_min":0,"x_max":0,"o":"m 503 -14 b 985 482 772 -14 985 194 b 503 978 985 769 772 978 b 21 482 233 978 21 769 b 503 -14 21 194 233 -14 z m 503 226 b 260 482 371 226 260 318 b 503 738 260 646 371 738 b 747 482 635 738 747 646 b 503 226 747 318 635 226 z m 503 361 b 621 482 571 361 621 415 b 503 603 621 549 571 603 b 386 482 435 603 386 549 b 503 361 386 415 435 361 z m 851 1093 l 851 1289 l 154 1289 l 154 1093 z "},"Ö":{"ha":1006,"x_min":0,"x_max":0,"o":"m 503 -14 b 985 482 772 -14 985 194 b 503 978 985 769 772 978 b 21 482 233 978 21 769 b 503 -14 21 194 233 -14 z m 503 226 b 260 482 371 226 260 318 b 503 738 260 646 371 738 b 747 482 635 738 747 646 b 503 226 747 318 635 226 z m 503 361 b 621 482 571 361 621 415 b 503 603 621 549 571 603 b 386 482 435 603 386 549 b 503 361 386 415 435 361 z m 889 1174 b 707 1356 889 1271 806 1356 b 528 1174 608 1356 528 1271 b 707 993 528 1075 610 993 b 889 1174 804 993 889 1075 z m 768 1174 b 707 1114 768 1140 742 1114 b 647 1174 675 1114 647 1140 b 707 1235 647 1207 675 1235 b 768 1174 742 1235 768 1207 z m 478 1174 b 296 1356 478 1271 394 1356 b 117 1174 197 1356 117 1271 b 296 993 117 1075 199 993 b 478 1174 393 993 478 1075 z m 357 1174 b 296 1114 357 1140 331 1114 b 238 1174 264 1114 238 1140 b 296 1235 238 1207 264 1235 b 357 1174 331 1235 357 1207 z "},"×":{"ha":847,"x_min":0,"x_max":0,"o":"m 739 311 l 565 486 l 739 658 l 597 801 l 422 628 l 251 801 l 110 658 l 282 486 l 108 311 l 250 169 l 424 344 l 597 171 z "},"Ø":{"ha":1006,"x_min":0,"x_max":0,"o":"m 503 -14 b 985 482 772 -14 985 194 b 503 978 985 769 772 978 b 21 482 233 978 21 769 b 503 -14 21 194 233 -14 z m 285 357 b 260 482 269 393 260 433 b 503 738 260 646 371 738 b 631 703 550 738 594 725 l 528 600 b 503 603 519 601 511 603 b 386 482 435 603 386 549 b 388 460 386 474 386 467 z m 481 363 b 503 361 488 361 494 361 b 621 482 571 361 621 415 b 619 501 621 488 619 494 l 721 604 b 747 482 738 568 747 529 b 503 226 747 318 635 226 b 376 260 457 226 414 238 z "},"Ù":{"ha":817,"x_min":0,"x_max":0,"o":"m 529 0 b 769 240 682 0 769 88 l 769 964 l 529 964 l 529 325 b 444 240 529 257 513 240 l 372 240 b 288 325 303 240 288 257 l 288 964 l 47 964 l 47 240 b 288 0 47 88 136 0 z m 561 1065 l 406 1343 l 113 1343 l 332 1065 z "},"Ú":{"ha":817,"x_min":0,"x_max":0,"o":"m 529 0 b 769 240 682 0 769 88 l 769 964 l 529 964 l 529 325 b 444 240 529 257 513 240 l 372 240 b 288 325 303 240 288 257 l 288 964 l 47 964 l 47 240 b 288 0 47 88 136 0 z m 483 1065 l 703 1343 l 411 1343 l 254 1065 z "},"Û":{"ha":817,"x_min":0,"x_max":0,"o":"m 529 0 b 769 240 682 0 769 88 l 769 964 l 529 964 l 529 325 b 444 240 529 257 513 240 l 372 240 b 288 325 303 240 288 257 l 288 964 l 47 964 l 47 240 b 288 0 47 88 136 0 z m 767 1017 l 572 1281 b 411 1356 539 1324 496 1356 b 249 1281 325 1356 281 1325 l 50 1017 l 318 1017 l 407 1143 l 494 1017 z "},"Ü":{"ha":817,"x_min":0,"x_max":0,"o":"m 529 0 b 769 240 682 0 769 88 l 769 964 l 529 964 l 529 325 b 444 240 529 257 513 240 l 372 240 b 288 325 303 240 288 257 l 288 964 l 47 964 l 47 240 b 288 0 47 88 136 0 z m 796 1174 b 614 1356 796 1271 713 1356 b 435 1174 515 1356 435 1271 b 614 993 435 1075 517 993 b 796 1174 711 993 796 1075 z m 675 1174 b 614 1114 675 1140 649 1114 b 554 1174 582 1114 554 1140 b 614 1235 554 1207 582 1235 b 675 1174 649 1235 675 1207 z m 385 1174 b 203 1356 385 1271 301 1356 b 24 1174 104 1356 24 1271 b 203 993 24 1075 106 993 b 385 1174 300 993 385 1075 z m 264 1174 b 203 1114 264 1140 238 1114 b 144 1174 171 1114 144 1140 b 203 1235 144 1207 171 1235 b 264 1174 238 1235 264 1207 z "},"Ý":{"ha":781,"x_min":0,"x_max":0,"o":"m 510 361 b 751 603 664 361 751 450 l 751 964 l 510 964 l 510 686 b 426 603 510 618 494 603 l 317 603 b 269 686 275 603 269 610 l 269 964 l 28 964 l 28 603 b 269 361 28 447 115 361 z m 510 0 l 510 240 l 269 240 l 269 0 z m 465 1065 l 685 1343 l 393 1343 l 236 1065 z "},"Þ":{"ha":796,"x_min":0,"x_max":0,"o":"m 288 0 l 288 107 b 408 85 326 92 367 85 b 769 446 607 85 769 235 b 408 808 769 657 603 808 b 289 788 365 808 326 801 l 289 964 l 47 964 l 47 0 z m 529 446 b 408 326 529 371 475 326 b 288 446 340 326 288 371 b 408 567 288 522 340 567 b 529 446 475 567 529 522 z "},"ß":{"ha":894,"x_min":0,"x_max":0,"o":"m 614 0 b 854 240 768 0 854 86 l 854 361 b 671 599 854 494 788 578 l 671 722 b 429 964 671 876 582 964 l 288 964 b 47 722 136 964 47 876 l 47 0 l 288 0 l 288 639 b 357 722 288 701 300 719 b 429 639 415 719 429 703 l 429 361 l 554 361 b 613 297 588 361 613 332 b 554 240 613 260 593 240 l 428 240 l 428 0 z "},"à":{"ha":1028,"x_min":0,"x_max":0,"o":"m 1008 0 l 644 965 l 379 965 l 19 0 l 271 0 l 510 643 l 753 0 z m 629 0 l 511 325 l 393 0 z m 667 1065 l 511 1343 l 218 1343 l 438 1065 z "},"á":{"ha":1028,"x_min":0,"x_max":0,"o":"m 1008 0 l 644 965 l 379 965 l 19 0 l 271 0 l 510 643 l 753 0 z m 629 0 l 511 325 l 393 0 z m 589 1065 l 808 1343 l 517 1343 l 360 1065 z "},"â":{"ha":1028,"x_min":0,"x_max":0,"o":"m 1008 0 l 644 965 l 379 965 l 19 0 l 271 0 l 510 643 l 753 0 z m 629 0 l 511 325 l 393 0 z m 871 1017 l 676 1281 b 515 1356 643 1324 600 1356 b 353 1281 429 1356 385 1325 l 154 1017 l 422 1017 l 511 1143 l 599 1017 z "},"ã":{"ha":1028,"x_min":0,"x_max":0,"o":"m 1008 0 l 644 965 l 379 965 l 19 0 l 271 0 l 510 643 l 753 0 z m 629 0 l 511 325 l 393 0 z m 861 1093 l 861 1289 l 164 1289 l 164 1093 z "},"ä":{"ha":1028,"x_min":0,"x_max":0,"o":"m 1008 0 l 644 965 l 379 965 l 19 0 l 271 0 l 510 643 l 753 0 z m 629 0 l 511 325 l 393 0 z m 900 1174 b 718 1356 900 1271 817 1356 b 539 1174 619 1356 539 1271 b 718 993 539 1075 621 993 b 900 1174 815 993 900 1075 z m 779 1174 b 718 1114 779 1140 753 1114 b 658 1174 686 1114 658 1140 b 718 1235 658 1207 686 1235 b 779 1174 753 1235 779 1207 z m 489 1174 b 307 1356 489 1271 406 1356 b 128 1174 208 1356 128 1271 b 307 993 128 1075 210 993 b 489 1174 404 993 489 1075 z m 368 1174 b 307 1114 368 1140 342 1114 b 249 1174 275 1114 249 1140 b 307 1235 249 1207 275 1235 b 368 1174 342 1235 368 1207 z "},"å":{"ha":1028,"x_min":0,"x_max":0,"o":"m 1008 0 l 644 965 l 379 965 l 19 0 l 271 0 l 510 643 l 753 0 z m 629 0 l 511 325 l 393 0 z m 579 1008 b 740 1144 704 1008 740 1043 l 740 1218 b 579 1356 740 1318 704 1356 l 447 1356 b 286 1218 324 1356 286 1318 l 286 1144 b 447 1008 286 1043 324 1008 z m 607 1157 b 569 1119 607 1131 597 1119 l 456 1119 b 418 1157 428 1119 418 1131 l 418 1206 b 456 1242 418 1233 428 1242 l 569 1242 b 607 1206 597 1242 607 1233 z "},"æ":{"ha":1061,"x_min":0,"x_max":0,"o":"m 1015 0 l 1015 240 l 649 240 l 649 372 l 1013 372 l 1013 592 l 649 592 l 649 722 l 1015 722 l 1015 964 l 288 964 b 47 722 135 964 47 876 l 47 0 l 288 0 l 288 240 l 408 240 l 408 0 z m 408 482 l 288 482 l 288 663 b 347 732 288 708 307 732 b 408 663 386 732 408 701 z "},"ç":{"ha":790,"x_min":0,"x_max":0,"o":"m 769 0 l 769 240 l 371 240 b 288 288 294 240 288 247 l 288 638 b 371 722 288 707 303 722 l 769 722 l 769 964 l 288 964 b 47 722 135 964 47 876 l 47 240 b 288 0 47 86 133 0 z m 588 -311 l 588 -157 l 563 -157 b 536 -101 540 -157 536 -154 l 536 -96 b 446 -19 536 -56 496 -19 b 358 -96 397 -19 358 -56 l 358 -157 b 536 -311 358 -257 422 -311 z "},"è":{"ha":817,"x_min":0,"x_max":0,"o":"m 769 0 l 769 240 l 347 240 b 289 303 308 240 289 265 b 347 372 289 353 314 372 l 767 372 l 767 592 l 347 592 b 289 653 308 592 289 615 b 347 722 289 697 314 722 l 769 722 l 769 964 l 288 964 b 53 722 135 964 53 876 l 53 603 b 118 481 53 547 81 503 b 47 361 74 460 47 411 l 47 240 b 288 0 47 86 133 0 z m 603 1065 l 447 1343 l 154 1343 l 374 1065 z "},"é":{"ha":817,"x_min":0,"x_max":0,"o":"m 769 0 l 769 240 l 347 240 b 289 303 308 240 289 265 b 347 372 289 353 314 372 l 767 372 l 767 592 l 347 592 b 289 653 308 592 289 615 b 347 722 289 697 314 722 l 769 722 l 769 964 l 288 964 b 53 722 135 964 53 876 l 53 603 b 118 481 53 547 81 503 b 47 361 74 460 47 411 l 47 240 b 288 0 47 86 133 0 z m 539 1065 l 758 1343 l 467 1343 l 310 1065 z "},"ê":{"ha":817,"x_min":0,"x_max":0,"o":"m 769 0 l 769 240 l 347 240 b 289 303 308 240 289 265 b 347 372 289 353 314 372 l 767 372 l 767 592 l 347 592 b 289 653 308 592 289 615 b 347 722 289 697 314 722 l 769 722 l 769 964 l 288 964 b 53 722 135 964 53 876 l 53 603 b 118 481 53 547 81 503 b 47 361 74 460 47 411 l 47 240 b 288 0 47 86 133 0 z m 808 1017 l 614 1281 b 453 1356 581 1324 538 1356 b 290 1281 367 1356 322 1325 l 92 1017 l 360 1017 l 449 1143 l 536 1017 z "},"ë":{"ha":817,"x_min":0,"x_max":0,"o":"m 769 0 l 769 240 l 347 240 b 289 303 308 240 289 265 b 347 372 289 353 314 372 l 767 372 l 767 592 l 347 592 b 289 653 308 592 289 615 b 347 722 289 697 314 722 l 769 722 l 769 964 l 288 964 b 53 722 135 964 53 876 l 53 603 b 118 481 53 547 81 503 b 47 361 74 460 47 411 l 47 240 b 288 0 47 86 133 0 z m 838 1174 b 656 1356 838 1271 754 1356 b 476 1174 557 1356 476 1271 b 656 993 476 1075 558 993 b 838 1174 753 993 838 1075 z m 717 1174 b 656 1114 717 1140 690 1114 b 596 1174 624 1114 596 1140 b 656 1235 596 1207 624 1235 b 717 1174 690 1235 717 1207 z m 426 1174 b 244 1356 426 1271 343 1356 b 65 1174 146 1356 65 1271 b 244 993 65 1075 147 993 b 426 1174 342 993 426 1075 z m 306 1174 b 244 1114 306 1140 279 1114 b 186 1174 213 1114 186 1140 b 244 1235 186 1207 213 1235 b 306 1174 279 1235 306 1207 z "},"ì":{"ha":544,"x_min":0,"x_max":0,"o":"m 513 0 l 513 240 l 393 240 l 393 722 l 513 722 l 513 964 l 31 964 l 31 722 l 151 722 l 151 240 l 31 240 l 31 0 z m 426 1065 l 271 1343 l -22 1343 l 197 1065 z "},"í":{"ha":544,"x_min":0,"x_max":0,"o":"m 513 0 l 513 240 l 393 240 l 393 722 l 513 722 l 513 964 l 31 964 l 31 722 l 151 722 l 151 240 l 31 240 l 31 0 z m 347 1065 l 567 1343 l 275 1343 l 118 1065 z "},"î":{"ha":607,"x_min":0,"x_max":0,"o":"m 543 0 l 543 240 l 424 240 l 424 722 l 543 722 l 543 964 l 61 964 l 61 722 l 182 722 l 182 240 l 61 240 l 61 0 z m 661 1017 l 467 1281 b 306 1356 433 1324 390 1356 b 143 1281 219 1356 175 1325 l -56 1017 l 213 1017 l 301 1143 l 389 1017 z "},"ï":{"ha":665,"x_min":0,"x_max":0,"o":"m 572 0 l 572 240 l 453 240 l 453 722 l 572 722 l 572 964 l 90 964 l 90 722 l 211 722 l 211 240 l 90 240 l 90 0 z m 718 1174 b 536 1356 718 1271 635 1356 b 357 1174 438 1356 357 1271 b 536 993 357 1075 439 993 b 718 1174 633 993 718 1075 z m 597 1174 b 536 1114 597 1140 571 1114 b 476 1174 504 1114 476 1140 b 536 1235 476 1207 504 1235 b 597 1174 571 1235 597 1207 z m 307 1174 b 125 1356 307 1271 224 1356 b -54 1174 26 1356 -54 1271 b 125 993 -54 1075 28 993 b 307 1174 222 993 307 1075 z m 186 1174 b 125 1114 186 1140 160 1114 b 67 1174 93 1114 67 1140 b 125 1235 67 1207 93 1235 b 186 1174 160 1235 186 1207 z "},"ð":{"ha":875,"x_min":0,"x_max":0,"o":"m 575 0 b 817 240 731 0 817 86 l 817 722 b 575 964 817 876 726 964 l 93 964 l 93 596 l 42 596 l 42 356 l 385 356 l 385 596 l 335 596 l 335 722 l 490 722 b 575 638 560 722 575 707 l 575 288 b 490 240 575 247 567 240 l 93 240 l 93 0 z "},"ñ":{"ha":824,"x_min":0,"x_max":0,"o":"m 776 0 l 776 722 b 536 964 776 876 689 964 l 47 964 l 47 0 l 288 0 l 288 722 l 474 722 b 536 650 522 722 536 706 l 536 0 z m 747 1093 l 747 1289 l 50 1289 l 50 1093 z "},"ò":{"ha":1006,"x_min":0,"x_max":0,"o":"m 503 -14 b 985 482 772 -14 985 194 b 503 978 985 769 772 978 b 21 482 233 978 21 769 b 503 -14 21 194 233 -14 z m 503 226 b 260 482 371 226 260 318 b 503 738 260 646 371 738 b 747 482 635 738 747 646 b 503 226 747 318 635 226 z m 503 361 b 621 482 571 361 621 415 b 503 603 621 549 571 603 b 386 482 435 603 386 549 b 503 361 386 415 435 361 z m 656 1065 l 500 1343 l 207 1343 l 426 1065 z "},"ó":{"ha":1006,"x_min":0,"x_max":0,"o":"m 503 -14 b 985 482 772 -14 985 194 b 503 978 985 769 772 978 b 21 482 233 978 21 769 b 503 -14 21 194 233 -14 z m 503 226 b 260 482 371 226 260 318 b 503 738 260 646 371 738 b 747 482 635 738 747 646 b 503 226 747 318 635 226 z m 503 361 b 621 482 571 361 621 415 b 503 603 621 549 571 603 b 386 482 435 603 386 549 b 503 361 386 415 435 361 z m 578 1065 l 797 1343 l 506 1343 l 349 1065 z "},"ô":{"ha":1006,"x_min":0,"x_max":0,"o":"m 503 -14 b 985 482 772 -14 985 194 b 503 978 985 769 772 978 b 21 482 233 978 21 769 b 503 -14 21 194 233 -14 z m 503 226 b 260 482 371 226 260 318 b 503 738 260 646 371 738 b 747 482 635 738 747 646 b 503 226 747 318 635 226 z m 503 361 b 621 482 571 361 621 415 b 503 603 621 549 571 603 b 386 482 435 603 386 549 b 503 361 386 415 435 361 z m 861 1017 l 667 1281 b 506 1356 633 1324 590 1356 b 343 1281 419 1356 375 1325 l 144 1017 l 413 1017 l 501 1143 l 589 1017 z "},"õ":{"ha":1006,"x_min":0,"x_max":0,"o":"m 503 -14 b 985 482 772 -14 985 194 b 503 978 985 769 772 978 b 21 482 233 978 21 769 b 503 -14 21 194 233 -14 z m 503 226 b 260 482 371 226 260 318 b 503 738 260 646 371 738 b 747 482 635 738 747 646 b 503 226 747 318 635 226 z m 503 361 b 621 482 571 361 621 415 b 503 603 621 549 571 603 b 386 482 435 603 386 549 b 503 361 386 415 435 361 z m 851 1093 l 851 1289 l 154 1289 l 154 1093 z "},"ö":{"ha":1006,"x_min":0,"x_max":0,"o":"m 503 -14 b 985 482 772 -14 985 194 b 503 978 985 769 772 978 b 21 482 233 978 21 769 b 503 -14 21 194 233 -14 z m 503 226 b 260 482 371 226 260 318 b 503 738 260 646 371 738 b 747 482 635 738 747 646 b 503 226 747 318 635 226 z m 503 361 b 621 482 571 361 621 415 b 503 603 621 549 571 603 b 386 482 435 603 386 549 b 503 361 386 415 435 361 z m 889 1174 b 707 1356 889 1271 806 1356 b 528 1174 608 1356 528 1271 b 707 993 528 1075 610 993 b 889 1174 804 993 889 1075 z m 768 1174 b 707 1114 768 1140 742 1114 b 647 1174 675 1114 647 1140 b 707 1235 647 1207 675 1235 b 768 1174 742 1235 768 1207 z m 478 1174 b 296 1356 478 1271 394 1356 b 117 1174 197 1356 117 1271 b 296 993 117 1075 199 993 b 478 1174 393 993 478 1075 z m 357 1174 b 296 1114 357 1140 331 1114 b 238 1174 264 1114 238 1140 b 296 1235 238 1207 264 1235 b 357 1174 331 1235 357 1207 z "},"÷":{"ha":847,"x_min":0,"x_max":0,"o":"m 769 386 l 769 586 l 78 586 l 78 386 z m 604 799 b 422 979 604 896 521 979 b 243 799 324 979 243 896 b 422 618 243 700 325 618 b 604 799 519 618 604 700 z m 483 799 b 422 739 483 765 457 739 b 363 799 390 739 363 765 b 422 860 363 832 390 860 b 483 799 457 860 483 832 z m 604 167 b 422 347 604 264 521 347 b 243 167 324 347 243 264 b 422 -14 243 68 325 -14 b 604 167 519 -14 604 68 z m 483 167 b 422 107 483 133 457 107 b 363 167 390 107 363 133 b 422 228 363 200 390 228 b 483 167 457 228 483 200 z "},"ø":{"ha":1006,"x_min":0,"x_max":0,"o":"m 503 -14 b 985 482 772 -14 985 194 b 503 978 985 769 772 978 b 21 482 233 978 21 769 b 503 -14 21 194 233 -14 z m 285 357 b 260 482 269 393 260 433 b 503 738 260 646 371 738 b 631 703 550 738 594 725 l 528 600 b 503 603 519 601 511 603 b 386 482 435 603 386 549 b 388 460 386 474 386 467 z m 481 363 b 503 361 488 361 494 361 b 621 482 571 361 621 415 b 619 501 621 488 619 494 l 721 604 b 747 482 738 568 747 529 b 503 226 747 318 635 226 b 376 260 457 226 414 238 z "},"ù":{"ha":817,"x_min":0,"x_max":0,"o":"m 529 0 b 769 240 682 0 769 88 l 769 964 l 529 964 l 529 325 b 444 240 529 257 513 240 l 372 240 b 288 325 303 240 288 257 l 288 964 l 47 964 l 47 240 b 288 0 47 88 136 0 z m 561 1065 l 406 1343 l 113 1343 l 332 1065 z "},"ú":{"ha":817,"x_min":0,"x_max":0,"o":"m 529 0 b 769 240 682 0 769 88 l 769 964 l 529 964 l 529 325 b 444 240 529 257 513 240 l 372 240 b 288 325 303 240 288 257 l 288 964 l 47 964 l 47 240 b 288 0 47 88 136 0 z m 483 1065 l 703 1343 l 411 1343 l 254 1065 z "},"û":{"ha":817,"x_min":0,"x_max":0,"o":"m 529 0 b 769 240 682 0 769 88 l 769 964 l 529 964 l 529 325 b 444 240 529 257 513 240 l 372 240 b 288 325 303 240 288 257 l 288 964 l 47 964 l 47 240 b 288 0 47 88 136 0 z m 767 1017 l 572 1281 b 411 1356 539 1324 496 1356 b 249 1281 325 1356 281 1325 l 50 1017 l 318 1017 l 407 1143 l 494 1017 z "},"ü":{"ha":817,"x_min":0,"x_max":0,"o":"m 529 0 b 769 240 682 0 769 88 l 769 964 l 529 964 l 529 325 b 444 240 529 257 513 240 l 372 240 b 288 325 303 240 288 257 l 288 964 l 47 964 l 47 240 b 288 0 47 88 136 0 z m 796 1174 b 614 1356 796 1271 713 1356 b 435 1174 515 1356 435 1271 b 614 993 435 1075 517 993 b 796 1174 711 993 796 1075 z m 675 1174 b 614 1114 675 1140 649 1114 b 554 1174 582 1114 554 1140 b 614 1235 554 1207 582 1235 b 675 1174 649 1235 675 1207 z m 385 1174 b 203 1356 385 1271 301 1356 b 24 1174 104 1356 24 1271 b 203 993 24 1075 106 993 b 385 1174 300 993 385 1075 z m 264 1174 b 203 1114 264 1140 238 1114 b 144 1174 171 1114 144 1140 b 203 1235 144 1207 171 1235 b 264 1174 238 1235 264 1207 z "},"ý":{"ha":781,"x_min":0,"x_max":0,"o":"m 510 361 b 751 603 664 361 751 450 l 751 964 l 510 964 l 510 686 b 426 603 510 618 494 603 l 317 603 b 269 686 275 603 269 610 l 269 964 l 28 964 l 28 603 b 269 361 28 447 115 361 z m 510 0 l 510 240 l 269 240 l 269 0 z m 465 1065 l 685 1343 l 393 1343 l 236 1065 z "},"þ":{"ha":796,"x_min":0,"x_max":0,"o":"m 288 0 l 288 107 b 408 85 326 92 367 85 b 769 446 607 85 769 235 b 408 808 769 657 603 808 b 289 788 365 808 326 801 l 289 964 l 47 964 l 47 0 z m 529 446 b 408 326 529 371 475 326 b 288 446 340 326 288 371 b 408 567 288 522 340 567 b 529 446 475 567 529 522 z "},"ÿ":{"ha":781,"x_min":0,"x_max":0,"o":"m 510 361 b 751 603 664 361 751 450 l 751 964 l 510 964 l 510 686 b 426 603 510 618 494 603 l 317 603 b 269 686 275 603 269 610 l 269 964 l 28 964 l 28 603 b 269 361 28 447 115 361 z m 510 0 l 510 240 l 269 240 l 269 0 z m 776 1174 b 594 1356 776 1271 693 1356 b 415 1174 496 1356 415 1271 b 594 993 415 1075 497 993 b 776 1174 692 993 776 1075 z m 656 1174 b 594 1114 656 1140 629 1114 b 535 1174 563 1114 535 1140 b 594 1235 535 1207 563 1235 b 656 1174 629 1235 656 1207 z m 365 1174 b 183 1356 365 1271 282 1356 b 4 1174 85 1356 4 1271 b 183 993 4 1075 86 993 b 365 1174 281 993 365 1075 z m 244 1174 b 183 1114 244 1140 218 1114 b 125 1174 151 1114 125 1140 b 183 1235 125 1207 151 1235 b 244 1174 218 1235 244 1207 z "},"Ā":{"ha":1028,"x_min":0,"x_max":0,"o":"m 1008 0 l 644 965 l 379 965 l 19 0 l 271 0 l 510 643 l 753 0 z m 629 0 l 511 325 l 393 0 z m 861 1093 l 861 1289 l 164 1289 l 164 1093 z "},"ā":{"ha":1028,"x_min":0,"x_max":0,"o":"m 1008 0 l 644 965 l 379 965 l 19 0 l 271 0 l 510 643 l 753 0 z m 629 0 l 511 325 l 393 0 z m 861 1093 l 861 1289 l 164 1289 l 164 1093 z "},"Ă":{"ha":1028,"x_min":0,"x_max":0,"o":"m 1008 0 l 644 965 l 379 965 l 19 0 l 271 0 l 510 643 l 753 0 z m 629 0 l 511 325 l 393 0 z m 569 1083 b 811 1290 757 1083 811 1136 l 811 1356 l 613 1356 l 613 1307 b 554 1253 613 1267 600 1253 l 475 1253 b 415 1307 431 1253 415 1267 l 415 1356 l 217 1356 l 217 1290 b 458 1083 217 1136 272 1083 z "},"ă":{"ha":1028,"x_min":0,"x_max":0,"o":"m 1008 0 l 644 965 l 379 965 l 19 0 l 271 0 l 510 643 l 753 0 z m 629 0 l 511 325 l 393 0 z m 569 1083 b 811 1290 757 1083 811 1136 l 811 1356 l 613 1356 l 613 1307 b 554 1253 613 1267 600 1253 l 475 1253 b 415 1307 431 1253 415 1267 l 415 1356 l 217 1356 l 217 1290 b 458 1083 217 1136 272 1083 z "},"Ą":{"ha":1028,"x_min":0,"x_max":0,"o":"m 1008 -311 l 1008 -93 l 886 -93 b 863 -68 871 -93 863 -85 l 863 -58 b 1008 0 863 -42 885 -14 l 644 965 l 379 965 l 19 0 l 271 0 l 510 643 l 756 -6 b 626 -150 671 -24 626 -79 l 626 -186 b 750 -311 626 -264 664 -311 z m 629 0 l 511 325 l 393 0 z "},"ą":{"ha":1028,"x_min":0,"x_max":0,"o":"m 1008 -311 l 1008 -93 l 886 -93 b 863 -68 871 -93 863 -85 l 863 -58 b 1008 0 863 -42 885 -14 l 644 965 l 379 965 l 19 0 l 271 0 l 510 643 l 756 -6 b 626 -150 671 -24 626 -79 l 626 -186 b 750 -311 626 -264 664 -311 z m 629 0 l 511 325 l 393 0 z "},"Ć":{"ha":790,"x_min":0,"x_max":0,"o":"m 769 0 l 769 240 l 371 240 b 288 288 294 240 288 247 l 288 638 b 371 722 288 707 303 722 l 769 722 l 769 964 l 288 964 b 47 722 135 964 47 876 l 47 240 b 288 0 47 86 133 0 z m 526 1065 l 746 1343 l 454 1343 l 297 1065 z "},"ć":{"ha":790,"x_min":0,"x_max":0,"o":"m 769 0 l 769 240 l 371 240 b 288 288 294 240 288 247 l 288 638 b 371 722 288 707 303 722 l 769 722 l 769 964 l 288 964 b 47 722 135 964 47 876 l 47 240 b 288 0 47 86 133 0 z m 526 1065 l 746 1343 l 454 1343 l 297 1065 z "},"Ċ":{"ha":790,"x_min":0,"x_max":0,"o":"m 769 0 l 769 240 l 371 240 b 288 288 294 240 288 247 l 288 638 b 371 722 288 707 303 722 l 769 722 l 769 964 l 288 964 b 47 722 135 964 47 876 l 47 240 b 288 0 47 86 133 0 z m 632 1174 b 450 1356 632 1271 549 1356 b 271 1174 351 1356 271 1271 b 450 993 271 1075 353 993 b 632 1174 547 993 632 1075 z m 511 1174 b 450 1114 511 1140 485 1114 b 392 1174 418 1114 392 1140 b 450 1235 392 1207 418 1235 b 511 1174 485 1235 511 1207 z "},"ċ":{"ha":790,"x_min":0,"x_max":0,"o":"m 769 0 l 769 240 l 371 240 b 288 288 294 240 288 247 l 288 638 b 371 722 288 707 303 722 l 769 722 l 769 964 l 288 964 b 47 722 135 964 47 876 l 47 240 b 288 0 47 86 133 0 z m 632 1174 b 450 1356 632 1271 549 1356 b 271 1174 351 1356 271 1271 b 450 993 271 1075 353 993 b 632 1174 547 993 632 1075 z m 511 1174 b 450 1114 511 1140 485 1114 b 392 1174 418 1114 392 1140 b 450 1235 392 1207 418 1235 b 511 1174 485 1235 511 1207 z "},"Č":{"ha":790,"x_min":0,"x_max":0,"o":"m 769 0 l 769 240 l 371 240 b 288 288 294 240 288 247 l 288 638 b 371 722 288 707 303 722 l 769 722 l 769 964 l 288 964 b 47 722 135 964 47 876 l 47 240 b 288 0 47 86 133 0 z m 810 1356 l 542 1356 l 454 1228 l 367 1356 l 93 1356 l 290 1090 b 450 1017 322 1046 364 1017 b 611 1090 536 1017 578 1046 z "},"č":{"ha":790,"x_min":0,"x_max":0,"o":"m 769 0 l 769 240 l 371 240 b 288 288 294 240 288 247 l 288 638 b 371 722 288 707 303 722 l 769 722 l 769 964 l 288 964 b 47 722 135 964 47 876 l 47 240 b 288 0 47 86 133 0 z m 810 1356 l 542 1356 l 454 1228 l 367 1356 l 93 1356 l 290 1090 b 450 1017 322 1046 364 1017 b 611 1090 536 1017 578 1046 z "},"Ď":{"ha":813,"x_min":0,"x_max":0,"o":"m 526 0 b 767 240 681 0 767 86 l 767 722 b 526 964 767 876 679 964 l 44 964 l 44 361 l 285 361 l 285 722 l 442 722 b 526 638 510 722 526 707 l 526 288 b 460 240 526 251 519 240 l 44 240 l 44 0 z m 736 1356 l 468 1356 l 381 1228 l 293 1356 l 19 1356 l 217 1090 b 376 1017 249 1046 290 1017 b 538 1090 463 1017 504 1046 z "},"ď":{"ha":813,"x_min":0,"x_max":0,"o":"m 526 0 b 767 240 681 0 767 86 l 767 722 b 526 964 767 876 679 964 l 44 964 l 44 361 l 285 361 l 285 722 l 442 722 b 526 638 510 722 526 707 l 526 288 b 460 240 526 251 519 240 l 44 240 l 44 0 z m 736 1356 l 468 1356 l 381 1228 l 293 1356 l 19 1356 l 217 1090 b 376 1017 249 1046 290 1017 b 538 1090 463 1017 504 1046 z "},"Đ":{"ha":875,"x_min":0,"x_max":0,"o":"m 575 0 b 817 240 731 0 817 86 l 817 722 b 575 964 817 876 726 964 l 93 964 l 93 596 l 42 596 l 42 356 l 385 356 l 385 596 l 335 596 l 335 722 l 490 722 b 575 638 560 722 575 707 l 575 288 b 490 240 575 247 567 240 l 93 240 l 93 0 z "},"đ":{"ha":875,"x_min":0,"x_max":0,"o":"m 575 0 b 817 240 731 0 817 86 l 817 722 b 575 964 817 876 726 964 l 93 964 l 93 596 l 42 596 l 42 356 l 385 356 l 385 596 l 335 596 l 335 722 l 490 722 b 575 638 560 722 575 707 l 575 288 b 490 240 575 247 567 240 l 93 240 l 93 0 z "},"Ē":{"ha":817,"x_min":0,"x_max":0,"o":"m 769 0 l 769 240 l 347 240 b 289 303 308 240 289 265 b 347 372 289 353 314 372 l 767 372 l 767 592 l 347 592 b 289 653 308 592 289 615 b 347 722 289 697 314 722 l 769 722 l 769 964 l 288 964 b 53 722 135 964 53 876 l 53 603 b 118 481 53 547 81 503 b 47 361 74 460 47 411 l 47 240 b 288 0 47 86 133 0 z m 774 1093 l 774 1289 l 76 1289 l 76 1093 z "},"ē":{"ha":817,"x_min":0,"x_max":0,"o":"m 769 0 l 769 240 l 347 240 b 289 303 308 240 289 265 b 347 372 289 353 314 372 l 767 372 l 767 592 l 347 592 b 289 653 308 592 289 615 b 347 722 289 697 314 722 l 769 722 l 769 964 l 288 964 b 53 722 135 964 53 876 l 53 603 b 118 481 53 547 81 503 b 47 361 74 460 47 411 l 47 240 b 288 0 47 86 133 0 z m 774 1093 l 774 1289 l 76 1289 l 76 1093 z "},"Ĕ":{"ha":817,"x_min":0,"x_max":0,"o":"m 769 0 l 769 240 l 347 240 b 289 303 308 240 289 265 b 347 372 289 353 314 372 l 767 372 l 767 592 l 347 592 b 289 653 308 592 289 615 b 347 722 289 697 314 722 l 769 722 l 769 964 l 288 964 b 53 722 135 964 53 876 l 53 603 b 118 481 53 547 81 503 b 47 361 74 460 47 411 l 47 240 b 288 0 47 86 133 0 z m 506 1083 b 747 1290 693 1083 747 1136 l 747 1356 l 549 1356 l 549 1307 b 490 1253 549 1267 536 1253 l 411 1253 b 351 1307 367 1253 351 1267 l 351 1356 l 153 1356 l 153 1290 b 394 1083 153 1136 208 1083 z "},"ĕ":{"ha":817,"x_min":0,"x_max":0,"o":"m 769 0 l 769 240 l 347 240 b 289 303 308 240 289 265 b 347 372 289 353 314 372 l 767 372 l 767 592 l 347 592 b 289 653 308 592 289 615 b 347 722 289 697 314 722 l 769 722 l 769 964 l 288 964 b 53 722 135 964 53 876 l 53 603 b 118 481 53 547 81 503 b 47 361 74 460 47 411 l 47 240 b 288 0 47 86 133 0 z m 506 1083 b 747 1290 693 1083 747 1136 l 747 1356 l 549 1356 l 549 1307 b 490 1253 549 1267 536 1253 l 411 1253 b 351 1307 367 1253 351 1267 l 351 1356 l 153 1356 l 153 1290 b 394 1083 153 1136 208 1083 z "},"Ė":{"ha":817,"x_min":0,"x_max":0,"o":"m 769 0 l 769 240 l 347 240 b 289 303 308 240 289 265 b 347 372 289 353 314 372 l 767 372 l 767 592 l 347 592 b 289 653 308 592 289 615 b 347 722 289 697 314 722 l 769 722 l 769 964 l 288 964 b 53 722 135 964 53 876 l 53 603 b 118 481 53 547 81 503 b 47 361 74 460 47 411 l 47 240 b 288 0 47 86 133 0 z m 631 1174 b 449 1356 631 1271 547 1356 b 269 1174 350 1356 269 1271 b 449 993 269 1075 351 993 b 631 1174 546 993 631 1075 z m 510 1174 b 449 1114 510 1140 483 1114 b 390 1174 417 1114 390 1140 b 449 1235 390 1207 417 1235 b 510 1174 483 1235 510 1207 z "},"ė":{"ha":817,"x_min":0,"x_max":0,"o":"m 769 0 l 769 240 l 347 240 b 289 303 308 240 289 265 b 347 372 289 353 314 372 l 767 372 l 767 592 l 347 592 b 289 653 308 592 289 615 b 347 722 289 697 314 722 l 769 722 l 769 964 l 288 964 b 53 722 135 964 53 876 l 53 603 b 118 481 53 547 81 503 b 47 361 74 460 47 411 l 47 240 b 288 0 47 86 133 0 z m 631 1174 b 449 1356 631 1271 547 1356 b 269 1174 350 1356 269 1271 b 449 993 269 1075 351 993 b 631 1174 546 993 631 1075 z m 510 1174 b 449 1114 510 1140 483 1114 b 390 1174 417 1114 390 1140 b 449 1235 390 1207 417 1235 b 510 1174 483 1235 510 1207 z "},"Ę":{"ha":817,"x_min":0,"x_max":0,"o":"m 769 -311 l 769 -93 l 647 -93 b 625 -68 632 -93 625 -85 l 625 -58 b 710 0 625 -42 643 -22 l 769 0 l 769 240 l 347 240 b 289 303 308 240 289 265 b 347 372 289 353 314 372 l 767 372 l 767 592 l 347 592 b 289 653 308 592 289 615 b 347 722 289 697 314 722 l 769 722 l 769 964 l 288 964 b 53 722 135 964 53 876 l 53 603 b 118 481 53 547 81 503 b 47 361 74 460 47 411 l 47 240 b 288 0 47 86 133 0 l 554 0 b 389 -150 446 -10 389 -69 l 389 -186 b 511 -311 389 -264 425 -311 z "},"ę":{"ha":817,"x_min":0,"x_max":0,"o":"m 769 -311 l 769 -93 l 647 -93 b 625 -68 632 -93 625 -85 l 625 -58 b 710 0 625 -42 643 -22 l 769 0 l 769 240 l 347 240 b 289 303 308 240 289 265 b 347 372 289 353 314 372 l 767 372 l 767 592 l 347 592 b 289 653 308 592 289 615 b 347 722 289 697 314 722 l 769 722 l 769 964 l 288 964 b 53 722 135 964 53 876 l 53 603 b 118 481 53 547 81 503 b 47 361 74 460 47 411 l 47 240 b 288 0 47 86 133 0 l 554 0 b 389 -150 446 -10 389 -69 l 389 -186 b 511 -311 389 -264 425 -311 z "},"Ě":{"ha":817,"x_min":0,"x_max":0,"o":"m 769 0 l 769 240 l 347 240 b 289 303 308 240 289 265 b 347 372 289 353 314 372 l 767 372 l 767 592 l 347 592 b 289 653 308 592 289 615 b 347 722 289 697 314 722 l 769 722 l 769 964 l 288 964 b 53 722 135 964 53 876 l 53 603 b 118 481 53 547 81 503 b 47 361 74 460 47 411 l 47 240 b 288 0 47 86 133 0 z m 808 1356 l 540 1356 l 453 1228 l 365 1356 l 92 1356 l 289 1090 b 449 1017 321 1046 363 1017 b 610 1090 535 1017 576 1046 z "},"ě":{"ha":817,"x_min":0,"x_max":0,"o":"m 769 0 l 769 240 l 347 240 b 289 303 308 240 289 265 b 347 372 289 353 314 372 l 767 372 l 767 592 l 347 592 b 289 653 308 592 289 615 b 347 722 289 697 314 722 l 769 722 l 769 964 l 288 964 b 53 722 135 964 53 876 l 53 603 b 118 481 53 547 81 503 b 47 361 74 460 47 411 l 47 240 b 288 0 47 86 133 0 z m 808 1356 l 540 1356 l 453 1228 l 365 1356 l 92 1356 l 289 1090 b 449 1017 321 1046 363 1017 b 610 1090 535 1017 576 1046 z "},"Ğ":{"ha":817,"x_min":0,"x_max":0,"o":"m 769 0 l 769 603 l 529 603 l 529 240 l 371 240 b 286 288 293 240 286 249 l 286 638 b 371 722 288 707 303 722 l 765 722 l 765 964 l 288 964 b 47 722 135 964 47 876 l 47 240 b 288 0 47 86 131 0 z m 492 1083 b 733 1290 679 1083 733 1136 l 733 1356 l 535 1356 l 535 1307 b 476 1253 535 1267 522 1253 l 397 1253 b 338 1307 353 1253 338 1267 l 338 1356 l 139 1356 l 139 1290 b 381 1083 139 1136 194 1083 z "},"ğ":{"ha":817,"x_min":0,"x_max":0,"o":"m 769 0 l 769 603 l 529 603 l 529 240 l 371 240 b 286 288 293 240 286 249 l 286 638 b 371 722 288 707 303 722 l 765 722 l 765 964 l 288 964 b 47 722 135 964 47 876 l 47 240 b 288 0 47 86 131 0 z m 492 1083 b 733 1290 679 1083 733 1136 l 733 1356 l 535 1356 l 535 1307 b 476 1253 535 1267 522 1253 l 397 1253 b 338 1307 353 1253 338 1267 l 338 1356 l 139 1356 l 139 1290 b 381 1083 139 1136 194 1083 z "},"Ġ":{"ha":817,"x_min":0,"x_max":0,"o":"m 769 0 l 769 603 l 529 603 l 529 240 l 371 240 b 286 288 293 240 286 249 l 286 638 b 371 722 288 707 303 722 l 765 722 l 765 964 l 288 964 b 47 722 135 964 47 876 l 47 240 b 288 0 47 86 131 0 z m 617 1174 b 435 1356 617 1271 533 1356 b 256 1174 336 1356 256 1271 b 435 993 256 1075 338 993 b 617 1174 532 993 617 1075 z m 496 1174 b 435 1114 496 1140 469 1114 b 376 1174 403 1114 376 1140 b 435 1235 376 1207 403 1235 b 496 1174 469 1235 496 1207 z "},"ġ":{"ha":817,"x_min":0,"x_max":0,"o":"m 769 0 l 769 603 l 529 603 l 529 240 l 371 240 b 286 288 293 240 286 249 l 286 638 b 371 722 288 707 303 722 l 765 722 l 765 964 l 288 964 b 47 722 135 964 47 876 l 47 240 b 288 0 47 86 131 0 z m 617 1174 b 435 1356 617 1271 533 1356 b 256 1174 336 1356 256 1271 b 435 993 256 1075 338 993 b 617 1174 532 993 617 1075 z m 496 1174 b 435 1114 496 1140 469 1114 b 376 1174 403 1114 376 1140 b 435 1235 376 1207 403 1235 b 496 1174 469 1235 496 1207 z "},"Ģ":{"ha":817,"x_min":0,"x_max":0,"o":"m 769 0 l 769 603 l 529 603 l 529 240 l 371 240 b 286 288 293 240 286 249 l 286 638 b 371 722 288 707 303 722 l 765 722 l 765 964 l 288 964 b 47 722 135 964 47 876 l 47 240 b 288 0 47 86 131 0 z m 551 -311 l 551 -157 l 526 -157 b 500 -101 504 -157 500 -154 l 500 -96 b 410 -19 500 -56 460 -19 b 322 -96 361 -19 322 -56 l 322 -157 b 500 -311 322 -257 386 -311 z "},"ģ":{"ha":817,"x_min":0,"x_max":0,"o":"m 769 0 l 769 603 l 529 603 l 529 240 l 371 240 b 286 288 293 240 286 249 l 286 638 b 371 722 288 707 303 722 l 765 722 l 765 964 l 288 964 b 47 722 135 964 47 876 l 47 240 b 288 0 47 86 131 0 z m 551 -311 l 551 -157 l 526 -157 b 500 -101 504 -157 500 -154 l 500 -96 b 410 -19 500 -56 460 -19 b 322 -96 361 -19 322 -56 l 322 -157 b 500 -311 322 -257 386 -311 z "},"Ħ":{"ha":817,"x_min":0,"x_max":0,"o":"m 769 361 l 769 964 l 529 964 l 529 881 l 288 881 l 288 964 l 47 964 l 47 0 l 288 0 l 288 361 z m 769 0 l 769 240 l 529 240 l 529 0 z m 529 603 l 288 603 l 288 713 l 529 713 z "},"ħ":{"ha":817,"x_min":0,"x_max":0,"o":"m 769 361 l 769 964 l 529 964 l 529 881 l 288 881 l 288 964 l 47 964 l 47 0 l 288 0 l 288 361 z m 769 0 l 769 240 l 529 240 l 529 0 z m 529 603 l 288 603 l 288 713 l 529 713 z "},"Ī":{"ha":624,"x_min":0,"x_max":0,"o":"m 553 0 l 553 240 l 433 240 l 433 722 l 553 722 l 553 964 l 71 964 l 71 722 l 192 722 l 192 240 l 71 240 l 71 0 z m 660 1093 l 660 1289 l -37 1289 l -37 1093 z "},"ī":{"ha":624,"x_min":0,"x_max":0,"o":"m 553 0 l 553 240 l 433 240 l 433 722 l 553 722 l 553 964 l 71 964 l 71 722 l 192 722 l 192 240 l 71 240 l 71 0 z m 660 1093 l 660 1289 l -37 1289 l -37 1093 z "},"Ĭ":{"ha":544,"x_min":0,"x_max":0,"o":"m 513 0 l 513 240 l 393 240 l 393 722 l 513 722 l 513 964 l 31 964 l 31 722 l 151 722 l 151 240 l 31 240 l 31 0 z m 329 1083 b 571 1290 517 1083 571 1136 l 571 1356 l 372 1356 l 372 1307 b 314 1253 372 1267 360 1253 l 235 1253 b 175 1307 190 1253 175 1267 l 175 1356 l -24 1356 l -24 1290 b 218 1083 -24 1136 32 1083 z "},"ĭ":{"ha":544,"x_min":0,"x_max":0,"o":"m 513 0 l 513 240 l 393 240 l 393 722 l 513 722 l 513 964 l 31 964 l 31 722 l 151 722 l 151 240 l 31 240 l 31 0 z m 329 1083 b 571 1290 517 1083 571 1136 l 571 1356 l 372 1356 l 372 1307 b 314 1253 372 1267 360 1253 l 235 1253 b 175 1307 190 1253 175 1267 l 175 1356 l -24 1356 l -24 1290 b 218 1083 -24 1136 32 1083 z "},"Į":{"ha":544,"x_min":0,"x_max":0,"o":"m 472 -311 l 472 -93 l 350 -93 b 328 -68 335 -93 328 -85 l 328 -58 b 413 0 328 -42 346 -22 l 513 0 l 513 240 l 393 240 l 393 722 l 513 722 l 513 964 l 31 964 l 31 722 l 151 722 l 151 240 l 31 240 l 31 0 l 257 0 b 90 -150 149 -10 90 -69 l 90 -186 b 214 -311 90 -264 128 -311 z "},"į":{"ha":544,"x_min":0,"x_max":0,"o":"m 472 -311 l 472 -93 l 350 -93 b 328 -68 335 -93 328 -85 l 328 -58 b 413 0 328 -42 346 -22 l 513 0 l 513 240 l 393 240 l 393 722 l 513 722 l 513 964 l 31 964 l 31 722 l 151 722 l 151 240 l 31 240 l 31 0 l 257 0 b 90 -150 149 -10 90 -69 l 90 -186 b 214 -311 90 -264 128 -311 z "},"İ":{"ha":544,"x_min":0,"x_max":0,"o":"m 513 0 l 513 240 l 393 240 l 393 722 l 513 722 l 513 964 l 31 964 l 31 722 l 151 722 l 151 240 l 31 240 l 31 0 z m 453 1174 b 271 1356 453 1271 369 1356 b 92 1174 172 1356 92 1271 b 271 993 92 1075 174 993 b 453 1174 368 993 453 1075 z m 332 1174 b 271 1114 332 1140 306 1114 b 213 1174 239 1114 213 1140 b 271 1235 213 1207 239 1235 b 332 1174 306 1235 332 1207 z "},"ı":{"ha":544,"x_min":0,"x_max":0,"o":"m 513 0 l 513 240 l 393 240 l 393 722 l 513 722 l 513 964 l 31 964 l 31 722 l 151 722 l 151 240 l 31 240 l 31 0 z "},"Ĳ":{"ha":1240,"x_min":0,"x_max":0,"o":"m 513 0 l 513 240 l 393 240 l 393 722 l 513 722 l 513 964 l 31 964 l 31 722 l 151 722 l 151 240 l 31 240 l 31 0 z m 953 0 b 1193 240 1107 0 1193 86 l 1193 964 l 607 964 l 607 722 l 953 722 l 953 288 b 869 240 953 247 944 240 l 592 240 l 592 0 z "},"ĳ":{"ha":1240,"x_min":0,"x_max":0,"o":"m 513 0 l 513 240 l 393 240 l 393 722 l 513 722 l 513 964 l 31 964 l 31 722 l 151 722 l 151 240 l 31 240 l 31 0 z m 953 0 b 1193 240 1107 0 1193 86 l 1193 964 l 607 964 l 607 722 l 953 722 l 953 288 b 869 240 953 247 944 240 l 592 240 l 592 0 z "},"Ķ":{"ha":817,"x_min":0,"x_max":0,"o":"m 529 542 b 769 782 681 542 769 631 l 769 964 l 529 964 l 529 858 b 443 774 529 790 513 774 l 288 774 l 288 964 l 47 964 l 47 542 z m 769 0 l 769 181 b 529 421 769 333 681 421 l 47 421 l 47 0 l 288 0 l 288 189 l 443 189 b 529 106 513 189 529 172 l 529 0 z m 551 -311 l 551 -157 l 526 -157 b 500 -101 504 -157 500 -154 l 500 -96 b 410 -19 500 -56 460 -19 b 322 -96 361 -19 322 -56 l 322 -157 b 500 -311 322 -257 386 -311 z "},"ķ":{"ha":817,"x_min":0,"x_max":0,"o":"m 529 542 b 769 782 681 542 769 631 l 769 964 l 529 964 l 529 858 b 443 774 529 790 513 774 l 288 774 l 288 964 l 47 964 l 47 542 z m 769 0 l 769 181 b 529 421 769 333 681 421 l 47 421 l 47 0 l 288 0 l 288 189 l 443 189 b 529 106 513 189 529 172 l 529 0 z m 551 -311 l 551 -157 l 526 -157 b 500 -101 504 -157 500 -154 l 500 -96 b 410 -19 500 -56 460 -19 b 322 -96 361 -19 322 -56 l 322 -157 b 500 -311 322 -257 386 -311 z "},"Ĺ":{"ha":710,"x_min":0,"x_max":0,"o":"m 664 0 l 664 240 l 288 240 l 288 964 l 47 964 l 47 0 z m 331 1065 l 550 1343 l 258 1343 l 101 1065 z "},"ĺ":{"ha":710,"x_min":0,"x_max":0,"o":"m 664 0 l 664 240 l 288 240 l 288 964 l 47 964 l 47 0 z m 331 1065 l 550 1343 l 258 1343 l 101 1065 z "},"Ļ":{"ha":710,"x_min":0,"x_max":0,"o":"m 664 0 l 664 240 l 288 240 l 288 964 l 47 964 l 47 0 z m 482 -311 l 482 -157 l 457 -157 b 431 -101 435 -157 431 -154 l 431 -96 b 340 -19 431 -56 390 -19 b 253 -96 292 -19 253 -56 l 253 -157 b 431 -311 253 -257 317 -311 z "},"ļ":{"ha":710,"x_min":0,"x_max":0,"o":"m 664 0 l 664 240 l 288 240 l 288 964 l 47 964 l 47 0 z m 482 -311 l 482 -157 l 457 -157 b 431 -101 435 -157 431 -154 l 431 -96 b 340 -19 431 -56 390 -19 b 253 -96 292 -19 253 -56 l 253 -157 b 431 -311 253 -257 317 -311 z "},"Ľ":{"ha":710,"x_min":0,"x_max":0,"o":"m 664 0 l 664 240 l 288 240 l 288 964 l 47 964 l 47 0 z m 610 686 l 610 840 l 585 840 b 558 896 563 840 558 843 l 558 901 b 468 978 558 942 518 978 b 381 901 419 978 381 942 l 381 840 b 558 686 381 740 444 686 z "},"ľ":{"ha":710,"x_min":0,"x_max":0,"o":"m 664 0 l 664 240 l 288 240 l 288 964 l 47 964 l 47 0 z m 610 686 l 610 840 l 585 840 b 558 896 563 840 558 843 l 558 901 b 468 978 558 942 518 978 b 381 901 419 978 381 942 l 381 840 b 558 686 381 740 444 686 z "},"Ŀ":{"ha":710,"x_min":0,"x_max":0,"o":"m 664 0 l 664 240 l 288 240 l 288 964 l 47 964 l 47 0 z m 686 546 b 504 728 686 643 603 728 b 325 546 406 728 325 643 b 504 365 325 447 407 365 b 686 546 601 365 686 447 z m 565 546 b 504 486 565 513 539 486 b 446 546 472 486 446 513 b 504 607 446 579 472 607 b 565 546 539 607 565 579 z "},"ŀ":{"ha":710,"x_min":0,"x_max":0,"o":"m 664 0 l 664 240 l 288 240 l 288 964 l 47 964 l 47 0 z m 686 546 b 504 728 686 643 603 728 b 325 546 406 728 325 643 b 504 365 325 447 407 365 b 686 546 601 365 686 447 z m 565 546 b 504 486 565 513 539 486 b 446 546 472 486 446 513 b 504 607 446 579 472 607 b 565 546 539 607 565 579 z "},"Ł":{"ha":736,"x_min":0,"x_max":0,"o":"m 707 0 l 707 240 l 332 240 l 332 560 l 607 611 l 607 807 l 332 756 l 332 964 l 90 964 l 90 711 l 0 694 l 0 499 l 90 515 l 90 0 z "},"ł":{"ha":736,"x_min":0,"x_max":0,"o":"m 707 0 l 707 240 l 332 240 l 332 560 l 607 611 l 607 807 l 332 756 l 332 964 l 90 964 l 90 711 l 0 694 l 0 499 l 90 515 l 90 0 z "},"Ń":{"ha":824,"x_min":0,"x_max":0,"o":"m 776 0 l 776 722 b 536 964 776 876 689 964 l 47 964 l 47 0 l 288 0 l 288 722 l 474 722 b 536 650 522 722 536 706 l 536 0 z m 474 1065 l 693 1343 l 401 1343 l 244 1065 z "},"ń":{"ha":824,"x_min":0,"x_max":0,"o":"m 776 0 l 776 722 b 536 964 776 876 689 964 l 47 964 l 47 0 l 288 0 l 288 722 l 474 722 b 536 650 522 722 536 706 l 536 0 z m 474 1065 l 693 1343 l 401 1343 l 244 1065 z "},"Ņ":{"ha":824,"x_min":0,"x_max":0,"o":"m 776 0 l 776 722 b 536 964 776 876 689 964 l 47 964 l 47 0 l 288 0 l 288 722 l 474 722 b 536 650 522 722 536 706 l 536 0 z m 554 -311 l 554 -157 l 529 -157 b 503 -101 507 -157 503 -154 l 503 -96 b 413 -19 503 -56 463 -19 b 325 -96 364 -19 325 -56 l 325 -157 b 503 -311 325 -257 389 -311 z "},"ņ":{"ha":824,"x_min":0,"x_max":0,"o":"m 776 0 l 776 722 b 536 964 776 876 689 964 l 47 964 l 47 0 l 288 0 l 288 722 l 474 722 b 536 650 522 722 536 706 l 536 0 z m 554 -311 l 554 -157 l 529 -157 b 503 -101 507 -157 503 -154 l 503 -96 b 413 -19 503 -56 463 -19 b 325 -96 364 -19 325 -56 l 325 -157 b 503 -311 325 -257 389 -311 z "},"Ň":{"ha":824,"x_min":0,"x_max":0,"o":"m 776 0 l 776 722 b 536 964 776 876 689 964 l 47 964 l 47 0 l 288 0 l 288 722 l 474 722 b 536 650 522 722 536 706 l 536 0 z m 757 1356 l 489 1356 l 401 1228 l 314 1356 l 40 1356 l 238 1090 b 397 1017 269 1046 311 1017 b 558 1090 483 1017 525 1046 z "},"ň":{"ha":824,"x_min":0,"x_max":0,"o":"m 776 0 l 776 722 b 536 964 776 876 689 964 l 47 964 l 47 0 l 288 0 l 288 722 l 474 722 b 536 650 522 722 536 706 l 536 0 z m 757 1356 l 489 1356 l 401 1228 l 314 1356 l 40 1356 l 238 1090 b 397 1017 269 1046 311 1017 b 558 1090 483 1017 525 1046 z "},"Ŋ":{"ha":824,"x_min":0,"x_max":0,"o":"m 536 -311 b 776 -71 690 -311 776 -225 l 776 722 b 536 964 776 876 689 964 l 47 964 l 47 0 l 288 0 l 288 722 l 474 722 b 536 650 522 722 536 706 l 536 -24 b 453 -71 536 -65 528 -71 l 376 -71 l 376 -311 z "},"ŋ":{"ha":824,"x_min":0,"x_max":0,"o":"m 536 -311 b 776 -71 690 -311 776 -225 l 776 722 b 536 964 776 876 689 964 l 47 964 l 47 0 l 288 0 l 288 722 l 474 722 b 536 650 522 722 536 706 l 536 -24 b 453 -71 536 -65 528 -71 l 376 -71 l 376 -311 z "},"Ō":{"ha":1006,"x_min":0,"x_max":0,"o":"m 503 -14 b 985 482 772 -14 985 194 b 503 978 985 769 772 978 b 21 482 233 978 21 769 b 503 -14 21 194 233 -14 z m 503 226 b 260 482 371 226 260 318 b 503 738 260 646 371 738 b 747 482 635 738 747 646 b 503 226 747 318 635 226 z m 503 361 b 621 482 571 361 621 415 b 503 603 621 549 571 603 b 386 482 435 603 386 549 b 503 361 386 415 435 361 z m 851 1093 l 851 1289 l 154 1289 l 154 1093 z "},"ō":{"ha":1006,"x_min":0,"x_max":0,"o":"m 503 -14 b 985 482 772 -14 985 194 b 503 978 985 769 772 978 b 21 482 233 978 21 769 b 503 -14 21 194 233 -14 z m 503 226 b 260 482 371 226 260 318 b 503 738 260 646 371 738 b 747 482 635 738 747 646 b 503 226 747 318 635 226 z m 503 361 b 621 482 571 361 621 415 b 503 603 621 549 571 603 b 386 482 435 603 386 549 b 503 361 386 415 435 361 z m 851 1093 l 851 1289 l 154 1289 l 154 1093 z "},"Ŏ":{"ha":1006,"x_min":0,"x_max":0,"o":"m 503 -14 b 985 482 772 -14 985 194 b 503 978 985 769 772 978 b 21 482 233 978 21 769 b 503 -14 21 194 233 -14 z m 503 226 b 260 482 371 226 260 318 b 503 738 260 646 371 738 b 747 482 635 738 747 646 b 503 226 747 318 635 226 z m 503 361 b 621 482 571 361 621 415 b 503 603 621 549 571 603 b 386 482 435 603 386 549 b 503 361 386 415 435 361 z m 558 1083 b 800 1290 746 1083 800 1136 l 800 1356 l 601 1356 l 601 1307 b 543 1253 601 1267 589 1253 l 464 1253 b 404 1307 419 1253 404 1267 l 404 1356 l 206 1356 l 206 1290 b 447 1083 206 1136 261 1083 z "},"ŏ":{"ha":1006,"x_min":0,"x_max":0,"o":"m 503 -14 b 985 482 772 -14 985 194 b 503 978 985 769 772 978 b 21 482 233 978 21 769 b 503 -14 21 194 233 -14 z m 503 226 b 260 482 371 226 260 318 b 503 738 260 646 371 738 b 747 482 635 738 747 646 b 503 226 747 318 635 226 z m 503 361 b 621 482 571 361 621 415 b 503 603 621 549 571 603 b 386 482 435 603 386 549 b 503 361 386 415 435 361 z m 558 1083 b 800 1290 746 1083 800 1136 l 800 1356 l 601 1356 l 601 1307 b 543 1253 601 1267 589 1253 l 464 1253 b 404 1307 419 1253 404 1267 l 404 1356 l 206 1356 l 206 1290 b 447 1083 206 1136 261 1083 z "},"Ő":{"ha":1006,"x_min":0,"x_max":0,"o":"m 503 -14 b 985 482 772 -14 985 194 b 503 978 985 769 772 978 b 21 482 233 978 21 769 b 503 -14 21 194 233 -14 z m 503 226 b 260 482 371 226 260 318 b 503 738 260 646 371 738 b 747 482 635 738 747 646 b 503 226 747 318 635 226 z m 503 361 b 621 482 571 361 621 415 b 503 603 621 549 571 603 b 386 482 435 603 386 549 b 503 361 386 415 435 361 z m 761 1065 l 981 1343 l 689 1343 l 532 1065 z m 394 1065 l 614 1343 l 322 1343 l 165 1065 z "},"ő":{"ha":1006,"x_min":0,"x_max":0,"o":"m 503 -14 b 985 482 772 -14 985 194 b 503 978 985 769 772 978 b 21 482 233 978 21 769 b 503 -14 21 194 233 -14 z m 503 226 b 260 482 371 226 260 318 b 503 738 260 646 371 738 b 747 482 635 738 747 646 b 503 226 747 318 635 226 z m 503 361 b 621 482 571 361 621 415 b 503 603 621 549 571 603 b 386 482 435 603 386 549 b 503 361 386 415 435 361 z m 761 1065 l 981 1343 l 689 1343 l 532 1065 z m 394 1065 l 614 1343 l 322 1343 l 165 1065 z "},"Œ":{"ha":1369,"x_min":0,"x_max":0,"o":"m 1322 0 l 1322 240 l 928 240 b 974 372 950 281 965 325 l 1319 372 l 1319 592 l 974 592 b 928 722 965 638 950 682 l 1322 722 l 1322 964 l 622 964 b 503 978 583 972 544 978 b 21 482 233 978 21 769 b 503 -14 21 194 233 -14 b 622 0 544 -14 583 -8 z m 503 226 b 260 482 371 226 260 318 b 503 738 260 646 371 738 b 747 482 635 738 747 646 b 503 226 747 318 635 226 z m 503 361 b 621 482 571 361 621 415 b 503 603 621 549 571 603 b 386 482 435 603 386 549 b 503 361 386 415 435 361 z "},"œ":{"ha":1369,"x_min":0,"x_max":0,"o":"m 1322 0 l 1322 240 l 928 240 b 974 372 950 281 965 325 l 1319 372 l 1319 592 l 974 592 b 928 722 965 638 950 682 l 1322 722 l 1322 964 l 622 964 b 503 978 583 972 544 978 b 21 482 233 978 21 769 b 503 -14 21 194 233 -14 b 622 0 544 -14 583 -8 z m 503 226 b 260 482 371 226 260 318 b 503 738 260 646 371 738 b 747 482 635 738 747 646 b 503 226 747 318 635 226 z m 503 361 b 621 482 571 361 621 415 b 503 603 621 549 571 603 b 386 482 435 603 386 549 b 503 361 386 415 435 361 z "},"Ŕ":{"ha":797,"x_min":0,"x_max":0,"o":"m 769 0 l 568 292 b 769 617 692 353 769 464 b 408 978 769 826 607 978 b 47 617 211 978 47 832 l 47 0 l 288 0 l 288 276 l 481 0 z m 529 617 b 408 496 529 542 475 496 b 288 617 340 496 288 542 b 408 738 288 692 340 738 b 529 617 475 738 529 692 z m 475 1065 l 694 1343 l 403 1343 l 246 1065 z "},"ŕ":{"ha":797,"x_min":0,"x_max":0,"o":"m 769 0 l 568 292 b 769 617 692 353 769 464 b 408 978 769 826 607 978 b 47 617 211 978 47 832 l 47 0 l 288 0 l 288 276 l 481 0 z m 529 617 b 408 496 529 542 475 496 b 288 617 340 496 288 542 b 408 738 288 692 340 738 b 529 617 475 738 529 692 z m 475 1065 l 694 1343 l 403 1343 l 246 1065 z "},"Ŗ":{"ha":797,"x_min":0,"x_max":0,"o":"m 769 0 l 568 292 b 769 617 692 353 769 464 b 408 978 769 826 607 978 b 47 617 211 978 47 832 l 47 0 l 288 0 l 288 276 l 481 0 z m 529 617 b 408 496 529 542 475 496 b 288 617 340 496 288 542 b 408 738 288 692 340 738 b 529 617 475 738 529 692 z m 540 -311 l 540 -157 l 515 -157 b 489 -101 493 -157 489 -154 l 489 -96 b 399 -19 489 -56 449 -19 b 311 -96 350 -19 311 -56 l 311 -157 b 489 -311 311 -257 375 -311 z "},"ŗ":{"ha":797,"x_min":0,"x_max":0,"o":"m 769 0 l 568 292 b 769 617 692 353 769 464 b 408 978 769 826 607 978 b 47 617 211 978 47 832 l 47 0 l 288 0 l 288 276 l 481 0 z m 529 617 b 408 496 529 542 475 496 b 288 617 340 496 288 542 b 408 738 288 692 340 738 b 529 617 475 738 529 692 z m 540 -311 l 540 -157 l 515 -157 b 489 -101 493 -157 489 -154 l 489 -96 b 399 -19 489 -56 449 -19 b 311 -96 350 -19 311 -56 l 311 -157 b 489 -311 311 -257 375 -311 z "},"Ř":{"ha":797,"x_min":0,"x_max":0,"o":"m 769 0 l 568 292 b 769 617 692 353 769 464 b 408 978 769 826 607 978 b 47 617 211 978 47 832 l 47 0 l 288 0 l 288 276 l 481 0 z m 529 617 b 408 496 529 542 475 496 b 288 617 340 496 288 542 b 408 738 288 692 340 738 b 529 617 475 738 529 692 z m 758 1356 l 490 1356 l 403 1228 l 315 1356 l 42 1356 l 239 1090 b 399 1017 271 1046 313 1017 b 560 1090 485 1017 526 1046 z "},"ř":{"ha":797,"x_min":0,"x_max":0,"o":"m 769 0 l 568 292 b 769 617 692 353 769 464 b 408 978 769 826 607 978 b 47 617 211 978 47 832 l 47 0 l 288 0 l 288 276 l 481 0 z m 529 617 b 408 496 529 542 475 496 b 288 617 340 496 288 542 b 408 738 288 692 340 738 b 529 617 475 738 529 692 z m 758 1356 l 490 1356 l 403 1228 l 315 1356 l 42 1356 l 239 1090 b 399 1017 271 1046 313 1017 b 560 1090 485 1017 526 1046 z "},"Ś":{"ha":788,"x_min":0,"x_max":0,"o":"m 756 722 l 756 964 l 274 964 b 32 722 119 964 32 878 l 32 603 b 274 361 32 449 122 361 l 358 361 l 358 603 l 335 603 b 276 667 300 603 276 632 b 335 722 276 704 296 722 z m 514 0 b 756 240 669 0 756 86 l 756 361 b 514 603 756 514 668 603 l 431 603 l 431 361 l 456 361 b 513 297 489 361 513 332 b 456 240 513 260 493 240 l 32 240 l 32 0 z m 511 1065 l 731 1343 l 439 1343 l 282 1065 z "},"ś":{"ha":788,"x_min":0,"x_max":0,"o":"m 756 722 l 756 964 l 274 964 b 32 722 119 964 32 878 l 32 603 b 274 361 32 449 122 361 l 358 361 l 358 603 l 335 603 b 276 667 300 603 276 632 b 335 722 276 704 296 722 z m 514 0 b 756 240 669 0 756 86 l 756 361 b 514 603 756 514 668 603 l 431 603 l 431 361 l 456 361 b 513 297 489 361 513 332 b 456 240 513 260 493 240 l 32 240 l 32 0 z m 511 1065 l 731 1343 l 439 1343 l 282 1065 z "},"Ş":{"ha":788,"x_min":0,"x_max":0,"o":"m 756 722 l 756 964 l 274 964 b 32 722 119 964 32 878 l 32 603 b 274 361 32 449 122 361 l 358 361 l 358 603 l 335 603 b 276 667 300 603 276 632 b 335 722 276 704 296 722 z m 514 0 b 756 240 669 0 756 86 l 756 361 b 514 603 756 514 668 603 l 431 603 l 431 361 l 456 361 b 513 297 489 361 513 332 b 456 240 513 260 493 240 l 32 240 l 32 0 z m 518 -311 l 518 -157 l 493 -157 b 467 -101 471 -157 467 -154 l 467 -96 b 376 -19 467 -56 426 -19 b 289 -96 328 -19 289 -56 l 289 -157 b 467 -311 289 -257 353 -311 z "},"ş":{"ha":788,"x_min":0,"x_max":0,"o":"m 756 722 l 756 964 l 274 964 b 32 722 119 964 32 878 l 32 603 b 274 361 32 449 122 361 l 358 361 l 358 603 l 335 603 b 276 667 300 603 276 632 b 335 722 276 704 296 722 z m 514 0 b 756 240 669 0 756 86 l 756 361 b 514 603 756 514 668 603 l 431 603 l 431 361 l 456 361 b 513 297 489 361 513 332 b 456 240 513 260 493 240 l 32 240 l 32 0 z m 518 -311 l 518 -157 l 493 -157 b 467 -101 471 -157 467 -154 l 467 -96 b 376 -19 467 -56 426 -19 b 289 -96 328 -19 289 -56 l 289 -157 b 467 -311 289 -257 353 -311 z "},"Š":{"ha":788,"x_min":0,"x_max":0,"o":"m 756 722 l 756 964 l 274 964 b 32 722 119 964 32 878 l 32 603 b 274 361 32 449 122 361 l 358 361 l 358 603 l 335 603 b 276 667 300 603 276 632 b 335 722 276 704 296 722 z m 514 0 b 756 240 669 0 756 86 l 756 361 b 514 603 756 514 668 603 l 431 603 l 431 361 l 456 361 b 513 297 489 361 513 332 b 456 240 513 260 493 240 l 32 240 l 32 0 z m 767 1356 l 499 1356 l 411 1228 l 324 1356 l 50 1356 l 247 1090 b 407 1017 279 1046 321 1017 b 568 1090 493 1017 535 1046 z "},"š":{"ha":788,"x_min":0,"x_max":0,"o":"m 756 722 l 756 964 l 274 964 b 32 722 119 964 32 878 l 32 603 b 274 361 32 449 122 361 l 358 361 l 358 603 l 335 603 b 276 667 300 603 276 632 b 335 722 276 704 296 722 z m 514 0 b 756 240 669 0 756 86 l 756 361 b 514 603 756 514 668 603 l 431 603 l 431 361 l 456 361 b 513 297 489 361 513 332 b 456 240 513 260 493 240 l 32 240 l 32 0 z m 767 1356 l 499 1356 l 411 1228 l 324 1356 l 50 1356 l 247 1090 b 407 1017 279 1046 321 1017 b 568 1090 493 1017 535 1046 z "},"Ţ":{"ha":858,"x_min":0,"x_max":0,"o":"m 550 0 l 550 722 l 813 722 l 813 964 l 47 964 l 47 722 l 308 722 l 308 0 z m 571 -311 l 571 -157 l 546 -157 b 519 -101 524 -157 519 -154 l 519 -96 b 429 -19 519 -56 479 -19 b 342 -96 381 -19 342 -56 l 342 -157 b 519 -311 342 -257 406 -311 z "},"ţ":{"ha":858,"x_min":0,"x_max":0,"o":"m 550 0 l 550 722 l 813 722 l 813 964 l 47 964 l 47 722 l 308 722 l 308 0 z m 571 -311 l 571 -157 l 546 -157 b 519 -101 524 -157 519 -154 l 519 -96 b 429 -19 519 -56 479 -19 b 342 -96 381 -19 342 -56 l 342 -157 b 519 -311 342 -257 406 -311 z "},"Ť":{"ha":858,"x_min":0,"x_max":0,"o":"m 550 0 l 550 722 l 813 722 l 813 964 l 47 964 l 47 722 l 308 722 l 308 0 z m 788 1356 l 519 1356 l 432 1228 l 344 1356 l 71 1356 l 268 1090 b 428 1017 300 1046 342 1017 b 589 1090 514 1017 556 1046 z "},"ť":{"ha":858,"x_min":0,"x_max":0,"o":"m 550 0 l 550 722 l 813 722 l 813 964 l 47 964 l 47 722 l 308 722 l 308 0 z m 788 1356 l 519 1356 l 432 1228 l 344 1356 l 71 1356 l 268 1090 b 428 1017 300 1046 342 1017 b 589 1090 514 1017 556 1046 z "},"Ŧ":{"ha":858,"x_min":0,"x_max":0,"o":"m 550 0 l 550 374 l 676 374 l 676 586 l 550 586 l 550 722 l 813 722 l 813 964 l 47 964 l 47 722 l 308 722 l 308 586 l 189 586 l 189 374 l 308 374 l 308 0 z "},"ŧ":{"ha":858,"x_min":0,"x_max":0,"o":"m 550 0 l 550 374 l 676 374 l 676 586 l 550 586 l 550 722 l 813 722 l 813 964 l 47 964 l 47 722 l 308 722 l 308 586 l 189 586 l 189 374 l 308 374 l 308 0 z "},"Ũ":{"ha":817,"x_min":0,"x_max":0,"o":"m 529 0 b 769 240 682 0 769 88 l 769 964 l 529 964 l 529 325 b 444 240 529 257 513 240 l 372 240 b 288 325 303 240 288 257 l 288 964 l 47 964 l 47 240 b 288 0 47 88 136 0 z m 757 1093 l 757 1289 l 60 1289 l 60 1093 z "},"ũ":{"ha":817,"x_min":0,"x_max":0,"o":"m 529 0 b 769 240 682 0 769 88 l 769 964 l 529 964 l 529 325 b 444 240 529 257 513 240 l 372 240 b 288 325 303 240 288 257 l 288 964 l 47 964 l 47 240 b 288 0 47 88 136 0 z m 757 1093 l 757 1289 l 60 1289 l 60 1093 z "},"Ū":{"ha":817,"x_min":0,"x_max":0,"o":"m 529 0 b 769 240 682 0 769 88 l 769 964 l 529 964 l 529 325 b 444 240 529 257 513 240 l 372 240 b 288 325 303 240 288 257 l 288 964 l 47 964 l 47 240 b 288 0 47 88 136 0 z m 757 1093 l 757 1289 l 60 1289 l 60 1093 z "},"ū":{"ha":817,"x_min":0,"x_max":0,"o":"m 529 0 b 769 240 682 0 769 88 l 769 964 l 529 964 l 529 325 b 444 240 529 257 513 240 l 372 240 b 288 325 303 240 288 257 l 288 964 l 47 964 l 47 240 b 288 0 47 88 136 0 z m 757 1093 l 757 1289 l 60 1289 l 60 1093 z "},"Ŭ":{"ha":817,"x_min":0,"x_max":0,"o":"m 529 0 b 769 240 682 0 769 88 l 769 964 l 529 964 l 529 325 b 444 240 529 257 513 240 l 372 240 b 288 325 303 240 288 257 l 288 964 l 47 964 l 47 240 b 288 0 47 88 136 0 z m 464 1083 b 706 1290 651 1083 706 1136 l 706 1356 l 507 1356 l 507 1307 b 449 1253 507 1267 494 1253 l 369 1253 b 310 1307 325 1253 310 1267 l 310 1356 l 111 1356 l 111 1290 b 353 1083 111 1136 167 1083 z "},"ŭ":{"ha":817,"x_min":0,"x_max":0,"o":"m 529 0 b 769 240 682 0 769 88 l 769 964 l 529 964 l 529 325 b 444 240 529 257 513 240 l 372 240 b 288 325 303 240 288 257 l 288 964 l 47 964 l 47 240 b 288 0 47 88 136 0 z m 464 1083 b 706 1290 651 1083 706 1136 l 706 1356 l 507 1356 l 507 1307 b 449 1253 507 1267 494 1253 l 369 1253 b 310 1307 325 1253 310 1267 l 310 1356 l 111 1356 l 111 1290 b 353 1083 111 1136 167 1083 z "},"Ů":{"ha":817,"x_min":0,"x_max":0,"o":"m 529 0 b 769 240 682 0 769 88 l 769 964 l 529 964 l 529 325 b 444 240 529 257 513 240 l 372 240 b 288 325 303 240 288 257 l 288 964 l 47 964 l 47 240 b 288 0 47 88 136 0 z m 475 1008 b 636 1144 600 1008 636 1043 l 636 1218 b 475 1356 636 1318 600 1356 l 343 1356 b 182 1218 219 1356 182 1318 l 182 1144 b 343 1008 182 1043 219 1008 z m 503 1157 b 465 1119 503 1131 493 1119 l 351 1119 b 314 1157 324 1119 314 1131 l 314 1206 b 351 1242 314 1233 324 1242 l 465 1242 b 503 1206 493 1242 503 1233 z "},"ů":{"ha":817,"x_min":0,"x_max":0,"o":"m 529 0 b 769 240 682 0 769 88 l 769 964 l 529 964 l 529 325 b 444 240 529 257 513 240 l 372 240 b 288 325 303 240 288 257 l 288 964 l 47 964 l 47 240 b 288 0 47 88 136 0 z m 475 1008 b 636 1144 600 1008 636 1043 l 636 1218 b 475 1356 636 1318 600 1356 l 343 1356 b 182 1218 219 1356 182 1318 l 182 1144 b 343 1008 182 1043 219 1008 z m 503 1157 b 465 1119 503 1131 493 1119 l 351 1119 b 314 1157 324 1119 314 1131 l 314 1206 b 351 1242 314 1233 324 1242 l 465 1242 b 503 1206 493 1242 503 1233 z "},"Ű":{"ha":817,"x_min":0,"x_max":0,"o":"m 529 0 b 769 240 682 0 769 88 l 769 964 l 529 964 l 529 325 b 444 240 529 257 513 240 l 372 240 b 288 325 303 240 288 257 l 288 964 l 47 964 l 47 240 b 288 0 47 88 136 0 z m 667 1065 l 886 1343 l 594 1343 l 438 1065 z m 300 1065 l 519 1343 l 228 1343 l 71 1065 z "},"ű":{"ha":817,"x_min":0,"x_max":0,"o":"m 529 0 b 769 240 682 0 769 88 l 769 964 l 529 964 l 529 325 b 444 240 529 257 513 240 l 372 240 b 288 325 303 240 288 257 l 288 964 l 47 964 l 47 240 b 288 0 47 88 136 0 z m 667 1065 l 886 1343 l 594 1343 l 438 1065 z m 300 1065 l 519 1343 l 228 1343 l 71 1065 z "},"Ų":{"ha":817,"x_min":0,"x_max":0,"o":"m 599 -311 l 599 -93 l 476 -93 b 454 -68 461 -93 454 -85 l 454 -58 b 539 0 454 -42 472 -22 b 769 240 685 3 769 90 l 769 964 l 529 964 l 529 325 b 444 240 529 257 513 240 l 372 240 b 288 325 303 240 288 257 l 288 964 l 47 964 l 47 240 b 288 0 47 88 136 0 l 383 0 b 217 -150 275 -10 217 -69 l 217 -186 b 340 -311 217 -264 254 -311 z "},"ų":{"ha":817,"x_min":0,"x_max":0,"o":"m 599 -311 l 599 -93 l 476 -93 b 454 -68 461 -93 454 -85 l 454 -58 b 539 0 454 -42 472 -22 b 769 240 685 3 769 90 l 769 964 l 529 964 l 529 325 b 444 240 529 257 513 240 l 372 240 b 288 325 303 240 288 257 l 288 964 l 47 964 l 47 240 b 288 0 47 88 136 0 l 383 0 b 217 -150 275 -10 217 -69 l 217 -186 b 340 -311 217 -264 254 -311 z "},"Ŵ":{"ha":1057,"x_min":0,"x_max":0,"o":"m 769 0 b 1011 240 922 0 1011 88 l 1011 964 l 769 964 l 769 319 b 700 240 769 260 757 240 l 649 240 l 649 964 l 408 964 l 408 240 l 361 240 b 288 319 304 240 288 257 l 288 964 l 47 964 l 47 240 b 288 0 47 88 136 0 z m 886 1017 l 692 1281 b 531 1356 658 1324 615 1356 b 368 1281 444 1356 400 1325 l 169 1017 l 438 1017 l 526 1143 l 614 1017 z "},"ŵ":{"ha":1057,"x_min":0,"x_max":0,"o":"m 769 0 b 1011 240 922 0 1011 88 l 1011 964 l 769 964 l 769 319 b 700 240 769 260 757 240 l 649 240 l 649 964 l 408 964 l 408 240 l 361 240 b 288 319 304 240 288 257 l 288 964 l 47 964 l 47 240 b 288 0 47 88 136 0 z m 886 1017 l 692 1281 b 531 1356 658 1324 615 1356 b 368 1281 444 1356 400 1325 l 169 1017 l 438 1017 l 526 1143 l 614 1017 z "},"Ŷ":{"ha":781,"x_min":0,"x_max":0,"o":"m 510 361 b 751 603 664 361 751 450 l 751 964 l 510 964 l 510 686 b 426 603 510 618 494 603 l 317 603 b 269 686 275 603 269 610 l 269 964 l 28 964 l 28 603 b 269 361 28 447 115 361 z m 510 0 l 510 240 l 269 240 l 269 0 z m 749 1017 l 554 1281 b 393 1356 521 1324 478 1356 b 231 1281 307 1356 263 1325 l 32 1017 l 300 1017 l 389 1143 l 476 1017 z "},"ŷ":{"ha":781,"x_min":0,"x_max":0,"o":"m 510 361 b 751 603 664 361 751 450 l 751 964 l 510 964 l 510 686 b 426 603 510 618 494 603 l 317 603 b 269 686 275 603 269 610 l 269 964 l 28 964 l 28 603 b 269 361 28 447 115 361 z m 510 0 l 510 240 l 269 240 l 269 0 z m 749 1017 l 554 1281 b 393 1356 521 1324 478 1356 b 231 1281 307 1356 263 1325 l 32 1017 l 300 1017 l 389 1143 l 476 1017 z "},"Ÿ":{"ha":781,"x_min":0,"x_max":0,"o":"m 510 361 b 751 603 664 361 751 450 l 751 964 l 510 964 l 510 686 b 426 603 510 618 494 603 l 317 603 b 269 686 275 603 269 610 l 269 964 l 28 964 l 28 603 b 269 361 28 447 115 361 z m 510 0 l 510 240 l 269 240 l 269 0 z m 776 1174 b 594 1356 776 1271 693 1356 b 415 1174 496 1356 415 1271 b 594 993 415 1075 497 993 b 776 1174 692 993 776 1075 z m 656 1174 b 594 1114 656 1140 629 1114 b 535 1174 563 1114 535 1140 b 594 1235 535 1207 563 1235 b 656 1174 629 1235 656 1207 z m 365 1174 b 183 1356 365 1271 282 1356 b 4 1174 85 1356 4 1271 b 183 993 4 1075 86 993 b 365 1174 281 993 365 1075 z m 244 1174 b 183 1114 244 1140 218 1114 b 125 1174 151 1114 125 1140 b 183 1235 125 1207 151 1235 b 244 1174 218 1235 244 1207 z "},"Ź":{"ha":792,"x_min":0,"x_max":0,"o":"m 757 0 l 757 240 l 347 240 l 757 722 l 757 964 l 33 964 l 33 722 l 443 722 l 33 240 l 33 0 z m 478 1065 l 697 1343 l 406 1343 l 249 1065 z "},"ź":{"ha":792,"x_min":0,"x_max":0,"o":"m 757 0 l 757 240 l 347 240 l 757 722 l 757 964 l 33 964 l 33 722 l 443 722 l 33 240 l 33 0 z m 478 1065 l 697 1343 l 406 1343 l 249 1065 z "},"Ż":{"ha":792,"x_min":0,"x_max":0,"o":"m 757 0 l 757 240 l 347 240 l 757 722 l 757 964 l 33 964 l 33 722 l 443 722 l 33 240 l 33 0 z m 582 1174 b 400 1356 582 1271 499 1356 b 221 1174 301 1356 221 1271 b 400 993 221 1075 303 993 b 582 1174 497 993 582 1075 z m 461 1174 b 400 1114 461 1140 435 1114 b 342 1174 368 1114 342 1140 b 400 1235 342 1207 368 1235 b 461 1174 435 1235 461 1207 z "},"ż":{"ha":792,"x_min":0,"x_max":0,"o":"m 757 0 l 757 240 l 347 240 l 757 722 l 757 964 l 33 964 l 33 722 l 443 722 l 33 240 l 33 0 z m 582 1174 b 400 1356 582 1271 499 1356 b 221 1174 301 1356 221 1271 b 400 993 221 1075 303 993 b 582 1174 497 993 582 1075 z m 461 1174 b 400 1114 461 1140 435 1114 b 342 1174 368 1114 342 1140 b 400 1235 342 1207 368 1235 b 461 1174 435 1235 461 1207 z "},"Ž":{"ha":792,"x_min":0,"x_max":0,"o":"m 757 0 l 757 240 l 347 240 l 757 722 l 757 964 l 33 964 l 33 722 l 443 722 l 33 240 l 33 0 z m 761 1356 l 493 1356 l 406 1228 l 318 1356 l 44 1356 l 242 1090 b 401 1017 274 1046 315 1017 b 563 1090 488 1017 529 1046 z "},"ž":{"ha":792,"x_min":0,"x_max":0,"o":"m 757 0 l 757 240 l 347 240 l 757 722 l 757 964 l 33 964 l 33 722 l 443 722 l 33 240 l 33 0 z m 761 1356 l 493 1356 l 406 1228 l 318 1356 l 44 1356 l 242 1090 b 401 1017 274 1046 315 1017 b 563 1090 488 1017 529 1046 z "},"ƒ":{"ha":756,"x_min":0,"x_max":0,"o":"m 718 424 l 718 625 l 535 625 l 543 678 b 685 754 553 731 592 754 l 719 754 l 719 964 l 676 964 b 300 690 429 964 338 890 l 289 625 l 115 625 l 115 424 l 253 424 l 207 176 b 63 71 192 93 151 71 l 25 71 l 25 -139 l 71 -139 b 446 135 318 -139 411 -65 l 497 424 z "},"Ș":{"ha":788,"x_min":0,"x_max":0,"o":"m 756 722 l 756 964 l 274 964 b 32 722 119 964 32 878 l 32 603 b 274 361 32 449 122 361 l 358 361 l 358 603 l 335 603 b 276 667 300 603 276 632 b 335 722 276 704 296 722 z m 514 0 b 756 240 669 0 756 86 l 756 361 b 514 603 756 514 668 603 l 431 603 l 431 361 l 456 361 b 513 297 489 361 513 332 b 456 240 513 260 493 240 l 32 240 l 32 0 z m 518 -311 l 518 -157 l 493 -157 b 467 -101 471 -157 467 -154 l 467 -96 b 376 -19 467 -56 426 -19 b 289 -96 328 -19 289 -56 l 289 -157 b 467 -311 289 -257 353 -311 z "},"ș":{"ha":788,"x_min":0,"x_max":0,"o":"m 756 722 l 756 964 l 274 964 b 32 722 119 964 32 878 l 32 603 b 274 361 32 449 122 361 l 358 361 l 358 603 l 335 603 b 276 667 300 603 276 632 b 335 722 276 704 296 722 z m 514 0 b 756 240 669 0 756 86 l 756 361 b 514 603 756 514 668 603 l 431 603 l 431 361 l 456 361 b 513 297 489 361 513 332 b 456 240 513 260 493 240 l 32 240 l 32 0 z m 518 -311 l 518 -157 l 493 -157 b 467 -101 471 -157 467 -154 l 467 -96 b 376 -19 467 -56 426 -19 b 289 -96 328 -19 289 -56 l 289 -157 b 467 -311 289 -257 353 -311 z "},"Ț":{"ha":858,"x_min":0,"x_max":0,"o":"m 550 0 l 550 722 l 813 722 l 813 964 l 47 964 l 47 722 l 308 722 l 308 0 z m 571 -311 l 571 -157 l 546 -157 b 519 -101 524 -157 519 -154 l 519 -96 b 429 -19 519 -56 479 -19 b 342 -96 381 -19 342 -56 l 342 -157 b 519 -311 342 -257 406 -311 z "},"ț":{"ha":858,"x_min":0,"x_max":0,"o":"m 550 0 l 550 722 l 813 722 l 813 964 l 47 964 l 47 722 l 308 722 l 308 0 z m 571 -311 l 571 -157 l 546 -157 b 519 -101 524 -157 519 -154 l 519 -96 b 429 -19 519 -56 479 -19 b 342 -96 381 -19 342 -56 l 342 -157 b 519 -311 342 -257 406 -311 z "},"ˆ":{"ha":857,"x_min":0,"x_max":0,"o":"m 786 1017 l 592 1281 b 431 1356 558 1324 515 1356 b 268 1281 344 1356 300 1325 l 69 1017 l 338 1017 l 426 1143 l 514 1017 z "},"ˇ":{"ha":857,"x_min":0,"x_max":0,"o":"m 786 1356 l 518 1356 l 431 1228 l 343 1356 l 69 1356 l 267 1090 b 426 1017 299 1046 340 1017 b 588 1090 513 1017 554 1046 z "},"˘":{"ha":733,"x_min":0,"x_max":0,"o":"m 422 1083 b 664 1290 610 1083 664 1136 l 664 1356 l 465 1356 l 465 1307 b 407 1253 465 1267 453 1253 l 328 1253 b 268 1307 283 1253 268 1267 l 268 1356 l 69 1356 l 69 1290 b 311 1083 69 1136 125 1083 z "},"˙":{"ha":460,"x_min":0,"x_max":0,"o":"m 417 1174 b 235 1356 417 1271 333 1356 b 56 1174 136 1356 56 1271 b 235 993 56 1075 138 993 b 417 1174 332 993 417 1075 z m 296 1174 b 235 1114 296 1140 269 1114 b 176 1174 203 1114 176 1140 b 235 1235 176 1207 203 1235 b 296 1174 269 1235 296 1207 z "},"˚":{"ha":593,"x_min":0,"x_max":0,"o":"m 363 1008 b 524 1144 488 1008 524 1043 l 524 1218 b 363 1356 524 1318 488 1356 l 231 1356 b 69 1218 107 1356 69 1318 l 69 1144 b 231 1008 69 1043 107 1008 z m 390 1157 b 353 1119 390 1131 381 1119 l 239 1119 b 201 1157 211 1119 201 1131 l 201 1206 b 239 1242 201 1233 211 1242 l 353 1242 b 390 1206 381 1242 390 1233 z "},"˛":{"ha":519,"x_min":0,"x_max":0,"o":"m 450 -311 l 450 -93 l 329 -93 b 306 -68 314 -93 306 -85 l 306 -58 b 392 0 306 -42 325 -22 l 235 0 b 69 -150 128 -10 69 -69 l 69 -186 b 193 -311 69 -264 107 -311 z "},"˜":{"ha":836,"x_min":0,"x_max":0,"o":"m 767 1093 l 767 1289 l 69 1289 l 69 1093 z "},"˝":{"ha":956,"x_min":0,"x_max":0,"o":"m 665 1065 l 885 1343 l 593 1343 l 436 1065 z m 299 1065 l 518 1343 l 226 1343 l 69 1065 z "},"Δ":{"ha":1028,"x_min":0,"x_max":0,"o":"m 1008 0 l 646 965 l 381 965 l 19 0 z m 665 240 l 363 240 l 514 643 z "},"Ω":{"ha":774,"x_min":0,"x_max":0,"o":"m 726 0 l 726 269 l 618 269 l 681 360 b 725 525 718 414 725 439 l 725 710 b 456 964 725 872 661 964 l 319 964 b 49 710 114 964 49 872 l 49 525 b 93 360 49 439 56 414 l 156 269 l 47 269 l 47 0 l 358 0 l 358 267 l 317 346 b 300 417 306 363 300 388 l 300 651 b 365 731 300 707 311 731 l 408 731 b 474 651 463 731 474 707 l 474 417 b 458 346 474 388 468 363 l 415 267 l 415 0 z "},"μ":{"ha":644,"x_min":0,"x_max":0,"o":"m 267 -240 l 267 0 l 325 0 b 599 285 538 0 599 75 l 599 663 l 378 663 l 378 301 b 311 226 378 247 361 226 l 267 226 l 267 663 l 47 663 l 47 -240 z "},"π":{"ha":668,"x_min":0,"x_max":0,"o":"m 621 0 l 621 692 l 47 692 l 47 0 l 269 0 l 269 456 l 399 456 l 399 0 z "},"Ẁ":{"ha":1057,"x_min":0,"x_max":0,"o":"m 769 0 b 1011 240 922 0 1011 88 l 1011 964 l 769 964 l 769 319 b 700 240 769 260 757 240 l 649 240 l 649 964 l 408 964 l 408 240 l 361 240 b 288 319 304 240 288 257 l 288 964 l 47 964 l 47 240 b 288 0 47 88 136 0 z m 681 1065 l 525 1343 l 232 1343 l 451 1065 z "},"ẁ":{"ha":1057,"x_min":0,"x_max":0,"o":"m 769 0 b 1011 240 922 0 1011 88 l 1011 964 l 769 964 l 769 319 b 700 240 769 260 757 240 l 649 240 l 649 964 l 408 964 l 408 240 l 361 240 b 288 319 304 240 288 257 l 288 964 l 47 964 l 47 240 b 288 0 47 88 136 0 z m 681 1065 l 525 1343 l 232 1343 l 451 1065 z "},"Ẃ":{"ha":1057,"x_min":0,"x_max":0,"o":"m 769 0 b 1011 240 922 0 1011 88 l 1011 964 l 769 964 l 769 319 b 700 240 769 260 757 240 l 649 240 l 649 964 l 408 964 l 408 240 l 361 240 b 288 319 304 240 288 257 l 288 964 l 47 964 l 47 240 b 288 0 47 88 136 0 z m 603 1065 l 822 1343 l 531 1343 l 374 1065 z "},"ẃ":{"ha":1057,"x_min":0,"x_max":0,"o":"m 769 0 b 1011 240 922 0 1011 88 l 1011 964 l 769 964 l 769 319 b 700 240 769 260 757 240 l 649 240 l 649 964 l 408 964 l 408 240 l 361 240 b 288 319 304 240 288 257 l 288 964 l 47 964 l 47 240 b 288 0 47 88 136 0 z m 603 1065 l 822 1343 l 531 1343 l 374 1065 z "},"Ẅ":{"ha":1057,"x_min":0,"x_max":0,"o":"m 769 0 b 1011 240 922 0 1011 88 l 1011 964 l 769 964 l 769 319 b 700 240 769 260 757 240 l 649 240 l 649 964 l 408 964 l 408 240 l 361 240 b 288 319 304 240 288 257 l 288 964 l 47 964 l 47 240 b 288 0 47 88 136 0 z m 914 1174 b 732 1356 914 1271 831 1356 b 553 1174 633 1356 553 1271 b 732 993 553 1075 635 993 b 914 1174 829 993 914 1075 z m 793 1174 b 732 1114 793 1140 767 1114 b 672 1174 700 1114 672 1140 b 732 1235 672 1207 700 1235 b 793 1174 767 1235 793 1207 z m 503 1174 b 321 1356 503 1271 419 1356 b 142 1174 222 1356 142 1271 b 321 993 142 1075 224 993 b 503 1174 418 993 503 1075 z m 382 1174 b 321 1114 382 1140 356 1114 b 263 1174 289 1114 263 1140 b 321 1235 263 1207 289 1235 b 382 1174 356 1235 382 1207 z "},"ẅ":{"ha":1057,"x_min":0,"x_max":0,"o":"m 769 0 b 1011 240 922 0 1011 88 l 1011 964 l 769 964 l 769 319 b 700 240 769 260 757 240 l 649 240 l 649 964 l 408 964 l 408 240 l 361 240 b 288 319 304 240 288 257 l 288 964 l 47 964 l 47 240 b 288 0 47 88 136 0 z m 914 1174 b 732 1356 914 1271 831 1356 b 553 1174 633 1356 553 1271 b 732 993 553 1075 635 993 b 914 1174 829 993 914 1075 z m 793 1174 b 732 1114 793 1140 767 1114 b 672 1174 700 1114 672 1140 b 732 1235 672 1207 700 1235 b 793 1174 767 1235 793 1207 z m 503 1174 b 321 1356 503 1271 419 1356 b 142 1174 222 1356 142 1271 b 321 993 142 1075 224 993 b 503 1174 418 993 503 1075 z m 382 1174 b 321 1114 382 1140 356 1114 b 263 1174 289 1114 263 1140 b 321 1235 263 1207 289 1235 b 382 1174 356 1235 382 1207 z "},"Ỳ":{"ha":781,"x_min":0,"x_max":0,"o":"m 510 361 b 751 603 664 361 751 450 l 751 964 l 510 964 l 510 686 b 426 603 510 618 494 603 l 317 603 b 269 686 275 603 269 610 l 269 964 l 28 964 l 28 603 b 269 361 28 447 115 361 z m 510 0 l 510 240 l 269 240 l 269 0 z m 543 1065 l 388 1343 l 94 1343 l 314 1065 z "},"ỳ":{"ha":781,"x_min":0,"x_max":0,"o":"m 510 361 b 751 603 664 361 751 450 l 751 964 l 510 964 l 510 686 b 426 603 510 618 494 603 l 317 603 b 269 686 275 603 269 610 l 269 964 l 28 964 l 28 603 b 269 361 28 447 115 361 z m 510 0 l 510 240 l 269 240 l 269 0 z m 543 1065 l 388 1343 l 94 1343 l 314 1065 z "},"–":{"ha":932,"x_min":0,"x_max":0,"o":"m 888 346 l 888 586 l 44 586 l 44 346 z "},"—":{"ha":1318,"x_min":0,"x_max":0,"o":"m 1272 346 l 1272 586 l 44 586 l 44 346 z "},"‘":{"ha":399,"x_min":0,"x_max":0,"o":"m 356 610 l 356 850 l 319 850 b 283 933 290 850 283 853 l 283 971 b 164 1092 283 1038 231 1092 b 43 971 97 1092 43 1038 l 43 850 b 283 610 43 696 129 610 z "},"’":{"ha":399,"x_min":0,"x_max":0,"o":"m 115 610 b 356 850 269 610 356 696 l 356 971 b 236 1092 356 1038 303 1092 b 115 971 169 1092 115 1038 l 115 933 b 79 850 115 853 108 850 l 43 850 l 43 610 z "},"‚":{"ha":411,"x_min":0,"x_max":0,"o":"m 122 -240 b 363 0 276 -240 363 -154 l 363 121 b 243 240 363 188 310 240 b 122 121 176 240 122 188 l 122 83 b 86 0 122 3 115 0 l 50 0 l 50 -240 z "},"“":{"ha":796,"x_min":0,"x_max":0,"o":"m 356 610 l 356 850 l 319 850 b 283 933 290 850 283 853 l 283 971 b 164 1092 283 1038 231 1092 b 43 971 97 1092 43 1038 l 43 850 b 283 610 43 696 129 610 z m 754 610 l 754 850 l 718 850 b 682 933 689 850 682 853 l 682 971 b 563 1092 682 1038 629 1092 b 442 971 496 1092 442 1038 l 442 850 b 682 610 442 696 528 610 z "},"”":{"ha":796,"x_min":0,"x_max":0,"o":"m 115 610 b 356 850 269 610 356 696 l 356 971 b 236 1092 356 1038 303 1092 b 115 971 169 1092 115 1038 l 115 933 b 79 850 115 853 108 850 l 43 850 l 43 610 z m 514 610 b 754 850 668 610 754 696 l 754 971 b 635 1092 754 1038 701 1092 b 514 971 568 1092 514 1038 l 514 933 b 478 850 514 853 507 850 l 442 850 l 442 610 z "},"„":{"ha":822,"x_min":0,"x_max":0,"o":"m 122 -240 b 363 0 276 -240 363 -154 l 363 121 b 243 240 363 188 310 240 b 122 121 176 240 122 188 l 122 83 b 86 0 122 3 115 0 l 50 0 l 50 -240 z m 533 -240 b 774 0 688 -240 774 -154 l 774 121 b 654 240 774 188 721 240 b 533 121 588 240 533 188 l 533 83 b 497 0 533 3 526 0 l 461 0 l 461 -240 z "},"†":{"ha":665,"x_min":0,"x_max":0,"o":"m 425 0 l 425 596 l 631 596 l 631 750 l 425 750 l 425 964 l 250 964 l 250 750 l 33 750 l 33 596 l 250 596 l 250 0 z "},"‡":{"ha":665,"x_min":0,"x_max":0,"o":"m 425 0 l 425 215 l 631 215 l 631 369 l 425 369 l 425 596 l 631 596 l 631 750 l 425 750 l 425 964 l 250 964 l 250 750 l 33 750 l 33 596 l 250 596 l 250 369 l 33 369 l 33 215 l 250 215 l 250 0 z "},"•":{"ha":568,"x_min":0,"x_max":0,"o":"m 344 231 b 513 390 444 231 513 289 l 513 565 b 344 726 513 672 456 726 l 228 726 b 56 564 129 726 56 664 l 56 390 b 228 231 56 289 125 231 z "},"…":{"ha":1492,"x_min":0,"x_max":0,"o":"m 419 60 b 238 240 419 157 336 240 b 58 60 139 240 58 157 b 238 -121 58 -39 140 -121 b 419 60 335 -121 419 -39 z m 299 60 b 238 0 299 26 272 0 b 178 60 206 0 178 26 b 238 121 178 93 206 121 b 299 60 272 121 299 93 z m 928 60 b 746 240 928 157 844 240 b 567 60 647 240 567 157 b 746 -121 567 -39 649 -121 b 928 60 843 -121 928 -39 z m 807 60 b 746 0 807 26 781 0 b 686 60 714 0 686 26 b 746 121 686 93 714 121 b 807 60 781 121 807 93 z m 1435 60 b 1253 240 1435 157 1351 240 b 1074 60 1154 240 1074 157 b 1253 -121 1074 -39 1156 -121 b 1435 60 1350 -121 1435 -39 z m 1314 60 b 1253 0 1314 26 1288 0 b 1193 60 1221 0 1193 26 b 1253 121 1193 93 1221 121 b 1314 60 1288 121 1314 93 z "},"‰":{"ha":1364,"x_min":0,"x_max":0,"o":"m 389 793 b 218 964 389 886 311 964 b 49 793 128 964 49 888 l 49 599 b 218 429 49 507 126 429 b 389 599 313 429 389 508 z m 242 599 b 218 576 242 585 232 576 b 196 599 206 576 196 585 l 196 793 b 218 817 196 807 206 817 b 242 793 232 817 242 807 z m 231 0 l 921 964 l 739 964 l 47 0 z m 919 364 b 749 535 919 457 842 535 b 579 364 658 535 579 458 l 579 169 b 749 0 579 78 657 0 b 919 169 843 0 919 79 z m 772 169 b 749 147 772 156 763 147 b 726 169 736 147 726 156 l 726 364 b 749 388 726 378 736 388 b 772 364 763 388 772 378 z m 1315 364 b 1144 535 1315 457 1238 535 b 975 364 1054 535 975 458 l 975 169 b 1144 0 975 78 1053 0 b 1315 169 1239 0 1315 79 z m 1168 169 b 1144 147 1168 156 1158 147 b 1122 169 1132 147 1122 156 l 1122 364 b 1144 388 1122 378 1132 388 b 1168 364 1158 388 1168 378 z "},"‹":{"ha":410,"x_min":0,"x_max":0,"o":"m 368 96 l 368 369 l 239 461 l 368 551 l 368 829 l 97 629 b 22 467 53 597 22 553 b 97 299 22 376 53 333 z "},"›":{"ha":410,"x_min":0,"x_max":0,"o":"m 293 299 b 368 467 339 333 368 376 b 293 629 368 553 339 597 l 22 829 l 22 551 l 151 461 l 22 369 l 22 96 z "},"⁄":{"ha":467,"x_min":0,"x_max":0,"o":"m -19 0 l 671 964 l 489 964 l -203 0 z "},"⁰":{"ha":425,"x_min":0,"x_max":0,"o":"m 381 793 b 210 964 381 886 303 964 b 40 793 119 964 40 888 l 40 599 b 210 429 40 507 118 429 b 381 599 304 429 381 508 z m 233 599 b 210 576 233 585 224 576 b 188 599 197 576 188 585 l 188 793 b 210 817 188 807 197 817 b 233 793 224 817 233 807 z "},"⁴":{"ha":465,"x_min":0,"x_max":0,"o":"m 418 429 l 418 964 l 274 964 l 274 429 z m 251 560 l 251 704 l 186 704 l 186 964 l 40 964 l 40 560 z "},"⁵":{"ha":492,"x_min":0,"x_max":0,"o":"m 439 817 l 439 964 l 42 964 l 42 817 z m 307 429 b 446 568 397 429 446 479 l 446 632 b 307 769 446 719 396 769 l 42 769 l 42 624 l 276 624 b 297 597 288 624 297 613 b 276 576 297 582 289 576 l 42 576 l 42 429 z "},"⁶":{"ha":483,"x_min":0,"x_max":0,"o":"m 307 429 b 446 568 397 429 446 479 l 446 650 b 307 789 446 738 397 789 l 221 789 b 188 783 206 789 194 786 l 188 964 l 42 964 l 42 568 b 179 429 42 479 90 429 z m 297 597 b 278 576 297 582 290 576 l 208 576 b 188 597 194 576 188 582 l 188 625 b 208 646 188 639 194 646 l 278 646 b 297 625 290 646 297 639 z "},"⁷":{"ha":404,"x_min":0,"x_max":0,"o":"m 239 429 l 369 874 l 369 964 l 28 964 l 28 817 l 204 817 l 90 429 z "},"⁸":{"ha":492,"x_min":0,"x_max":0,"o":"m 307 429 b 446 568 397 429 446 479 l 446 632 b 414 696 446 656 435 683 b 442 761 429 711 442 736 l 442 825 b 307 964 442 914 397 964 l 179 964 b 44 825 90 964 44 914 l 44 761 b 72 694 44 733 56 710 b 42 632 51 682 42 656 l 42 568 b 179 429 42 479 90 429 z m 276 631 b 299 600 289 631 299 622 b 276 576 299 585 290 576 l 211 576 b 188 600 196 576 188 585 b 211 631 188 622 197 631 z m 276 817 b 299 789 289 817 299 807 b 276 763 299 774 290 763 l 211 763 b 188 789 196 763 188 774 b 211 817 188 807 197 817 z "},"⁹":{"ha":483,"x_min":0,"x_max":0,"o":"m 439 429 l 439 825 b 300 964 439 914 390 964 l 171 964 b 33 825 83 964 33 914 l 33 743 b 171 606 33 654 83 606 l 258 606 b 292 611 275 606 285 608 l 292 429 z m 292 768 b 272 747 292 754 285 747 l 203 747 b 182 768 189 747 182 754 l 182 794 b 203 817 182 810 189 817 l 272 817 b 292 794 285 817 292 810 z "},"₀":{"ha":425,"x_min":0,"x_max":0,"o":"m 381 364 b 210 535 381 457 303 535 b 40 364 119 535 40 458 l 40 169 b 210 0 40 78 118 0 b 381 169 304 0 381 79 z m 233 169 b 210 147 233 156 224 147 b 188 169 197 147 188 156 l 188 364 b 210 388 188 378 197 388 b 233 364 224 388 233 378 z "},"₁":{"ha":282,"x_min":0,"x_max":0,"o":"m 239 0 l 239 396 b 103 535 239 485 190 535 l 29 535 l 29 388 l 71 388 b 94 364 88 388 94 383 l 94 0 z "},"₂":{"ha":492,"x_min":0,"x_max":0,"o":"m 307 194 b 446 332 396 194 446 244 l 446 396 b 307 535 446 485 397 535 l 42 535 l 42 388 l 276 388 b 297 365 289 388 297 381 b 276 340 297 351 288 340 l 42 340 l 42 194 z m 446 0 l 446 147 l 42 147 l 42 0 z "},"₃":{"ha":492,"x_min":0,"x_max":0,"o":"m 307 0 b 446 139 397 0 446 50 l 446 203 b 414 267 446 226 435 254 b 442 332 429 282 442 307 l 442 396 b 307 535 442 485 397 535 l 42 535 l 42 388 l 276 388 b 299 360 289 388 299 378 b 276 333 299 344 290 333 l 43 333 l 43 201 l 276 201 b 299 171 289 201 299 193 b 276 147 299 156 290 147 l 42 147 l 42 0 z "},"₄":{"ha":465,"x_min":0,"x_max":0,"o":"m 418 0 l 418 535 l 274 535 l 274 0 z m 251 131 l 251 275 l 186 275 l 186 535 l 40 535 l 40 131 z "},"₅":{"ha":492,"x_min":0,"x_max":0,"o":"m 439 388 l 439 535 l 42 535 l 42 388 z m 307 0 b 446 139 397 0 446 50 l 446 203 b 307 340 446 290 396 340 l 42 340 l 42 194 l 276 194 b 297 168 288 194 297 183 b 276 147 297 153 289 147 l 42 147 l 42 0 z "},"₆":{"ha":483,"x_min":0,"x_max":0,"o":"m 307 0 b 446 139 397 0 446 50 l 446 221 b 307 360 446 308 397 360 l 221 360 b 188 354 206 360 194 357 l 188 535 l 42 535 l 42 139 b 179 0 42 50 90 0 z m 297 168 b 278 147 297 153 290 147 l 208 147 b 188 168 194 147 188 153 l 188 196 b 208 217 188 210 194 217 l 278 217 b 297 196 290 217 297 210 z "},"₇":{"ha":404,"x_min":0,"x_max":0,"o":"m 239 0 l 369 444 l 369 535 l 28 535 l 28 388 l 204 388 l 90 0 z "},"₈":{"ha":492,"x_min":0,"x_max":0,"o":"m 307 0 b 446 139 397 0 446 50 l 446 203 b 414 267 446 226 435 254 b 442 332 429 282 442 307 l 442 396 b 307 535 442 485 397 535 l 179 535 b 44 396 90 535 44 485 l 44 332 b 72 265 44 304 56 281 b 42 203 51 253 42 226 l 42 139 b 179 0 42 50 90 0 z m 276 201 b 299 171 289 201 299 193 b 276 147 299 156 290 147 l 211 147 b 188 171 196 147 188 156 b 211 201 188 193 197 201 z m 276 388 b 299 360 289 388 299 378 b 276 333 299 344 290 333 l 211 333 b 188 360 196 333 188 344 b 211 388 188 378 197 388 z "},"₉":{"ha":483,"x_min":0,"x_max":0,"o":"m 439 0 l 439 396 b 300 535 439 485 390 535 l 171 535 b 33 396 83 535 33 485 l 33 314 b 171 176 33 225 83 176 l 258 176 b 292 182 275 176 285 179 l 292 0 z m 292 339 b 272 318 292 325 285 318 l 203 318 b 182 339 189 318 182 325 l 182 365 b 203 388 182 381 189 388 l 272 388 b 292 365 285 388 292 381 z "},"€":{"ha":761,"x_min":0,"x_max":0,"o":"m 724 0 l 724 240 l 371 240 b 288 288 294 240 288 247 l 288 328 l 508 328 l 553 432 l 288 432 l 288 522 l 589 522 l 632 626 l 288 626 l 288 638 b 371 722 288 707 303 722 l 672 722 l 728 857 l 728 964 l 288 964 b 47 722 135 964 47 876 l 47 240 b 288 0 47 86 133 0 z "},"℗":{"ha":925,"x_min":0,"x_max":0,"o":"m 496 0 b 879 332 792 0 879 88 l 879 632 b 496 964 879 876 792 964 l 429 964 b 47 632 133 964 47 876 l 47 332 b 429 0 47 88 133 0 z m 736 332 b 496 144 736 185 692 144 l 429 144 b 190 332 233 144 190 185 l 190 632 b 429 821 190 779 233 821 l 496 821 b 736 632 692 821 736 779 z m 463 500 b 407 557 431 500 407 522 b 463 614 407 593 431 614 b 518 557 493 614 518 593 b 463 500 518 522 493 500 z m 407 269 l 407 399 b 463 389 424 392 443 389 b 632 557 556 389 632 460 b 463 725 632 656 553 725 b 293 557 371 725 293 656 l 293 269 z "},"™":{"ha":1169,"x_min":0,"x_max":0,"o":"m 1099 390 l 1099 810 b 944 964 1099 907 1042 964 l 635 964 b 482 810 539 964 482 907 l 482 390 l 635 390 l 635 756 b 690 810 635 800 646 810 l 713 810 l 713 390 l 867 390 l 867 810 b 944 756 942 810 944 801 l 944 390 z m 310 390 l 310 810 l 431 810 l 431 964 l 38 964 l 38 810 l 156 810 l 156 390 z "},"⅓":{"ha":1117,"x_min":0,"x_max":0,"o":"m 297 429 l 297 825 b 161 964 297 914 249 964 l 88 964 l 88 817 l 129 817 b 153 793 146 817 153 813 l 153 429 z m 231 0 l 921 964 l 739 964 l 47 0 z m 931 0 b 1069 139 1021 0 1069 50 l 1069 203 b 1038 267 1069 226 1058 254 b 1065 332 1053 282 1065 307 l 1065 396 b 931 535 1065 485 1021 535 l 665 535 l 665 388 l 900 388 b 922 360 913 388 922 378 b 900 333 922 344 914 333 l 667 333 l 667 201 l 900 201 b 922 171 913 201 922 193 b 900 147 922 156 914 147 l 665 147 l 665 0 z "},"⅔":{"ha":1299,"x_min":0,"x_max":0,"o":"m 313 624 b 451 761 401 624 451 674 l 451 825 b 313 964 451 914 403 964 l 47 964 l 47 817 l 282 817 b 303 794 294 817 303 810 b 282 769 303 781 293 769 l 47 769 l 47 624 z m 451 429 l 451 576 l 47 576 l 47 429 z m 396 0 l 1086 964 l 904 964 l 213 0 z m 1113 0 b 1251 139 1203 0 1251 50 l 1251 203 b 1219 267 1251 226 1240 254 b 1247 332 1235 282 1247 307 l 1247 396 b 1113 535 1247 485 1203 535 l 847 535 l 847 388 l 1082 388 b 1104 360 1094 388 1104 378 b 1082 333 1104 344 1096 333 l 849 333 l 849 201 l 1082 201 b 1104 171 1094 201 1104 193 b 1082 147 1104 156 1096 147 l 847 147 l 847 0 z "},"⅛":{"ha":1065,"x_min":0,"x_max":0,"o":"m 279 429 l 279 825 b 143 964 279 914 231 964 l 69 964 l 69 817 l 111 817 b 135 793 128 817 135 813 l 135 429 z m 231 0 l 921 964 l 739 964 l 47 0 z m 879 0 b 1018 139 969 0 1018 50 l 1018 203 b 986 267 1018 226 1007 254 b 1014 332 1001 282 1014 307 l 1014 396 b 879 535 1014 485 969 535 l 751 535 b 617 396 663 535 617 485 l 617 332 b 644 265 617 304 628 281 b 614 203 624 253 614 226 l 614 139 b 751 0 614 50 663 0 z m 849 201 b 871 171 861 201 871 193 b 849 147 871 156 863 147 l 783 147 b 760 171 768 147 760 156 b 783 201 760 193 769 201 z m 849 388 b 871 360 861 388 871 378 b 849 333 871 344 863 333 l 783 333 b 760 360 768 333 760 344 b 783 388 760 378 769 388 z "},"⅜":{"ha":1194,"x_min":0,"x_max":0,"o":"m 313 429 b 451 568 403 429 451 479 l 451 632 b 419 696 451 656 440 683 b 447 761 435 711 447 736 l 447 825 b 313 964 447 914 403 964 l 47 964 l 47 817 l 282 817 b 304 789 294 817 304 807 b 282 763 304 774 296 763 l 49 763 l 49 631 l 282 631 b 304 600 294 631 304 622 b 282 576 304 585 296 576 l 47 576 l 47 429 z m 344 0 l 1035 964 l 853 964 l 161 0 z m 1008 0 b 1147 139 1099 0 1147 50 l 1147 203 b 1115 267 1147 226 1136 254 b 1143 332 1131 282 1143 307 l 1143 396 b 1008 535 1143 485 1099 535 l 881 535 b 746 396 792 535 746 485 l 746 332 b 774 265 746 304 757 281 b 743 203 753 253 743 226 l 743 139 b 881 0 743 50 792 0 z m 978 201 b 1000 171 990 201 1000 193 b 978 147 1000 156 992 147 l 913 147 b 889 171 897 147 889 156 b 913 201 889 193 899 201 z m 978 388 b 1000 360 990 388 1000 378 b 978 333 1000 344 992 333 l 913 333 b 889 360 897 333 889 344 b 913 388 889 378 899 388 z "},"⅝":{"ha":1201,"x_min":0,"x_max":0,"o":"m 444 817 l 444 964 l 47 964 l 47 817 z m 313 429 b 451 568 403 429 451 479 l 451 632 b 313 769 451 719 401 769 l 47 769 l 47 624 l 282 624 b 303 597 293 624 303 613 b 282 576 303 582 294 576 l 47 576 l 47 429 z m 347 0 l 1038 964 l 856 964 l 164 0 z m 1015 0 b 1154 139 1106 0 1154 50 l 1154 203 b 1122 267 1154 226 1143 254 b 1150 332 1138 282 1150 307 l 1150 396 b 1015 535 1150 485 1106 535 l 888 535 b 753 396 799 535 753 485 l 753 332 b 781 265 753 304 764 281 b 750 203 760 253 750 226 l 750 139 b 888 0 750 50 799 0 z m 985 201 b 1007 171 997 201 1007 193 b 985 147 1007 156 999 147 l 919 147 b 896 171 904 147 896 156 b 919 201 896 193 906 201 z m 985 388 b 1007 360 997 388 1007 378 b 985 333 1007 344 999 333 l 919 333 b 896 360 904 333 896 344 b 919 388 896 378 906 388 z "},"⅞":{"ha":1100,"x_min":0,"x_max":0,"o":"m 257 429 l 388 874 l 388 964 l 46 964 l 46 817 l 222 817 l 108 429 z m 254 0 l 944 964 l 763 964 l 71 0 z m 914 0 b 1053 139 1004 0 1053 50 l 1053 203 b 1021 267 1053 226 1042 254 b 1049 332 1036 282 1049 307 l 1049 396 b 914 535 1049 485 1004 535 l 786 535 b 651 396 697 535 651 485 l 651 332 b 679 265 651 304 663 281 b 649 203 658 253 649 226 l 649 139 b 786 0 649 50 697 0 z m 883 201 b 906 171 896 201 906 193 b 883 147 906 156 897 147 l 818 147 b 794 171 803 147 794 156 b 818 201 794 193 804 201 z m 883 388 b 906 360 896 388 906 378 b 883 333 906 344 897 333 l 818 333 b 794 360 803 333 794 344 b 818 388 794 378 804 388 z "},"∂":{"ha":728,"x_min":0,"x_max":0,"o":"m 276 776 b 343 785 308 782 331 785 b 542 528 469 785 542 704 b 285 642 488 599 413 642 b 28 340 143 642 28 554 b 329 0 28 115 129 0 b 696 579 610 0 696 276 b 364 965 696 851 535 965 b 276 954 340 965 310 963 z m 493 349 b 329 181 469 236 417 181 b 207 325 258 181 207 224 b 338 461 207 407 258 461 b 493 349 428 461 476 418 z "},"∏":{"ha":767,"x_min":0,"x_max":0,"o":"m 719 -240 l 719 964 l 47 964 l 47 -240 l 276 -240 l 276 756 l 490 756 l 490 -240 z "},"∑":{"ha":735,"x_min":0,"x_max":0,"o":"m 699 -242 l 699 -18 l 322 -18 l 547 358 l 322 740 l 699 740 l 699 964 l 33 964 l 33 807 l 308 358 l 33 -86 l 33 -242 z "},"−":{"ha":847,"x_min":0,"x_max":0,"o":"m 769 386 l 769 586 l 78 586 l 78 386 z "},"√":{"ha":839,"x_min":0,"x_max":0,"o":"m 553 0 l 824 964 l 597 964 l 399 219 l 300 553 l 46 553 l 46 376 l 133 376 l 258 0 z "},"∞":{"ha":1126,"x_min":0,"x_max":0,"o":"m 563 349 b 829 185 613 246 694 185 b 1078 476 965 185 1078 283 b 829 772 1078 674 963 772 b 563 604 694 772 618 710 b 297 772 508 710 431 772 b 50 476 161 772 50 674 b 297 185 50 283 161 185 b 563 349 431 185 517 246 z m 500 471 b 326 333 469 396 415 333 b 192 476 233 333 192 383 b 326 617 192 561 239 617 b 500 471 407 617 460 558 z m 626 471 b 801 617 668 558 719 617 b 935 476 890 617 935 561 b 801 333 935 383 892 333 b 626 471 714 333 654 394 z "},"∫":{"ha":553,"x_min":0,"x_max":0,"o":"m 71 -240 b 379 36 275 -240 379 -158 l 379 917 b 482 1029 379 1004 414 1029 l 528 1029 l 528 1190 l 483 1190 b 175 914 279 1190 175 1108 l 175 32 b 72 -79 175 -56 140 -79 l 25 -79 l 25 -240 z "},"≈":{"ha":847,"x_min":0,"x_max":0,"o":"m 769 260 l 769 474 l 581 413 b 565 408 574 410 569 408 b 549 411 560 408 554 410 l 294 485 b 268 492 283 489 275 492 b 232 483 258 492 247 489 l 78 432 l 78 217 l 268 281 b 285 285 275 283 281 285 b 300 282 289 285 294 283 l 554 206 b 581 201 565 203 574 201 b 615 210 592 201 603 204 z m 769 571 l 769 785 l 581 724 b 565 719 574 721 569 719 b 549 722 560 719 554 721 l 294 796 b 268 803 283 800 275 803 b 232 794 258 803 247 800 l 78 743 l 78 528 l 268 592 b 285 596 275 594 281 596 b 300 593 289 596 294 594 l 554 517 b 581 513 565 514 574 513 b 615 521 592 513 603 515 z "},"≠":{"ha":847,"x_min":0,"x_max":0,"o":"m 769 218 l 769 418 l 504 418 l 614 585 l 769 585 l 769 785 l 743 785 l 860 967 l 615 967 l 496 785 l 78 785 l 78 585 l 367 585 l 258 418 l 78 418 l 78 218 l 129 218 l -12 0 l 233 0 l 375 218 z "},"≤":{"ha":847,"x_min":0,"x_max":0,"o":"m 769 43 l 769 267 l 344 467 l 769 665 l 769 889 l 171 599 b 78 467 117 569 78 535 b 171 333 78 396 117 360 z m 769 -201 l 769 0 l 78 0 l 78 -201 z "},"≥":{"ha":847,"x_min":0,"x_max":0,"o":"m 676 333 b 769 467 732 360 769 396 b 676 599 769 535 732 569 l 78 889 l 78 665 l 503 467 l 78 267 l 78 43 z m 769 -201 l 769 0 l 78 0 l 78 -201 z "},"◊":{"ha":771,"x_min":0,"x_max":0,"o":"m 283 51 b 386 -15 304 11 331 -15 b 488 51 438 -15 467 11 l 711 482 l 488 911 b 386 978 467 953 438 978 b 283 911 331 978 304 953 l 60 482 z m 386 175 l 232 482 l 386 788 l 539 482 z "},"":{"ha":1635,"x_min":0,"x_max":0,"o":"m 1588 361 l 1588 964 l 1346 964 l 1346 603 l 1106 603 l 1106 722 b 864 964 1106 876 1018 964 l 288 964 b 47 722 135 964 47 876 l 47 240 b 288 0 47 86 133 0 l 769 0 l 769 240 l 371 240 b 288 288 294 240 288 247 l 288 638 b 371 722 288 707 303 722 l 781 722 b 864 603 853 722 864 718 l 864 0 l 1106 0 l 1106 361 z m 1588 0 l 1588 240 l 1346 240 l 1346 0 z "},"":{"ha":1438,"x_min":0,"x_max":0,"o":"m 1164 0 b 1404 240 1318 0 1404 86 l 1404 361 b 1164 603 1404 514 1317 603 l 1081 603 l 1081 361 l 1104 361 b 1163 297 1138 361 1163 332 b 1104 240 1163 260 1142 240 l 371 240 b 288 288 294 240 288 247 l 288 638 b 371 722 288 707 303 722 l 628 722 l 628 964 l 288 964 b 47 722 135 964 47 876 l 47 240 b 288 0 47 86 133 0 z m 1404 722 l 1404 964 l 922 964 b 682 722 768 964 682 878 l 682 603 b 922 361 682 449 771 361 l 1008 361 l 1008 603 l 983 603 b 925 667 950 603 925 632 b 983 722 925 704 946 722 z "},"":{"ha":1543,"x_min":0,"x_max":0,"o":"m 1256 0 b 1497 240 1408 0 1497 88 l 1497 964 l 1256 964 l 1256 325 b 1172 240 1256 257 1240 240 l 1100 240 b 1015 325 1031 240 1015 257 l 1015 722 b 774 964 1015 878 928 964 l 288 964 b 47 722 135 964 47 876 l 47 240 b 288 0 47 86 133 0 l 653 0 l 653 240 l 371 240 b 288 288 294 240 288 247 l 288 638 b 371 722 288 707 303 722 l 710 722 b 774 676 767 721 774 711 l 774 240 b 1015 0 774 88 863 0 z "},"":{"ha":1754,"x_min":0,"x_max":0,"o":"m 1467 0 b 1708 240 1619 0 1708 88 l 1708 964 l 1467 964 l 1467 319 b 1397 240 1467 260 1454 240 l 1346 240 l 1346 964 l 1106 964 l 1106 240 l 1058 240 b 985 319 1001 240 985 257 l 985 722 b 744 964 985 878 901 964 l 288 964 b 47 722 135 964 47 876 l 47 240 b 288 0 47 86 133 0 l 622 0 l 622 240 l 371 240 b 288 288 294 240 288 247 l 288 638 b 371 722 288 707 303 722 l 692 722 b 744 676 739 722 744 715 l 744 240 b 985 0 744 88 833 0 z "},"":{"ha":1489,"x_min":0,"x_max":0,"o":"m 1219 361 b 1460 603 1372 361 1460 450 l 1460 964 l 1219 964 l 1219 686 b 1135 603 1219 618 1203 603 l 1025 603 b 978 686 983 603 978 610 l 978 722 b 738 964 978 876 890 964 l 288 964 b 47 722 135 964 47 876 l 47 240 b 288 0 47 86 133 0 l 713 0 l 713 240 l 371 240 b 288 288 294 240 288 247 l 288 638 b 371 722 288 707 303 722 l 653 722 b 738 638 721 722 738 707 l 738 603 b 978 361 738 447 824 361 z m 1219 0 l 1219 240 l 978 240 l 978 0 z "},"":{"ha":1633,"x_min":0,"x_max":0,"o":"m 1344 0 b 1586 240 1500 0 1586 86 l 1586 361 b 1515 481 1586 411 1558 460 b 1581 603 1551 503 1581 547 l 1581 722 b 1344 964 1581 876 1499 964 l 863 964 l 863 722 l 1286 722 b 1343 653 1319 722 1343 697 b 1286 592 1343 615 1324 592 l 865 592 l 865 372 l 1286 372 b 1343 303 1319 372 1343 353 b 1286 240 1343 265 1324 240 l 347 240 b 289 303 308 240 289 265 b 347 372 289 353 314 372 l 767 372 l 767 592 l 347 592 b 289 653 308 592 289 615 b 347 722 289 697 314 722 l 769 722 l 769 964 l 288 964 b 53 722 135 964 53 876 l 53 603 b 118 481 53 547 81 503 b 47 361 74 460 47 411 l 47 240 b 288 0 47 86 133 0 z "},"":{"ha":1628,"x_min":0,"x_max":0,"o":"m 1342 0 b 1583 240 1497 0 1583 86 l 1583 722 b 1342 964 1583 876 1496 964 l 860 964 l 860 361 l 1101 361 l 1101 722 l 1258 722 b 1343 638 1326 722 1342 707 l 1343 288 b 1258 240 1343 249 1336 240 l 347 240 b 289 303 308 240 289 265 b 347 372 289 353 314 372 l 767 372 l 767 592 l 347 592 b 289 653 308 592 289 615 b 347 722 289 697 314 722 l 769 722 l 769 964 l 288 964 b 53 722 135 964 53 876 l 53 603 b 118 481 53 547 81 503 b 47 361 74 460 47 411 l 47 240 b 288 0 47 86 133 0 z "},"":{"ha":1882,"x_min":0,"x_max":0,"o":"m 1835 0 l 1835 722 b 1594 964 1835 876 1747 964 l 1113 964 b 872 722 961 964 872 876 l 872 288 b 819 240 872 249 865 240 l 347 240 b 289 303 308 240 289 265 b 347 372 289 353 314 372 l 767 372 l 767 592 l 347 592 b 289 653 308 592 289 615 b 347 722 289 697 314 722 l 769 722 l 769 964 l 288 964 b 53 722 135 964 53 876 l 53 603 b 118 481 53 547 81 503 b 47 361 74 460 47 411 l 47 240 b 288 0 47 86 133 0 l 872 0 b 1113 240 1029 0 1113 86 l 1113 644 b 1186 722 1113 707 1129 722 l 1233 722 l 1233 0 l 1474 0 l 1474 722 l 1525 722 b 1594 644 1582 722 1594 704 l 1594 0 z "},"":{"ha":2940,"x_min":0,"x_max":0,"o":"m 2894 0 l 2894 722 b 2653 964 2894 876 2806 964 l 2171 964 b 1931 722 2019 964 1931 876 l 1931 429 b 1896 383 1931 393 1925 383 l 1869 383 b 1836 429 1843 383 1836 394 l 1836 722 b 1596 964 1836 876 1749 964 l 1113 964 b 872 722 961 964 872 876 l 872 288 b 819 240 872 249 865 240 l 347 240 b 289 303 308 240 289 265 b 347 372 289 353 314 372 l 767 372 l 767 592 l 347 592 b 289 653 308 592 289 615 b 347 722 289 697 314 722 l 769 722 l 769 964 l 288 964 b 53 722 135 964 53 876 l 53 603 b 118 481 53 547 81 503 b 47 361 74 460 47 411 l 47 240 b 288 0 47 86 133 0 l 872 0 b 1113 240 1029 0 1113 86 l 1113 644 b 1186 722 1113 707 1129 722 l 1233 722 l 1233 0 l 1475 0 l 1475 722 l 1526 722 b 1596 644 1583 722 1596 704 l 1596 383 b 1836 142 1596 228 1682 142 l 1931 142 b 2171 383 2088 142 2171 228 l 2171 644 b 2244 722 2171 707 2188 722 l 2292 722 l 2292 0 l 2532 0 l 2532 722 l 2583 722 b 2653 644 2640 722 2653 704 l 2653 0 z "},"":{"ha":2667,"x_min":0,"x_max":0,"o":"m 1918 0 b 2158 240 2072 0 2158 86 l 2158 276 b 2279 256 2197 263 2238 256 b 2640 617 2478 256 2640 406 b 2279 978 2640 828 2474 978 b 1918 617 2082 978 1918 828 l 1918 281 b 1888 240 1918 254 1910 240 l 1858 240 b 1824 281 1829 240 1824 254 l 1824 722 b 1583 964 1824 876 1736 964 l 1101 964 b 860 722 950 964 860 876 l 860 288 b 808 240 860 249 854 240 l 347 240 b 289 303 308 240 289 265 b 347 372 289 353 314 372 l 767 372 l 767 592 l 347 592 b 289 653 308 592 289 615 b 347 722 289 697 314 722 l 769 722 l 769 964 l 288 964 b 53 722 135 964 53 876 l 53 603 b 118 481 53 547 81 503 b 47 361 74 460 47 411 l 47 240 b 288 0 47 86 133 0 l 860 0 b 1101 240 1018 0 1101 86 l 1101 644 b 1175 722 1101 707 1118 722 l 1222 722 l 1222 0 l 1463 0 l 1463 722 l 1514 722 b 1583 644 1571 722 1583 704 l 1583 240 b 1824 0 1583 86 1669 0 z m 2400 617 b 2279 496 2400 542 2346 496 b 2158 617 2211 496 2158 542 b 2279 738 2158 692 2211 738 b 2400 617 2346 738 2400 692 z "},"":{"ha":2672,"x_min":0,"x_max":0,"o":"m 2400 0 b 2640 240 2554 0 2640 86 l 2640 361 b 2400 603 2640 514 2553 603 l 2315 603 l 2315 361 l 2340 361 b 2399 297 2374 361 2399 332 b 2340 240 2399 260 2378 240 l 1868 240 b 1824 288 1831 240 1824 249 l 1824 722 b 1583 964 1824 876 1736 964 l 1101 964 b 860 722 950 964 860 876 l 860 288 b 808 240 860 249 854 240 l 347 240 b 289 303 308 240 289 265 b 347 372 289 353 314 372 l 767 372 l 767 592 l 347 592 b 289 653 308 592 289 615 b 347 722 289 697 314 722 l 769 722 l 769 964 l 288 964 b 53 722 135 964 53 876 l 53 603 b 118 481 53 547 81 503 b 47 361 74 460 47 411 l 47 240 b 288 0 47 86 133 0 l 860 0 b 1101 240 1018 0 1101 86 l 1101 644 b 1175 722 1101 707 1118 722 l 1222 722 l 1222 0 l 1463 0 l 1463 722 l 1514 722 b 1583 644 1571 722 1583 704 l 1583 240 b 1824 0 1583 86 1669 0 z m 2640 722 l 2640 964 l 2158 964 b 1918 722 2004 964 1918 878 l 1918 603 b 2158 361 1918 449 2007 361 l 2243 361 l 2243 603 l 2219 603 b 2161 667 2185 603 2161 632 b 2219 722 2161 704 2181 722 z "},"":{"ha":1626,"x_min":0,"x_max":0,"o":"m 1581 0 l 1581 722 b 1339 964 1581 876 1492 964 l 288 964 b 53 722 135 964 53 876 l 53 603 b 118 481 53 547 81 503 b 47 361 74 460 47 411 l 47 240 b 288 0 47 86 133 0 l 756 0 l 756 240 l 347 240 b 289 303 308 240 289 265 b 347 372 289 353 314 372 l 753 372 l 753 592 l 347 592 b 289 653 308 592 289 615 b 347 722 289 697 314 722 l 850 722 l 850 0 l 1092 0 l 1092 722 l 1260 722 b 1339 638 1319 722 1339 700 l 1339 0 z "},"":{"ha":2443,"x_min":0,"x_max":0,"o":"m 2156 0 b 2396 240 2310 0 2396 86 l 2396 722 b 2156 964 2396 876 2308 964 l 1674 964 l 1674 361 l 1915 361 l 1915 722 l 2072 722 b 2156 638 2140 722 2156 707 l 2156 288 b 2089 240 2156 251 2150 240 l 1665 240 b 1581 288 1588 240 1581 249 l 1581 722 b 1339 964 1581 876 1492 964 l 288 964 b 53 722 135 964 53 876 l 53 603 b 118 481 53 547 81 503 b 47 361 74 460 47 411 l 47 240 b 288 0 47 86 133 0 l 756 0 l 756 240 l 347 240 b 289 303 308 240 289 265 b 347 372 289 353 314 372 l 753 372 l 753 592 l 347 592 b 289 653 308 592 289 615 b 347 722 289 697 314 722 l 850 722 l 850 0 l 1092 0 l 1092 722 l 1260 722 b 1339 638 1319 722 1339 700 l 1339 240 b 1581 0 1339 86 1426 0 z "},"":{"ha":1625,"x_min":0,"x_max":0,"o":"m 876 0 b 1117 240 1031 0 1117 86 l 1117 276 b 1238 256 1156 263 1196 256 b 1599 617 1436 256 1599 406 b 1238 978 1599 828 1432 978 b 876 617 1040 978 876 828 l 876 301 b 790 240 876 263 869 240 l 347 240 b 289 303 308 240 289 265 b 347 372 289 353 314 372 l 767 372 l 767 592 l 347 592 b 289 653 308 592 289 615 b 347 722 289 697 314 722 l 769 722 l 769 964 l 288 964 b 53 722 135 964 53 876 l 53 603 b 118 481 53 547 81 503 b 47 361 74 460 47 411 l 47 240 b 288 0 47 86 133 0 z m 1358 617 b 1238 496 1358 542 1304 496 b 1117 617 1169 496 1117 542 b 1238 738 1117 692 1169 738 b 1358 617 1304 738 1358 692 z "},"":{"ha":1635,"x_min":0,"x_max":0,"o":"m 1588 361 l 1588 964 l 1346 964 l 1346 603 l 1106 603 l 1106 722 b 864 964 1106 876 1018 964 l 275 964 b 33 722 121 964 33 878 l 33 603 b 275 361 33 450 122 361 l 275 0 l 515 0 l 515 361 l 757 361 l 757 603 l 335 603 b 276 667 300 603 276 632 b 335 722 276 704 296 722 l 781 722 b 864 603 853 722 864 718 l 864 0 l 1106 0 l 1106 361 z m 1588 0 l 1588 240 l 1346 240 l 1346 0 z "},"":{"ha":1626,"x_min":0,"x_max":0,"o":"m 1581 0 l 1581 722 b 1339 964 1581 876 1492 964 l 275 964 b 33 722 121 964 33 878 l 33 603 b 275 361 33 450 122 361 l 275 0 l 515 0 l 515 361 l 757 361 l 757 603 l 335 603 b 276 667 300 603 276 632 b 335 722 276 704 296 722 l 850 722 l 850 0 l 1092 0 l 1092 722 l 1260 722 b 1339 638 1319 722 1339 700 l 1339 0 z "},"":{"ha":1594,"x_min":0,"x_max":0,"o":"m 1307 0 b 1547 240 1460 0 1547 88 l 1547 964 l 1307 964 l 1307 325 b 1224 240 1307 257 1292 240 l 1151 240 b 1065 325 1082 240 1065 257 l 1065 722 b 825 964 1065 878 979 964 l 275 964 b 33 722 121 964 33 878 l 33 603 b 275 361 33 450 122 361 l 275 0 l 515 0 l 515 361 l 757 361 l 757 603 l 335 603 b 276 667 300 603 276 632 b 335 722 276 704 296 722 l 757 722 b 825 676 817 721 825 713 l 825 240 b 1065 0 825 88 914 0 z "},"":{"ha":1582,"x_min":0,"x_max":0,"o":"m 1311 361 b 1551 603 1464 361 1551 450 l 1551 964 l 1311 964 l 1311 686 b 1228 603 1311 618 1296 603 l 1117 603 b 1069 686 1075 603 1069 610 l 1069 722 b 829 964 1069 876 982 964 l 275 964 b 33 722 121 964 33 878 l 33 603 b 275 361 33 450 122 361 l 275 0 l 515 0 l 515 361 l 757 361 l 757 603 l 335 603 b 276 667 300 603 276 632 b 335 722 276 704 296 722 l 757 722 b 829 638 815 719 829 703 l 829 603 b 1069 361 829 447 915 361 z m 1311 0 l 1311 240 l 1069 240 l 1069 0 z "},"":{"ha":1633,"x_min":0,"x_max":0,"o":"m 1344 0 b 1586 240 1500 0 1586 86 l 1586 361 b 1515 481 1586 411 1558 460 b 1581 603 1551 503 1581 547 l 1581 722 b 1344 964 1581 876 1499 964 l 288 964 b 47 722 135 964 47 876 l 47 240 b 288 0 47 86 131 0 l 769 0 l 769 603 l 529 603 l 529 240 l 371 240 b 286 288 293 240 286 249 l 286 638 b 371 722 288 707 303 722 l 1286 722 b 1343 653 1319 722 1343 697 b 1286 592 1343 615 1324 592 l 865 592 l 865 372 l 1286 372 b 1343 303 1319 372 1343 353 b 1286 240 1343 265 1324 240 l 863 240 l 863 0 z "},"":{"ha":1633,"x_min":0,"x_max":0,"o":"m 1586 361 l 1586 964 l 1344 964 l 1344 603 l 1104 603 l 1104 722 b 863 964 1104 876 1017 964 l 288 964 b 47 722 135 964 47 876 l 47 240 b 288 0 47 86 131 0 l 769 0 l 769 603 l 529 603 l 529 240 l 371 240 b 286 288 293 240 286 249 l 286 638 b 371 722 288 707 303 722 l 779 722 b 863 603 851 722 863 718 l 863 0 l 1104 0 l 1104 361 z m 1586 0 l 1586 240 l 1344 240 l 1344 0 z "},"":{"ha":1640,"x_min":0,"x_max":0,"o":"m 1593 0 l 1593 722 b 1351 964 1593 876 1506 964 l 288 964 b 47 722 135 964 47 876 l 47 240 b 288 0 47 86 131 0 l 769 0 l 769 603 l 529 603 l 529 240 l 371 240 b 286 288 293 240 286 249 l 286 638 b 371 722 288 707 303 722 l 863 722 l 863 0 l 1104 0 l 1104 722 l 1272 722 b 1351 638 1332 722 1351 700 l 1351 0 z "},"":{"ha":1618,"x_min":0,"x_max":0,"o":"m 1331 0 b 1572 240 1483 0 1572 88 l 1572 964 l 1331 964 l 1331 325 b 1247 240 1331 257 1315 240 l 1175 240 b 1090 325 1106 240 1090 257 l 1090 722 b 849 964 1090 878 1003 964 l 288 964 b 47 722 135 964 47 876 l 47 240 b 288 0 47 86 131 0 l 769 0 l 769 603 l 529 603 l 529 240 l 371 240 b 286 288 293 240 286 249 l 286 638 b 371 722 288 707 303 722 l 765 722 b 849 676 840 722 849 715 l 849 240 b 1090 0 849 88 939 0 z "},"":{"ha":1874,"x_min":0,"x_max":0,"o":"m 1586 0 b 1826 240 1739 0 1826 88 l 1826 964 l 1586 964 l 1586 319 b 1517 240 1586 260 1574 240 l 1465 240 l 1465 964 l 1225 964 l 1225 240 l 1178 240 b 1104 319 1121 240 1104 257 l 1104 722 b 863 964 1104 878 1021 964 l 288 964 b 47 722 135 964 47 876 l 47 240 b 288 0 47 86 131 0 l 769 0 l 769 603 l 529 603 l 529 240 l 371 240 b 286 288 293 240 286 249 l 286 638 b 371 722 288 707 303 722 l 811 722 b 863 676 857 722 863 715 l 863 240 b 1104 0 863 88 953 0 z "},"":{"ha":1628,"x_min":0,"x_max":0,"o":"m 1358 361 b 1599 603 1511 361 1599 450 l 1599 964 l 1358 964 l 1358 686 b 1274 603 1358 618 1342 603 l 1164 603 b 1117 686 1122 603 1117 610 l 1117 722 b 876 964 1117 876 1029 964 l 288 964 b 47 722 135 964 47 876 l 47 240 b 288 0 47 86 131 0 l 769 0 l 769 603 l 529 603 l 529 240 l 371 240 b 286 288 293 240 286 249 l 286 638 b 371 722 288 707 303 722 l 792 722 b 876 638 860 722 876 707 l 876 603 b 1117 361 876 447 963 361 z m 1358 0 l 1358 240 l 1117 240 l 1117 0 z "},"":{"ha":904,"x_min":0,"x_max":0,"o":"m 875 361 l 875 603 l 633 603 l 633 964 l 393 964 l 393 361 z m 875 0 l 875 240 l 272 240 l 272 964 l 31 964 l 31 0 z "},"":{"ha":1636,"x_min":0,"x_max":0,"o":"m 1347 0 b 1589 240 1503 0 1589 86 l 1589 361 b 1518 481 1589 411 1561 460 b 1583 603 1554 503 1583 547 l 1583 722 b 1347 964 1583 876 1501 964 l 865 964 l 865 722 l 1289 722 b 1346 653 1322 722 1346 697 b 1289 592 1346 615 1326 592 l 869 592 l 869 372 l 1289 372 b 1346 303 1322 372 1346 353 b 1289 240 1346 265 1326 240 l 858 240 b 774 288 781 240 774 249 l 774 722 b 533 964 774 876 686 964 l 44 964 l 44 0 l 285 0 l 285 722 l 471 722 b 533 650 518 722 533 706 l 533 240 b 774 0 533 86 619 0 z "},"":{"ha":1640,"x_min":0,"x_max":0,"o":"m 1351 0 b 1593 240 1507 0 1593 86 l 1593 722 b 1351 964 1593 876 1506 964 l 871 964 l 871 361 l 1111 361 l 1111 722 l 1268 722 b 1351 638 1336 722 1351 707 l 1351 288 b 1286 240 1351 251 1346 240 l 861 240 b 776 288 783 240 776 249 l 776 722 b 536 964 776 876 689 964 l 47 964 l 47 0 l 288 0 l 288 722 l 474 722 b 536 650 522 722 536 706 l 536 240 b 776 0 536 86 622 0 z "},"":{"ha":1881,"x_min":0,"x_max":0,"o":"m 1833 0 l 1833 722 b 1593 964 1833 876 1746 964 l 1111 964 b 871 722 960 964 871 876 l 871 429 b 833 383 871 394 865 383 l 813 383 b 776 429 781 383 776 401 l 776 722 b 536 964 776 876 689 964 l 47 964 l 47 0 l 288 0 l 288 722 l 474 722 b 536 650 522 722 536 706 l 536 383 b 750 142 536 236 613 142 l 897 142 b 1111 383 1038 142 1111 236 l 1111 644 b 1185 722 1111 707 1128 722 l 1232 722 l 1232 0 l 1472 0 l 1472 722 l 1524 722 b 1593 644 1581 722 1593 704 l 1593 0 z "},"":{"ha":1642,"x_min":0,"x_max":0,"o":"m 897 0 b 1113 240 1035 0 1113 94 l 1113 276 b 1233 256 1151 263 1192 256 b 1594 617 1432 256 1594 406 b 1233 978 1594 828 1428 978 b 872 617 1036 978 872 828 l 872 301 b 831 242 872 272 865 242 l 817 242 b 776 288 781 242 776 258 l 776 722 b 536 964 776 876 689 964 l 47 964 l 47 0 l 288 0 l 288 722 l 474 722 b 536 650 522 722 536 706 l 536 240 b 776 0 536 86 622 0 z m 1233 496 b 1113 617 1165 496 1113 542 b 1233 738 1113 692 1165 738 b 1353 617 1300 738 1353 692 b 1233 496 1353 542 1300 496 z "},"":{"ha":1874,"x_min":0,"x_max":0,"o":"m 1586 0 b 1826 240 1740 0 1826 86 l 1826 722 b 1586 964 1826 876 1739 964 l 1104 964 l 1104 361 l 1344 361 l 1344 722 l 1503 722 b 1586 638 1571 722 1586 707 l 1586 288 b 1519 240 1586 251 1581 240 l 1054 240 b 1011 288 1018 240 1011 249 l 1011 722 b 769 964 1011 876 922 964 l 288 964 b 47 722 136 964 47 876 l 47 0 l 288 0 l 288 644 b 361 722 288 707 304 722 l 408 722 l 408 0 l 649 0 l 649 722 l 700 722 b 769 644 757 722 769 704 l 769 240 b 1011 0 769 86 856 0 z "},"":{"ha":2114,"x_min":0,"x_max":0,"o":"m 2068 0 l 2068 722 b 1826 964 2068 876 1979 964 l 1344 964 b 1104 722 1193 964 1104 876 l 1104 429 b 1064 383 1104 396 1099 383 l 1044 383 b 1011 429 1017 383 1011 396 l 1011 722 b 769 964 1011 876 922 964 l 288 964 b 47 722 136 964 47 876 l 47 0 l 288 0 l 288 644 b 361 722 288 707 304 722 l 408 722 l 408 0 l 649 0 l 649 722 l 700 722 b 769 644 757 722 769 704 l 769 383 b 1011 142 769 228 856 142 l 1104 142 b 1344 383 1261 142 1344 228 l 1344 644 b 1418 722 1344 707 1363 722 l 1465 722 l 1465 0 l 1707 0 l 1707 722 l 1757 722 b 1826 644 1814 722 1826 704 l 1826 0 z "},"":{"ha":2917,"x_min":0,"x_max":0,"o":"m 2643 0 b 2885 240 2797 0 2885 86 l 2885 361 b 2643 603 2885 514 2796 603 l 2560 603 l 2560 361 l 2583 361 b 2642 297 2618 361 2642 332 b 2583 240 2642 260 2622 240 l 2111 240 b 2068 288 2075 240 2068 249 l 2068 722 b 1826 964 2068 876 1979 964 l 1344 964 b 1104 722 1193 964 1104 876 l 1104 429 b 1064 383 1104 396 1099 383 l 1044 383 b 1011 429 1017 383 1011 396 l 1011 722 b 769 964 1011 876 922 964 l 288 964 b 47 722 136 964 47 876 l 47 0 l 288 0 l 288 644 b 361 722 288 707 304 722 l 408 722 l 408 0 l 649 0 l 649 722 l 700 722 b 769 644 757 722 769 704 l 769 383 b 1011 142 769 228 856 142 l 1104 142 b 1344 383 1261 142 1344 228 l 1344 644 b 1418 722 1344 707 1363 722 l 1465 722 l 1465 0 l 1707 0 l 1707 722 l 1757 722 b 1826 644 1814 722 1826 704 l 1826 240 b 2068 0 1826 86 1914 0 z m 2885 722 l 2885 964 l 2403 964 b 2161 722 2247 964 2161 878 l 2161 603 b 2403 361 2161 449 2250 361 l 2488 361 l 2488 603 l 2463 603 b 2406 667 2429 603 2406 632 b 2463 722 2406 704 2425 722 z "},"":{"ha":1856,"x_min":0,"x_max":0,"o":"m 1131 0 b 1346 240 1268 10 1346 94 l 1346 276 b 1467 256 1385 263 1426 256 b 1828 617 1665 256 1828 406 b 1467 978 1828 828 1661 978 b 1106 617 1269 978 1106 828 l 1106 288 b 1072 240 1106 254 1097 240 l 1039 240 b 1011 288 1017 240 1011 254 l 1011 722 b 769 964 1011 876 922 964 l 288 964 b 47 722 136 964 47 876 l 47 0 l 288 0 l 288 644 b 361 722 288 707 304 722 l 408 722 l 408 0 l 649 0 l 649 722 l 700 722 b 769 644 757 722 769 704 l 769 240 b 1011 0 769 86 856 0 z m 1588 617 b 1467 496 1588 542 1533 496 b 1346 617 1399 496 1346 542 b 1467 738 1346 692 1399 738 b 1588 617 1533 738 1588 692 z "},"":{"ha":1933,"x_min":0,"x_max":0,"o":"m 1660 0 b 1900 240 1814 0 1900 86 l 1900 361 b 1660 603 1900 514 1813 603 l 1576 603 l 1576 361 l 1600 361 b 1658 297 1635 361 1658 332 b 1600 240 1658 260 1639 240 l 1128 240 b 1085 288 1092 240 1085 249 l 1085 722 b 843 964 1085 876 996 964 l 361 964 b 121 722 210 964 121 876 l 121 0 l 361 0 l 361 644 b 435 722 361 707 378 722 l 482 722 l 482 0 l 722 0 l 722 722 l 774 722 b 843 644 831 722 843 704 l 843 240 b 1085 0 843 86 929 0 z m 1900 722 l 1900 964 l 1418 964 b 1178 722 1264 964 1178 878 l 1178 603 b 1418 361 1178 449 1267 361 l 1504 361 l 1504 603 l 1479 603 b 1421 667 1446 603 1421 632 b 1479 722 1421 704 1442 722 z "},"":{"ha":1604,"x_min":0,"x_max":0,"o":"m 1317 0 b 1557 240 1471 0 1557 86 l 1557 361 b 1486 481 1557 411 1531 460 b 1551 603 1524 503 1551 547 l 1551 722 b 1317 964 1551 876 1469 964 l 274 964 b 32 722 119 964 32 878 l 32 603 b 274 361 32 449 122 361 l 358 361 l 358 603 l 335 603 b 276 667 300 603 276 632 b 335 722 276 704 296 722 l 1257 722 b 1315 653 1292 722 1315 697 b 1257 592 1315 615 1296 592 l 838 592 l 838 372 l 1257 372 b 1315 303 1292 372 1315 353 b 1257 240 1315 265 1296 240 l 835 240 l 835 0 z m 514 0 b 756 240 669 0 756 86 l 756 361 b 514 603 756 514 668 603 l 431 603 l 431 361 l 456 361 b 513 297 489 361 513 332 b 456 240 513 260 493 240 l 32 240 l 32 0 z "},"":{"ha":1618,"x_min":0,"x_max":0,"o":"m 1572 361 l 1572 964 l 1331 964 l 1331 603 l 1090 603 l 1090 722 b 849 964 1090 876 1001 964 l 274 964 b 32 722 119 964 32 878 l 32 603 b 274 361 32 449 122 361 l 358 361 l 358 603 l 335 603 b 276 667 300 603 276 632 b 335 722 276 704 296 722 l 765 722 b 849 603 838 722 849 718 l 849 0 l 1090 0 l 1090 361 z m 514 0 b 756 240 669 0 756 86 l 756 361 b 514 603 756 514 668 603 l 431 603 l 431 361 l 456 361 b 513 297 489 361 513 332 b 456 240 513 260 493 240 l 32 240 l 32 0 z m 1572 0 l 1572 240 l 1331 240 l 1331 0 z "},"":{"ha":1625,"x_min":0,"x_max":0,"o":"m 1579 0 l 1579 722 b 1338 964 1579 876 1490 964 l 274 964 b 32 722 119 964 32 878 l 32 603 b 274 361 32 449 122 361 l 358 361 l 358 603 l 335 603 b 276 667 300 603 276 632 b 335 722 276 704 296 722 l 849 722 l 849 0 l 1090 0 l 1090 722 l 1275 722 b 1338 650 1324 722 1338 706 l 1338 0 z m 514 0 b 756 240 669 0 756 86 l 756 361 b 514 603 756 514 668 603 l 431 603 l 431 361 l 456 361 b 513 297 489 361 513 332 b 456 240 513 260 493 240 l 32 240 l 32 0 z "},"":{"ha":1618,"x_min":0,"x_max":0,"o":"m 1331 0 b 1572 240 1483 0 1572 88 l 1572 964 l 1331 964 l 1331 325 b 1247 240 1331 257 1315 240 l 1175 240 b 1090 325 1106 240 1090 257 l 1090 722 b 849 964 1090 878 1003 964 l 274 964 b 32 722 119 964 32 878 l 32 603 b 274 361 32 449 122 361 l 358 361 l 358 603 l 335 603 b 276 667 300 603 276 632 b 335 722 276 704 296 722 l 765 722 b 849 676 840 722 849 715 l 849 240 b 1090 0 849 88 939 0 z m 514 0 b 756 240 669 0 756 86 l 756 361 b 514 603 756 514 668 603 l 431 603 l 431 361 l 456 361 b 513 297 489 361 513 332 b 456 240 513 260 493 240 l 32 240 l 32 0 z "},"":{"ha":1860,"x_min":0,"x_max":0,"o":"m 1572 0 b 1813 240 1725 0 1813 88 l 1813 964 l 1572 964 l 1572 319 b 1503 240 1572 260 1558 240 l 1451 240 l 1451 964 l 1210 964 l 1210 240 l 1164 240 b 1090 319 1107 240 1090 257 l 1090 722 b 849 964 1090 878 1006 964 l 274 964 b 32 722 119 964 32 878 l 32 603 b 274 361 32 449 122 361 l 358 361 l 358 603 l 335 603 b 276 667 300 603 276 632 b 335 722 276 704 296 722 l 796 722 b 849 676 843 722 849 715 l 849 240 b 1090 0 849 88 939 0 z m 514 0 b 756 240 669 0 756 86 l 756 361 b 514 603 756 514 668 603 l 431 603 l 431 361 l 456 361 b 513 297 489 361 513 332 b 456 240 513 260 493 240 l 32 240 l 32 0 z "},"":{"ha":2676,"x_min":0,"x_max":0,"o":"m 2388 0 b 2629 240 2542 0 2629 88 l 2629 964 l 2388 964 l 2388 325 b 2304 240 2388 257 2372 240 l 2232 240 b 2147 325 2163 240 2147 257 l 2147 581 b 1906 822 2147 736 2061 822 l 1813 822 b 1572 581 1658 822 1572 736 l 1572 319 b 1503 240 1572 260 1558 240 l 1451 240 l 1451 964 l 1210 964 l 1210 240 l 1164 240 b 1090 319 1107 240 1090 257 l 1090 722 b 849 964 1090 878 1006 964 l 274 964 b 32 722 119 964 32 878 l 32 603 b 274 361 32 449 122 361 l 358 361 l 358 603 l 335 603 b 276 667 300 603 276 632 b 335 722 276 704 296 722 l 796 722 b 849 676 843 722 849 715 l 849 240 b 1090 0 849 88 939 0 l 1572 0 b 1813 240 1725 0 1813 88 l 1813 535 b 1846 581 1813 567 1818 581 l 1874 581 b 1906 535 1900 581 1906 567 l 1906 240 b 2147 0 1906 88 1996 0 z m 514 0 b 756 240 669 0 756 86 l 756 361 b 514 603 756 514 668 603 l 431 603 l 431 361 l 456 361 b 513 297 489 361 513 332 b 456 240 513 260 493 240 l 32 240 l 32 0 z "},"":{"ha":1568,"x_min":0,"x_max":0,"o":"m 1297 361 b 1538 603 1450 361 1538 450 l 1538 964 l 1297 964 l 1297 686 b 1213 603 1297 618 1281 603 l 1103 603 b 1056 686 1061 603 1056 610 l 1056 722 b 815 964 1056 876 968 964 l 274 964 b 32 722 119 964 32 878 l 32 603 b 274 361 32 449 122 361 l 358 361 l 358 603 l 335 603 b 276 667 300 603 276 632 b 335 722 276 704 296 722 l 732 722 b 815 638 800 722 815 707 l 815 603 b 1056 361 815 447 901 361 z m 514 0 b 756 240 669 0 756 86 l 756 361 b 514 603 756 514 668 603 l 431 603 l 431 361 l 456 361 b 513 297 489 361 513 332 b 456 240 513 260 493 240 l 32 240 l 32 0 z m 1297 0 l 1297 240 l 1056 240 l 1056 0 z "},"":{"ha":993,"x_min":0,"x_max":0,"o":"m 797 0 l 797 722 l 947 722 l 947 964 l 557 964 l 557 0 z m 436 0 l 436 964 l 47 964 l 47 722 l 196 722 l 196 0 z "},"":{"ha":1874,"x_min":0,"x_max":0,"o":"m 1586 0 b 1826 240 1739 0 1826 88 l 1826 964 l 1586 964 l 1586 325 b 1503 240 1586 257 1571 240 l 1431 240 b 1344 325 1361 240 1344 257 l 1344 581 b 1104 822 1344 736 1258 822 l 1011 822 b 769 581 856 822 769 736 l 769 319 b 700 240 769 260 757 240 l 649 240 l 649 964 l 408 964 l 408 240 l 361 240 b 288 319 304 240 288 257 l 288 964 l 47 964 l 47 240 b 288 0 47 88 136 0 l 769 0 b 1011 240 922 0 1011 88 l 1011 543 b 1043 581 1011 568 1019 581 l 1074 581 b 1104 543 1099 581 1104 568 l 1104 240 b 1344 0 1104 88 1193 0 z "},"":{"ha":696,"x_min":0,"x_max":0,"o":"m 649 0 l 649 722 b 408 964 649 876 561 964 l 288 964 b 47 722 135 964 47 876 l 47 0 l 288 0 l 288 240 l 408 240 l 408 0 z m 408 482 l 288 482 l 288 663 b 347 732 288 708 307 732 b 408 663 386 732 408 701 z "},"":{"ha":796,"x_min":0,"x_max":0,"o":"m 47 347 b 408 -14 47 136 211 -14 b 769 347 603 -14 769 136 b 408 708 769 558 607 708 b 288 688 367 708 326 701 l 288 964 l 47 964 z m 529 347 b 408 226 529 272 475 226 b 288 347 340 226 288 272 b 408 468 288 422 340 468 b 529 347 475 468 529 422 z "},"":{"ha":553,"x_min":0,"x_max":0,"o":"m 529 0 l 529 240 l 372 240 b 288 288 294 240 288 247 l 288 638 b 372 722 288 707 303 722 l 529 722 l 529 964 l 288 964 b 47 722 136 964 47 876 l 47 240 b 288 0 47 86 133 0 z "},"":{"ha":796,"x_min":0,"x_max":0,"o":"m 508 688 b 389 708 471 701 429 708 b 26 347 190 708 26 558 b 389 -14 26 136 194 -14 b 750 347 585 -14 750 136 l 750 964 l 508 964 z m 389 226 b 268 347 322 226 268 272 b 389 468 268 422 322 468 b 508 347 457 468 508 422 b 389 226 508 272 457 226 z "},"":{"ha":574,"x_min":0,"x_max":0,"o":"m 528 0 l 528 240 l 347 240 b 289 303 308 240 289 265 b 347 372 289 353 314 372 l 525 372 l 525 592 l 347 592 b 289 653 308 592 289 615 b 347 722 289 697 314 722 l 528 722 l 528 964 l 288 964 b 53 722 135 964 53 876 l 53 603 b 118 481 53 547 81 503 b 47 361 74 460 47 411 l 47 240 b 288 0 47 86 133 0 z "},"":{"ha":560,"x_min":0,"x_max":0,"o":"m 288 0 l 288 361 l 529 361 l 529 603 l 288 603 b 372 722 288 718 300 722 l 529 722 l 529 964 l 288 964 b 47 722 136 964 47 876 l 47 0 z "},"":{"ha":696,"x_min":0,"x_max":0,"o":"m 649 0 l 649 603 l 408 603 l 408 240 l 371 240 b 286 288 294 240 286 249 l 286 638 b 371 722 288 707 303 722 l 649 722 l 649 964 l 288 964 b 47 722 135 964 47 876 l 47 240 b 288 0 47 86 133 0 z "},"":{"ha":696,"x_min":0,"x_max":0,"o":"m 288 0 l 288 361 l 649 361 l 649 964 l 408 964 l 408 603 l 288 603 l 288 964 l 47 964 l 47 0 z m 649 0 l 649 240 l 408 240 l 408 0 z "},"":{"ha":335,"x_min":0,"x_max":0,"o":"m 288 0 l 288 964 l 47 964 l 47 0 z "},"":{"ha":575,"x_min":0,"x_max":0,"o":"m 288 0 b 529 240 442 0 529 86 l 529 964 l 288 964 l 288 325 b 203 240 288 269 265 240 l 47 240 l 47 0 z "},"":{"ha":719,"x_min":0,"x_max":0,"o":"m 432 542 b 674 782 583 542 674 631 l 674 964 l 432 964 l 432 867 b 347 782 432 800 415 782 l 288 782 l 288 964 l 47 964 l 47 542 z m 674 0 l 674 181 b 432 421 674 333 583 421 l 47 421 l 47 0 l 288 0 l 288 181 l 347 181 b 432 96 415 181 432 164 l 432 0 z "},"":{"ha":575,"x_min":0,"x_max":0,"o":"m 529 0 l 529 240 l 372 240 b 288 288 294 240 288 247 l 288 964 l 47 964 l 47 240 b 288 0 47 86 133 0 z "},"":{"ha":696,"x_min":0,"x_max":0,"o":"m 649 0 l 649 722 b 408 964 649 876 561 964 l 47 964 l 47 0 l 288 0 l 288 722 b 408 638 404 722 408 710 l 408 0 z "},"":{"ha":696,"x_min":0,"x_max":0,"o":"m 649 531 l 649 722 b 408 964 649 876 560 964 l 288 964 b 47 722 133 964 47 876 l 47 531 l 288 531 l 288 663 b 347 732 288 708 307 732 b 408 663 383 732 408 701 l 408 531 z m 408 0 b 649 240 561 0 649 88 l 649 421 l 408 421 l 408 300 b 349 232 408 256 389 232 b 288 300 310 232 288 263 l 288 421 l 47 421 l 47 240 b 288 0 47 88 135 0 z "},"":{"ha":696,"x_min":0,"x_max":0,"o":"m 649 531 l 649 722 b 408 964 649 876 561 964 l 288 964 b 47 722 135 964 47 876 l 47 531 l 288 531 l 288 663 b 347 732 288 708 307 732 b 408 663 386 732 408 701 l 408 531 z m 649 -240 l 649 421 l 408 421 l 408 232 l 350 232 b 288 300 311 232 288 263 l 288 421 l 47 421 l 47 240 b 288 0 47 88 136 0 l 408 0 l 408 -240 z "},"":{"ha":546,"x_min":0,"x_max":0,"o":"m 288 0 l 288 638 b 371 722 288 707 303 722 l 529 722 l 529 964 l 288 964 b 47 722 135 964 47 876 l 47 0 z "},"":{"ha":722,"x_min":0,"x_max":0,"o":"m 240 0 b 482 240 396 0 482 86 l 482 638 b 567 722 482 707 497 722 l 722 722 l 722 964 l 482 964 b 240 722 331 964 240 876 l 240 325 b 189 240 240 247 238 240 l 0 240 l 0 0 z "},"":{"ha":549,"x_min":0,"x_max":0,"o":"m 529 0 l 529 240 l 371 240 b 286 286 293 240 286 250 l 288 528 l 529 528 l 529 768 l 288 768 l 288 964 l 47 964 l 47 240 b 288 0 47 86 133 0 z "},"":{"ha":694,"x_min":0,"x_max":0,"o":"m 407 0 b 647 240 561 0 647 88 l 647 964 l 407 964 l 407 300 b 349 232 407 256 388 232 b 286 300 310 232 286 263 l 286 964 l 47 964 l 47 240 b 286 0 47 88 135 0 z "},"":{"ha":683,"x_min":0,"x_max":0,"o":"m 364 0 l 642 361 l 642 964 l 401 964 l 401 444 l 340 361 l 281 444 l 281 964 l 40 964 l 40 361 l 317 0 z "},"":{"ha":679,"x_min":0,"x_max":0,"o":"m 643 0 l 643 240 l 331 240 l 643 722 l 643 964 l 33 964 l 33 722 l 356 722 l 33 240 l 33 0 z "}}}
